{
.appVersion = "3517";
.formatVersion = 3;
DisplayStrings = (
"PAHINOUV
ceilnosuv"
);
axes = (
{
name = Weight;
tag = wght;
},
{
name = XTRA;
tag = XTRA;
},
{
name = XOPQ;
tag = XOPQ;
},
{
name = YOPQ;
tag = YOPQ;
},
{
name = "Optical size";
tag = opsz;
}
);
classes = (
{
automatic = 1;
code = "A H I N O P U V";
name = Uppercase;
}
);
customParameters = (
{
name = fsType;
value = (
);
},
{
name = "Write lastChange";
value = 0;
},
{
name = "Use Line Breaks";
value = 1;
},
{
name = "Use Typo Metrics";
value = 1;
},
{
name = "Disable Masters";
value = (
THIN,
BLACK,
"CND THIN",
CONDENSED,
"CND BLACK",
"EXP THIN",
EXPANDED,
"EXP BLACK"
);
}
);
date = "2026-03-13 20:55:36 +0000";
familyName = Saira;
featurePrefixes = (
{
automatic = 1;
code = "languagesystem DFLT dflt;
";
name = Languagesystems;
}
);
features = (
{
automatic = 1;
code = "lookup ccmp_DFLT_1 {
	@CombiningTopAccents = [acutecomb dieresiscomb dotaccentcomb];
	lookupflag UseMarkFilteringSet @CombiningTopAccents;
	sub i' @CombiningTopAccents by idotless;
} ccmp_DFLT_1;
";
tag = ccmp;
}
);
fontMaster = (
{
axesValues = (
82,
100,
100,
100,
24
);
customParameters = (
{
name = "Master Icon Glyph Name";
value = R;
},
{
name = underlineThickness;
value = 70.32609;
},
{
name = underlinePosition;
value = -160;
},
{
name = TTFZones;
value = (
{
name = ascender;
pos = 750;
size = 16;
},
{
name = capHeight;
pos = 688;
size = 9;
},
{
name = xHeight;
pos = 510;
size = 9;
},
{
name = baseline;
pos = 0;
size = -9;
},
{
name = descender;
pos = -250;
size = -16;
}
);
},
{
name = hheaAscender;
value = 1130;
},
{
name = hheaDescender;
value = -440;
},
{
name = hheaLineGap;
value = 0;
},
{
name = typoAscender;
value = 1130;
},
{
name = typoDescender;
value = -440;
},
{
name = typoLineGap;
value = 0;
},
{
name = winAscent;
value = 745;
},
{
name = winDescent;
value = 200;
}
);
id = m009;
metricValues = (
{
over = 16;
pos = 743;
},
{
over = 9;
pos = 688;
},
{
over = 9;
pos = 510;
},
{
over = -9;
},
{
over = -9;
pos = -200;
},
{

glyphs = (
{
color = 4;
glyphname = A;
kernLeft = A;
kernRight = A;
layers = (
{
anchors = (
{
name = bottom;
pos = (313,0);
},
{
name = ogonek;
pos = (616,0);
},
{
name = top;
pos = (313,688);
}
);
layerId = m009;
shapes = (
{
closed = 1;
nodes = (
(97,0,l),
(310,600,l),
(316,600,l),
(529,0,l),
(616,0,l),
(366,688,l),
(260,688,l),
(10,0,l)
);
},
{
closed = 1;
nodes = (
(500,189,l),
(473,263,l),
(152,263,l),
(125,189,l)
);
}
);
width = 626;
},
{
anchors = (
{
name = bottom;
pos = (177,0);
},
{
name = ogonek;
pos = (350,0);
},
{
name = top;
pos = (177,688);
}
);
layerId = m010;
shapes = (
{
closed = 1;
nodes = (
(87,0,l),
(175,620,l),
(179,620,l),
(267,0,l),
(350,0,l),
(245,688,l),
(108,688,l),
(4,0,l)
);
},
{
closed = 1;
nodes = (
(279,189,l),
(263,263,l),
(90,263,l),
(73,189,l)
);
}
);
width = 354;
},
{
anchors = (
{
name = bottom;
pos = (393,0);
},
{
name = ogonek;
pos = (776,0);
},
{
name = top;
pos = (393,688);
}
);
layerId = m011;
shapes = (
{
closed = 1;
nodes = (
(101,0,l),
(389,620,l),
(397,620,l),
(685,0,l),
(776,0,l),
(449,688,l),
(337,688,l),
(10,0,l)
);
},
{
closed = 1;
nodes = (
(631,189,l),
(592,263,l),
(190,263,l),
(155,189,l)
);
}
);
width = 786;
},
{
anchors = (
{
name = bottom;
pos = (313,0);
},
{
name = ogonek;
pos = (563,10);
},
{
name = top;
pos = (313,688);
}
);
guides = (
{
angle = -70.4551;
pos = (540,0);
}
);
layerId = m012;
shapes = (
{
closed = 1;
nodes = (
(97,0,l),
(310,600,l),
(316,600,l),
(529,0,l),
(540,0,l),
(295,688,l),
(260,688,l),
(10,0,l)
);
},
{
closed = 1;
nodes = (
(467,189,l),
(441,263,l),
(152,263,l),
(125,189,l)
);
}
);
width = 550;
},
{
anchors = (
{
name = bottom;
pos = (471,0);
},
{
name = ogonek;
pos = (774,0);
},
{
name = top;
pos = (471,688);
}
);
layerId = m013;
shapes = (
{
closed = 1;
nodes = (
(97,0,l),
(310,560,l),
(316,560,l),
(529,0,l),
(774,0,l),
(509,688,l),
(277,688,l),
(10,0,l)
);
},
{
closed = 1;
nodes = (
(501,189,l),
(474,263,l),
(151,263,l),
(123,189,l)
);
}
);
width = 784;
},
{
anchors = (
{
name = bottom;
pos = (275,0);
},
{
name = ogonek;
pos = (540,0);
},
{
name = top;
pos = (275,688);
}
);
layerId = m014;
shapes = (
{
closed = 1;
nodes = (
(21,0,l),
(234,600,l),
(240,600,l),
(453,0,l),
(540,0,l),
(290,688,l),
(255,688,l),
(10,0,l)
);
},
{
closed = 1;
nodes = (
(413,221,l),
(409,231,l),
(97,231,l),
(94,221,l)
);
}
);
width = 550;
},
{
anchors = (
{
name = bottom;
pos = (392,0);
},
{
name = ogonek;
pos = (774,0);
},
{
name = top;
pos = (392,688);
}
);
layerId = m015;
shapes = (
{
closed = 1;
nodes = (
(255,0,l),
(468,560,l),
(474,560,l),
(687,0,l),
(774,0,l),
(507,688,l),
(275,688,l),
(10,0,l)
);
},
{
closed = 1;
nodes = (
(685,126,l),
(600,326,l),
(234,326,l),
(149,126,l)
);
}
);
width = 784;
},
{
anchors = (
{
name = bottom;
pos = (362,0);
},
{
name = ogonek;
pos = (652,10);
},
{
name = top;
pos = (362,688);
}
);
background = {
shapes = (
{
closed = 1;
nodes = (
(433,119,l),
(462,0,l),
(694,0,l),
(503,688,l),
(178,688,l),
(-13,0,l),
(214,0,l),
(332,500,l),
(341,500,l),
(398,263,l),
(260,263,l),
(218,87,l)
);
}
);
};
layerId = "4F93A97B-747D-4721-B098-38A63C534D7A";
shapes = (
{
closed = 1;
nodes = (
(225,0,l),
(359,510,l),
(365,510,l),
(499,0,l),
(718,0,l),
(530,688,l),
(194,688,l),
(6,0,l)
);
},
{
closed = 1;
nodes = (
(522,124,l),
(486,284,l),
(238,284,l),
(195,124,l)
);
}
);
width = 724;
},
{
anchors = (
{
name = bottom;
pos = (314,0);
},
{
name = ogonek;
pos = (617,0);
},
{
name = top;
pos = (314,688);
}
);
layerId = m016;
shapes = (
{
closed = 1;
nodes = (
(98,0,l),
(312,600,l),
(316,600,l),
(530,0,l),
(617,0,l),
(367,688,l),
(261,688,l),
(11,0,l)
);
},
{
closed = 1;
nodes = (
(501,191,l),
(477,261,l),
(150,261,l),
(126,191,l)
);
}
);
width = 628;
}
);
metricLeft = "=H*.10";
metricRight = "=|";
unicode = 65;
},
{
glyphname = B;
kernLeft = H;
kernRight = B;
layers = (
{
anchors = (
{
name = bottom;
pos = (341.283,0);
},
{
name = top;
pos = (341.283,688);
}
);
layerId = m009;
shapes = (
{
closed = 1;
nodes = (
(416.261,0,l),
(575.283,0,o),
(609.609,84.13,o),
(609.609,181.087,cs),
(609.609,264.761,o),
(586.37,330.913,o),
(484.609,349.457,c),
(484.609,353.457,l),
(567.978,370,o),
(602.152,426.022,o),
(602.152,515.457,cs),
(602.152,620.978,o),
(555.826,688,o),
(419.826,688,cs),
(99.783,688,l),
(99.783,0,l)
);
},
{
closed = 1;
nodes = (
(185.783,311.348,l),
(395.804,311.348,ls),
(489.391,311.348,o),
(523.609,277.478,o),
(523.609,192.239,cs),
(523.609,107.37,o),
(494.13,73.674,o),
(395.804,73.674,cs),
(185.783,73.674,l)
);
},
{
closed = 1;
nodes = (
(185.783,613.783,l),
(391.717,613.783,ls),
(490.13,613.783,o),
(516.152,582.087,o),
(516.152,499.13,cs),
(516.152,422.261,o),
(476.652,385.565,o),
(391.717,385.565,cs),
(185.783,385.565,l)
);
}
);
width = 681.56522;
},
{
anchors = (
{
name = bottom;
pos = (341.283,0);
},
{
name = top;
pos = (341.283,688);
}
);
layerId = m010;
shapes = (
{
closed = 1;
nodes = (
(416.261,0,l),
(575.283,0,o),
(609.609,84.13,o),
(609.609,181.087,cs),
(609.609,264.761,o),
(586.37,330.913,o),
(484.609,349.457,c),
(484.609,353.457,l),
(567.978,370,o),
(602.152,426.022,o),
(602.152,515.457,cs),
(602.152,620.978,o),
(555.826,688,o),
(419.826,688,cs),
(99.783,688,l),
(99.783,0,l)
);
},
{
closed = 1;
nodes = (
(185.783,311.348,l),
(395.804,311.348,ls),
(489.391,311.348,o),
(523.609,277.478,o),
(523.609,192.239,cs),
(523.609,107.37,o),
(494.13,73.674,o),
(395.804,73.674,cs),
(185.783,73.674,l)
);
},
{
closed = 1;
nodes = (
(185.783,613.783,l),
(391.717,613.783,ls),
(490.13,613.783,o),
(516.152,582.087,o),
(516.152,499.13,cs),
(516.152,422.261,o),
(476.652,385.565,o),
(391.717,385.565,cs),
(185.783,385.565,l)
);
}
);
width = 681.56522;
},
{
anchors = (
{
name = bottom;
pos = (341.283,0);
},
{
name = top;
pos = (341.283,688);
}
);
layerId = m011;
shapes = (
{
closed = 1;
nodes = (
(416.261,0,l),
(575.283,0,o),
(609.609,84.13,o),
(609.609,181.087,cs),
(609.609,264.761,o),
(586.37,330.913,o),
(484.609,349.457,c),
(484.609,353.457,l),
(567.978,370,o),
(602.152,426.022,o),
(602.152,515.457,cs),
(602.152,620.978,o),
(555.826,688,o),
(419.826,688,cs),
(99.783,688,l),
(99.783,0,l)
);
},
{
closed = 1;
nodes = (
(185.783,311.348,l),
(395.804,311.348,ls),
(489.391,311.348,o),
(523.609,277.478,o),
(523.609,192.239,cs),
(523.609,107.37,o),
(494.13,73.674,o),
(395.804,73.674,cs),
(185.783,73.674,l)
);
},
{
closed = 1;
nodes = (
(185.783,613.783,l),
(391.717,613.783,ls),
(490.13,613.783,o),
(516.152,582.087,o),
(516.152,499.13,cs),
(516.152,422.261,o),
(476.652,385.565,o),
(391.717,385.565,cs),
(185.783,385.565,l)
);
}
);
width = 681.56522;
},
{
anchors = (
{
name = bottom;
pos = (341.283,0);
},
{
name = top;
pos = (341.283,688);
}
);
layerId = m012;
shapes = (
{
closed = 1;
nodes = (
(416.261,0,l),
(575.283,0,o),
(609.609,84.13,o),
(609.609,181.087,cs),
(609.609,264.761,o),
(586.37,330.913,o),
(484.609,349.457,c),
(484.609,353.457,l),
(567.978,370,o),
(602.152,426.022,o),
(602.152,515.457,cs),
(602.152,620.978,o),
(555.826,688,o),
(419.826,688,cs),
(99.783,688,l),
(99.783,0,l)
);
},
{
closed = 1;
nodes = (
(185.783,311.348,l),
(395.804,311.348,ls),
(489.391,311.348,o),
(523.609,277.478,o),
(523.609,192.239,cs),
(523.609,107.37,o),
(494.13,73.674,o),
(395.804,73.674,cs),
(185.783,73.674,l)
);
},
{
closed = 1;
nodes = (
(185.783,613.783,l),
(391.717,613.783,ls),
(490.13,613.783,o),
(516.152,582.087,o),
(516.152,499.13,cs),
(516.152,422.261,o),
(476.652,385.565,o),
(391.717,385.565,cs),
(185.783,385.565,l)
);
}
);
width = 681.56522;
},
{
anchors = (
{
name = bottom;
pos = (341.283,0);
},
{
name = top;
pos = (341.283,688);
}
);
layerId = m013;
shapes = (
{
closed = 1;
nodes = (
(416.261,0,l),
(575.283,0,o),
(609.609,84.13,o),
(609.609,181.087,cs),
(609.609,264.761,o),
(586.37,330.913,o),
(484.609,349.457,c),
(484.609,353.457,l),
(567.978,370,o),
(602.152,426.022,o),
(602.152,515.457,cs),
(602.152,620.978,o),
(555.826,688,o),
(419.826,688,cs),
(99.783,688,l),
(99.783,0,l)
);
},
{
closed = 1;
nodes = (
(185.783,311.348,l),
(395.804,311.348,ls),
(489.391,311.348,o),
(523.609,277.478,o),
(523.609,192.239,cs),
(523.609,107.37,o),
(494.13,73.674,o),
(395.804,73.674,cs),
(185.783,73.674,l)
);
},
{
closed = 1;
nodes = (
(185.783,613.783,l),
(391.717,613.783,ls),
(490.13,613.783,o),
(516.152,582.087,o),
(516.152,499.13,cs),
(516.152,422.261,o),
(476.652,385.565,o),
(391.717,385.565,cs),
(185.783,385.565,l)
);
}
);
width = 681.56522;
},
{
anchors = (
{
name = bottom;
pos = (341.283,0);
},
{
name = top;
pos = (341.283,688);
}
);
layerId = m014;
shapes = (
{
closed = 1;
nodes = (
(416.261,0,l),
(575.283,0,o),
(609.609,84.13,o),
(609.609,181.087,cs),
(609.609,264.761,o),
(586.37,330.913,o),
(484.609,349.457,c),
(484.609,353.457,l),
(567.978,370,o),
(602.152,426.022,o),
(602.152,515.457,cs),
(602.152,620.978,o),
(555.826,688,o),
(419.826,688,cs),
(99.783,688,l),
(99.783,0,l)
);
},
{
closed = 1;
nodes = (
(185.783,311.348,l),
(395.804,311.348,ls),
(489.391,311.348,o),
(523.609,277.478,o),
(523.609,192.239,cs),
(523.609,107.37,o),
(494.13,73.674,o),
(395.804,73.674,cs),
(185.783,73.674,l)
);
},
{
closed = 1;
nodes = (
(185.783,613.783,l),
(391.717,613.783,ls),
(490.13,613.783,o),
(516.152,582.087,o),
(516.152,499.13,cs),
(516.152,422.261,o),
(476.652,385.565,o),
(391.717,385.565,cs),
(185.783,385.565,l)
);
}
);
width = 681.56522;
},
{
anchors = (
{
name = bottom;
pos = (341.283,0);
},
{
name = top;
pos = (341.283,688);
}
);
layerId = m015;
shapes = (
{
closed = 1;
nodes = (
(416.261,0,l),
(575.283,0,o),
(609.609,84.13,o),
(609.609,181.087,cs),
(609.609,264.761,o),
(586.37,330.913,o),
(484.609,349.457,c),
(484.609,353.457,l),
(567.978,370,o),
(602.152,426.022,o),
(602.152,515.457,cs),
(602.152,620.978,o),
(555.826,688,o),
(419.826,688,cs),
(99.783,688,l),
(99.783,0,l)
);
},
{
closed = 1;
nodes = (
(185.783,311.348,l),
(395.804,311.348,ls),
(489.391,311.348,o),
(523.609,277.478,o),
(523.609,192.239,cs),
(523.609,107.37,o),
(494.13,73.674,o),
(395.804,73.674,cs),
(185.783,73.674,l)
);
},
{
closed = 1;
nodes = (
(185.783,613.783,l),
(391.717,613.783,ls),
(490.13,613.783,o),
(516.152,582.087,o),
(516.152,499.13,cs),
(516.152,422.261,o),
(476.652,385.565,o),
(391.717,385.565,cs),
(185.783,385.565,l)
);
}
);
width = 681.56522;
},
{
anchors = (
{
name = bottom;
pos = (330,0);
},
{
name = top;
pos = (330,688);
}
);
layerId = "4F93A97B-747D-4721-B098-38A63C534D7A";
shapes = (
{
closed = 1;
nodes = (
(417,0,l),
(561,0,o),
(623,61,o),
(623,184,cs),
(623,300,o),
(576,330,o),
(498,349,c),
(498,353,l),
(580,372,o),
(621,414,o),
(621,515,cs),
(621,636,o),
(545,688,o),
(419,688,cs),
(51,688,l),
(51,0,l)
);
},
{
closed = 1;
nodes = (
(281,279,l),
(329,279,ls),
(383,279,o),
(389,272,o),
(389,219,cs),
(389,166,o),
(383,161,o),
(329,161,cs),
(281,161,l)
);
},
{
closed = 1;
nodes = (
(281,527,l),
(329,527,ls),
(383,527,o),
(389,522,o),
(389,471,cs),
(389,422,o),
(383,416,o),
(329,416,cs),
(281,416,l)
);
}
);
width = 660;
},
{
anchors = (
{
name = bottom;
pos = (341.283,0);
},
{
name = top;
pos = (341.283,688);
}
);
layerId = m016;
shapes = (
{
closed = 1;
nodes = (
(416.261,0,l),
(575.283,0,o),
(609.609,84.13,o),
(609.609,181.087,cs),
(609.609,264.761,o),
(586.37,330.913,o),
(484.609,349.457,c),
(484.609,353.457,l),
(567.978,370,o),
(602.152,426.022,o),
(602.152,515.457,cs),
(602.152,620.978,o),
(555.826,688,o),
(419.826,688,cs),
(99.783,688,l),
(99.783,0,l)
);
},
{
closed = 1;
nodes = (
(185.783,311.348,l),
(395.804,311.348,ls),
(489.391,311.348,o),
(523.609,277.478,o),
(523.609,192.239,cs),
(523.609,107.37,o),
(494.13,73.674,o),
(395.804,73.674,cs),
(185.783,73.674,l)
);
},
{
closed = 1;
nodes = (
(185.783,613.783,l),
(391.717,613.783,ls),
(490.13,613.783,o),
(516.152,582.087,o),
(516.152,499.13,cs),
(516.152,422.261,o),
(476.652,385.565,o),
(391.717,385.565,cs),
(185.783,385.565,l)
);
}
);
width = 681.56522;
}
);
unicode = 66;
},
{
glyphname = C;
kernLeft = O;
kernRight = C;
layers = (
{
anchors = (
{
name = bottom;
pos = (331.717,0);
},
{
name = top;
pos = (331.717,688);
}
);
layerId = m009;
shapes = (
{
closed = 1;
nodes = (
(405.913,-8,o),
(474.717,-2.913,o),
(517.891,4.717,c),
(517.891,76.217,l),
(478.978,70.217,o),
(420.065,66.217,o),
(375.152,66.217,cs),
(179.978,66.217,o),
(162.413,87.957,o),
(162.413,344,cs),
(162.413,600.043,o),
(179.978,621.783,o),
(375.152,621.783,cs),
(412.63,621.783,o),
(468.457,617.783,o),
(513.891,611.783,c),
(513.891,681.283,l),
(474.261,689.913,o),
(407.457,696,o),
(353.196,696,cs),
(113.783,696,o),
(76.413,639.522,o),
(76.413,344,cs),
(76.413,46.652,o),
(113.783,-8,o),
(353.196,-8,cs)
);
}
);
width = 574.73913;
},
{
anchors = (
{
name = bottom;
pos = (331.717,0);
},
{
name = top;
pos = (331.717,688);
}
);
layerId = m010;
shapes = (
{
closed = 1;
nodes = (
(405.913,-8,o),
(474.717,-2.913,o),
(517.891,4.717,c),
(517.891,76.217,l),
(478.978,70.217,o),
(420.065,66.217,o),
(375.152,66.217,cs),
(179.978,66.217,o),
(162.413,87.957,o),
(162.413,344,cs),
(162.413,600.043,o),
(179.978,621.783,o),
(375.152,621.783,cs),
(412.63,621.783,o),
(468.457,617.783,o),
(513.891,611.783,c),
(513.891,681.283,l),
(474.261,689.913,o),
(407.457,696,o),
(353.196,696,cs),
(113.783,696,o),
(76.413,639.522,o),
(76.413,344,cs),
(76.413,46.652,o),
(113.783,-8,o),
(353.196,-8,cs)
);
}
);
width = 574.73913;
},
{
anchors = (
{
name = bottom;
pos = (331.717,0);
},
{
name = top;
pos = (331.717,688);
}
);
layerId = m011;
shapes = (
{
closed = 1;
nodes = (
(405.913,-8,o),
(474.717,-2.913,o),
(517.891,4.717,c),
(517.891,76.217,l),
(478.978,70.217,o),
(420.065,66.217,o),
(375.152,66.217,cs),
(179.978,66.217,o),
(162.413,87.957,o),
(162.413,344,cs),
(162.413,600.043,o),
(179.978,621.783,o),
(375.152,621.783,cs),
(412.63,621.783,o),
(468.457,617.783,o),
(513.891,611.783,c),
(513.891,681.283,l),
(474.261,689.913,o),
(407.457,696,o),
(353.196,696,cs),
(113.783,696,o),
(76.413,639.522,o),
(76.413,344,cs),
(76.413,46.652,o),
(113.783,-8,o),
(353.196,-8,cs)
);
}
);
width = 574.73913;
},
{
anchors = (
{
name = bottom;
pos = (331.717,0);
},
{
name = top;
pos = (331.717,688);
}
);
layerId = m012;
shapes = (
{
closed = 1;
nodes = (
(405.913,-8,o),
(474.717,-2.913,o),
(517.891,4.717,c),
(517.891,76.217,l),
(478.978,70.217,o),
(420.065,66.217,o),
(375.152,66.217,cs),
(179.978,66.217,o),
(162.413,87.957,o),
(162.413,344,cs),
(162.413,600.043,o),
(179.978,621.783,o),
(375.152,621.783,cs),
(412.63,621.783,o),
(468.457,617.783,o),
(513.891,611.783,c),
(513.891,681.283,l),
(474.261,689.913,o),
(407.457,696,o),
(353.196,696,cs),
(113.783,696,o),
(76.413,639.522,o),
(76.413,344,cs),
(76.413,46.652,o),
(113.783,-8,o),
(353.196,-8,cs)
);
}
);
width = 574.73913;
},
{
anchors = (
{
name = bottom;
pos = (331.717,0);
},
{
name = top;
pos = (331.717,688);
}
);
layerId = m013;
shapes = (
{
closed = 1;
nodes = (
(405.913,-8,o),
(474.717,-2.913,o),
(517.891,4.717,c),
(517.891,76.217,l),
(478.978,70.217,o),
(420.065,66.217,o),
(375.152,66.217,cs),
(179.978,66.217,o),
(162.413,87.957,o),
(162.413,344,cs),
(162.413,600.043,o),
(179.978,621.783,o),
(375.152,621.783,cs),
(412.63,621.783,o),
(468.457,617.783,o),
(513.891,611.783,c),
(513.891,681.283,l),
(474.261,689.913,o),
(407.457,696,o),
(353.196,696,cs),
(113.783,696,o),
(76.413,639.522,o),
(76.413,344,cs),
(76.413,46.652,o),
(113.783,-8,o),
(353.196,-8,cs)
);
}
);
width = 574.73913;
},
{
anchors = (
{
name = bottom;
pos = (331.717,0);
},
{
name = top;
pos = (331.717,688);
}
);
layerId = m014;
shapes = (
{
closed = 1;
nodes = (
(405.913,-8,o),
(474.717,-2.913,o),
(517.891,4.717,c),
(517.891,76.217,l),
(478.978,70.217,o),
(420.065,66.217,o),
(375.152,66.217,cs),
(179.978,66.217,o),
(162.413,87.957,o),
(162.413,344,cs),
(162.413,600.043,o),
(179.978,621.783,o),
(375.152,621.783,cs),
(412.63,621.783,o),
(468.457,617.783,o),
(513.891,611.783,c),
(513.891,681.283,l),
(474.261,689.913,o),
(407.457,696,o),
(353.196,696,cs),
(113.783,696,o),
(76.413,639.522,o),
(76.413,344,cs),
(76.413,46.652,o),
(113.783,-8,o),
(353.196,-8,cs)
);
}
);
width = 574.73913;
},
{
anchors = (
{
name = bottom;
pos = (331.717,0);
},
{
name = top;
pos = (331.717,688);
}
);
layerId = m015;
shapes = (
{
closed = 1;
nodes = (
(405.913,-8,o),
(474.717,-2.913,o),
(517.891,4.717,c),
(517.891,76.217,l),
(478.978,70.217,o),
(420.065,66.217,o),
(375.152,66.217,cs),
(179.978,66.217,o),
(162.413,87.957,o),
(162.413,344,cs),
(162.413,600.043,o),
(179.978,621.783,o),
(375.152,621.783,cs),
(412.63,621.783,o),
(468.457,617.783,o),
(513.891,611.783,c),
(513.891,681.283,l),
(474.261,689.913,o),
(407.457,696,o),
(353.196,696,cs),
(113.783,696,o),
(76.413,639.522,o),
(76.413,344,cs),
(76.413,46.652,o),
(113.783,-8,o),
(353.196,-8,cs)
);
}
);
width = 574.73913;
},
{
anchors = (
{
name = bottom;
pos = (322,0);
},
{
name = top;
pos = (322,688);
}
);
layerId = "4F93A97B-747D-4721-B098-38A63C534D7A";
shapes = (
{
closed = 1;
nodes = (
(407,-8,o),
(487,-1,o),
(532,8,c),
(532,167,l),
(493,162,o),
(437,159,o),
(397,159,cs),
(277,159,o),
(277,174,o),
(277,344,cs),
(277,513,o),
(277,529,o),
(397,529,cs),
(416,529,o),
(447,527,o),
(528,521,c),
(528,677,l),
(482,688,o),
(405,696,o),
(342,696,cs),
(74,696,o),
(42,614,o),
(42,344,cs),
(42,74,o),
(74,-8,o),
(342,-8,cs)
);
}
);
width = 567;
},
{
anchors = (
{
name = bottom;
pos = (331.717,0);
},
{
name = top;
pos = (331.717,688);
}
);
layerId = m016;
shapes = (
{
closed = 1;
nodes = (
(405.913,-8,o),
(474.717,-2.913,o),
(517.891,4.717,c),
(517.891,76.217,l),
(478.978,70.217,o),
(420.065,66.217,o),
(375.152,66.217,cs),
(179.978,66.217,o),
(162.413,87.957,o),
(162.413,344,cs),
(162.413,600.043,o),
(179.978,621.783,o),
(375.152,621.783,cs),
(412.63,621.783,o),
(468.457,617.783,o),
(513.891,611.783,c),
(513.891,681.283,l),
(474.261,689.913,o),
(407.457,696,o),
(353.196,696,cs),
(113.783,696,o),
(76.413,639.522,o),
(76.413,344,cs),
(76.413,46.652,o),
(113.783,-8,o),
(353.196,-8,cs)
);
}
);
width = 574.73913;
}
);
unicode = 67;
},
{
glyphname = D;
kernLeft = H;
kernRight = O;
layers = (
{
anchors = (
{
name = bottom;
pos = (344.826,0);
},
{
name = center;
pos = (142.783,344);
},
{
name = top;
pos = (344.826,688);
}
);
layerId = m009;
shapes = (
{
closed = 1;
nodes = (
(318.37,0,l),
(598.5,0,o),
(611.696,52.13,o),
(611.696,344,cs),
(611.696,635.87,o),
(598.5,688,o),
(318.37,688,cs),
(99.783,688,l),
(99.783,0,l)
);
},
{
closed = 1;
nodes = (
(185.783,613.783,l),
(304.348,613.783,ls),
(512.043,613.783,o),
(525.696,609.957,o),
(525.696,344,cs),
(525.696,77.5,o),
(514.957,74.217,o),
(304.348,74.217,cs),
(185.783,74.217,l)
);
}
);
width = 688.65217;
},
{
anchors = (
{
name = bottom;
pos = (344.826,0);
},
{
name = center;
pos = (142.783,344);
},
{
name = top;
pos = (344.826,688);
}
);
layerId = m010;
shapes = (
{
closed = 1;
nodes = (
(318.37,0,l),
(598.5,0,o),
(611.696,52.13,o),
(611.696,344,cs),
(611.696,635.87,o),
(598.5,688,o),
(318.37,688,cs),
(99.783,688,l),
(99.783,0,l)
);
},
{
closed = 1;
nodes = (
(185.783,613.783,l),
(304.348,613.783,ls),
(512.043,613.783,o),
(525.696,609.957,o),
(525.696,344,cs),
(525.696,77.5,o),
(514.957,74.217,o),
(304.348,74.217,cs),
(185.783,74.217,l)
);
}
);
width = 688.65217;
},
{
anchors = (
{
name = bottom;
pos = (344.826,0);
},
{
name = center;
pos = (142.783,344);
},
{
name = top;
pos = (344.826,688);
}
);
layerId = m011;
shapes = (
{
closed = 1;
nodes = (
(318.37,0,l),
(598.5,0,o),
(611.696,52.13,o),
(611.696,344,cs),
(611.696,635.87,o),
(598.5,688,o),
(318.37,688,cs),
(99.783,688,l),
(99.783,0,l)
);
},
{
closed = 1;
nodes = (
(185.783,613.783,l),
(304.348,613.783,ls),
(512.043,613.783,o),
(525.696,609.957,o),
(525.696,344,cs),
(525.696,77.5,o),
(514.957,74.217,o),
(304.348,74.217,cs),
(185.783,74.217,l)
);
}
);
width = 688.65217;
},
{
anchors = (
{
name = bottom;
pos = (344.826,0);
},
{
name = center;
pos = (142.783,344);
},
{
name = top;
pos = (344.826,688);
}
);
layerId = m012;
shapes = (
{
closed = 1;
nodes = (
(318.37,0,l),
(598.5,0,o),
(611.696,52.13,o),
(611.696,344,cs),
(611.696,635.87,o),
(598.5,688,o),
(318.37,688,cs),
(99.783,688,l),
(99.783,0,l)
);
},
{
closed = 1;
nodes = (
(185.783,613.783,l),
(304.348,613.783,ls),
(512.043,613.783,o),
(525.696,609.957,o),
(525.696,344,cs),
(525.696,77.5,o),
(514.957,74.217,o),
(304.348,74.217,cs),
(185.783,74.217,l)
);
}
);
width = 688.65217;
},
{
anchors = (
{
name = bottom;
pos = (344.826,0);
},
{
name = center;
pos = (142.783,344);
},
{
name = top;
pos = (344.826,688);
}
);
layerId = m013;
shapes = (
{
closed = 1;
nodes = (
(318.37,0,l),
(598.5,0,o),
(611.696,52.13,o),
(611.696,344,cs),
(611.696,635.87,o),
(598.5,688,o),
(318.37,688,cs),
(99.783,688,l),
(99.783,0,l)
);
},
{
closed = 1;
nodes = (
(185.783,613.783,l),
(304.348,613.783,ls),
(512.043,613.783,o),
(525.696,609.957,o),
(525.696,344,cs),
(525.696,77.5,o),
(514.957,74.217,o),
(304.348,74.217,cs),
(185.783,74.217,l)
);
}
);
width = 688.65217;
},
{
anchors = (
{
name = bottom;
pos = (344.826,0);
},
{
name = center;
pos = (142.783,344);
},
{
name = top;
pos = (344.826,688);
}
);
layerId = m014;
shapes = (
{
closed = 1;
nodes = (
(318.37,0,l),
(598.5,0,o),
(611.696,52.13,o),
(611.696,344,cs),
(611.696,635.87,o),
(598.5,688,o),
(318.37,688,cs),
(99.783,688,l),
(99.783,0,l)
);
},
{
closed = 1;
nodes = (
(185.783,613.783,l),
(304.348,613.783,ls),
(512.043,613.783,o),
(525.696,609.957,o),
(525.696,344,cs),
(525.696,77.5,o),
(514.957,74.217,o),
(304.348,74.217,cs),
(185.783,74.217,l)
);
}
);
width = 688.65217;
},
{
anchors = (
{
name = bottom;
pos = (344.826,0);
},
{
name = center;
pos = (142.783,344);
},
{
name = top;
pos = (344.826,688);
}
);
layerId = m015;
shapes = (
{
closed = 1;
nodes = (
(318.37,0,l),
(598.5,0,o),
(611.696,52.13,o),
(611.696,344,cs),
(611.696,635.87,o),
(598.5,688,o),
(318.37,688,cs),
(99.783,688,l),
(99.783,0,l)
);
},
{
closed = 1;
nodes = (
(185.783,613.783,l),
(304.348,613.783,ls),
(512.043,613.783,o),
(525.696,609.957,o),
(525.696,344,cs),
(525.696,77.5,o),
(514.957,74.217,o),
(304.348,74.217,cs),
(185.783,74.217,l)
);
}
);
width = 688.65217;
},
{
anchors = (
{
name = bottom;
pos = (335,0);
},
{
name = center;
pos = (168,344);
},
{
name = top;
pos = (335,688);
}
);
layerId = "4F93A97B-747D-4721-B098-38A63C534D7A";
shapes = (
{
closed = 1;
nodes = (
(306,0,l),
(625,0,o),
(628,72,o),
(628,344,cs),
(628,616,o),
(625,688,o),
(306,688,cs),
(51,688,l),
(51,0,l)
);
},
{
closed = 1;
nodes = (
(285,521,l),
(309,521,ls),
(393,521,o),
(393,516,o),
(393,343,cs),
(393,174,o),
(393,167,o),
(309,167,cs),
(285,167,l)
);
}
);
width = 670;
},
{
anchors = (
{
name = bottom;
pos = (344.826,0);
},
{
name = center;
pos = (142.783,344);
},
{
name = top;
pos = (344.826,688);
}
);
layerId = m016;
shapes = (
{
closed = 1;
nodes = (
(318.37,0,l),
(598.5,0,o),
(611.696,52.13,o),
(611.696,344,cs),
(611.696,635.87,o),
(598.5,688,o),
(318.37,688,cs),
(99.783,688,l),
(99.783,0,l)
);
},
{
closed = 1;
nodes = (
(185.783,613.783,l),
(304.348,613.783,ls),
(512.043,613.783,o),
(525.696,609.957,o),
(525.696,344,cs),
(525.696,77.5,o),
(514.957,74.217,o),
(304.348,74.217,cs),
(185.783,74.217,l)
);
}
);
width = 688.65217;
}
);
unicode = 68;
},
{
glyphname = E;
kernLeft = H;
kernRight = E;
layers = (
{
anchors = (
{
name = bottom;
pos = (329.739,0);
},
{
name = ogonek;
pos = (546.978,0);
},
{
name = top;
pos = (329.739,688);
},
{
name = topleft;
pos = (99.783,688);
}
);
layerId = m009;
shapes = (
{
closed = 1;
nodes = (
(546.978,0,l),
(546.978,74.217,l),
(185.783,74.217,l),
(185.783,310.348,l),
(499.978,310.348,l),
(499.978,384.565,l),
(185.783,384.565,l),
(185.783,613.783,l),
(546.978,613.783,l),
(546.978,688,l),
(99.783,688,l),
(99.783,0,l)
);
}
);
width = 603.43478;
},
{
anchors = (
{
name = bottom;
pos = (329.739,0);
},
{
name = ogonek;
pos = (546.978,0);
},
{
name = top;
pos = (329.739,688);
},
{
name = topleft;
pos = (99.783,688);
}
);
layerId = m010;
shapes = (
{
closed = 1;
nodes = (
(546.978,0,l),
(546.978,74.217,l),
(185.783,74.217,l),
(185.783,310.348,l),
(499.978,310.348,l),
(499.978,384.565,l),
(185.783,384.565,l),
(185.783,613.783,l),
(546.978,613.783,l),
(546.978,688,l),
(99.783,688,l),
(99.783,0,l)
);
}
);
width = 603.43478;
},
{
anchors = (
{
name = bottom;
pos = (329.739,0);
},
{
name = ogonek;
pos = (546.978,0);
},
{
name = top;
pos = (329.739,688);
},
{
name = topleft;
pos = (99.783,688);
}
);
layerId = m011;
shapes = (
{
closed = 1;
nodes = (
(546.978,0,l),
(546.978,74.217,l),
(185.783,74.217,l),
(185.783,310.348,l),
(499.978,310.348,l),
(499.978,384.565,l),
(185.783,384.565,l),
(185.783,613.783,l),
(546.978,613.783,l),
(546.978,688,l),
(99.783,688,l),
(99.783,0,l)
);
}
);
width = 603.43478;
},
{
anchors = (
{
name = bottom;
pos = (329.739,0);
},
{
name = ogonek;
pos = (546.978,0);
},
{
name = top;
pos = (329.739,688);
},
{
name = topleft;
pos = (99.783,688);
}
);
layerId = m012;
shapes = (
{
closed = 1;
nodes = (
(546.978,0,l),
(546.978,74.217,l),
(185.783,74.217,l),
(185.783,310.348,l),
(499.978,310.348,l),
(499.978,384.565,l),
(185.783,384.565,l),
(185.783,613.783,l),
(546.978,613.783,l),
(546.978,688,l),
(99.783,688,l),
(99.783,0,l)
);
}
);
width = 603.43478;
},
{
anchors = (
{
name = bottom;
pos = (329.739,0);
},
{
name = ogonek;
pos = (546.978,0);
},
{
name = top;
pos = (329.739,688);
},
{
name = topleft;
pos = (99.783,688);
}
);
layerId = m013;
shapes = (
{
closed = 1;
nodes = (
(546.978,0,l),
(546.978,74.217,l),
(185.783,74.217,l),
(185.783,310.348,l),
(499.978,310.348,l),
(499.978,384.565,l),
(185.783,384.565,l),
(185.783,613.783,l),
(546.978,613.783,l),
(546.978,688,l),
(99.783,688,l),
(99.783,0,l)
);
}
);
width = 603.43478;
},
{
anchors = (
{
name = bottom;
pos = (329.739,0);
},
{
name = ogonek;
pos = (546.978,0);
},
{
name = top;
pos = (329.739,688);
},
{
name = topleft;
pos = (99.783,688);
}
);
layerId = m014;
shapes = (
{
closed = 1;
nodes = (
(546.978,0,l),
(546.978,74.217,l),
(185.783,74.217,l),
(185.783,310.348,l),
(499.978,310.348,l),
(499.978,384.565,l),
(185.783,384.565,l),
(185.783,613.783,l),
(546.978,613.783,l),
(546.978,688,l),
(99.783,688,l),
(99.783,0,l)
);
}
);
width = 603.43478;
},
{
anchors = (
{
name = bottom;
pos = (329.739,0);
},
{
name = ogonek;
pos = (546.978,0);
},
{
name = top;
pos = (329.739,688);
},
{
name = topleft;
pos = (99.783,688);
}
);
layerId = m015;
shapes = (
{
closed = 1;
nodes = (
(546.978,0,l),
(546.978,74.217,l),
(185.783,74.217,l),
(185.783,310.348,l),
(499.978,310.348,l),
(499.978,384.565,l),
(185.783,384.565,l),
(185.783,613.783,l),
(546.978,613.783,l),
(546.978,688,l),
(99.783,688,l),
(99.783,0,l)
);
}
);
width = 603.43478;
},
{
anchors = (
{
name = bottom;
pos = (308,0);
},
{
name = ogonek;
pos = (555,0);
},
{
name = top;
pos = (308,688);
},
{
name = topleft;
pos = (51,688);
}
);
layerId = "4F93A97B-747D-4721-B098-38A63C534D7A";
shapes = (
{
closed = 1;
nodes = (
(555,0,l),
(555,167,l),
(284,167,l),
(284,266,l),
(508,266,l),
(508,429,l),
(284,429,l),
(284,521,l),
(555,521,l),
(555,688,l),
(51,688,l),
(51,0,l)
);
}
);
width = 603;
},
{
anchors = (
{
name = bottom;
pos = (329.739,0);
},
{
name = ogonek;
pos = (546.978,0);
},
{
name = top;
pos = (329.739,688);
},
{
name = topleft;
pos = (99.783,688);
}
);
layerId = m016;
shapes = (
{
closed = 1;
nodes = (
(546.978,0,l),
(546.978,74.217,l),
(185.783,74.217,l),
(185.783,310.348,l),
(499.978,310.348,l),
(499.978,384.565,l),
(185.783,384.565,l),
(185.783,613.783,l),
(546.978,613.783,l),
(546.978,688,l),
(99.783,688,l),
(99.783,0,l)
);
}
);
width = 603.43478;
}
);
unicode = 69;
},
{
glyphname = F;
kernLeft = H;
kernRight = F;
layers = (
{
anchors = (
{
name = bottom;
pos = (142.783,0);
},
{
name = top;
pos = (313.652,688);
}
);
layerId = m009;
shapes = (
{
closed = 1;
nodes = (
(185.783,0,l),
(185.783,294.717,l),
(489.978,294.717,l),
(489.978,368.935,l),
(185.783,368.935,l),
(185.783,613.783,l),
(526.978,613.783,l),
(526.978,688,l),
(99.783,688,l),
(99.783,0,l)
);
}
);
width = 565.34783;
},
{
anchors = (
{
name = bottom;
pos = (142.783,0);
},
{
name = top;
pos = (313.652,688);
}
);
layerId = m010;
shapes = (
{
closed = 1;
nodes = (
(185.783,0,l),
(185.783,294.717,l),
(489.978,294.717,l),
(489.978,368.935,l),
(185.783,368.935,l),
(185.783,613.783,l),
(526.978,613.783,l),
(526.978,688,l),
(99.783,688,l),
(99.783,0,l)
);
}
);
width = 565.34783;
},
{
anchors = (
{
name = bottom;
pos = (142.783,0);
},
{
name = top;
pos = (313.652,688);
}
);
layerId = m011;
shapes = (
{
closed = 1;
nodes = (
(185.783,0,l),
(185.783,294.717,l),
(489.978,294.717,l),
(489.978,368.935,l),
(185.783,368.935,l),
(185.783,613.783,l),
(526.978,613.783,l),
(526.978,688,l),
(99.783,688,l),
(99.783,0,l)
);
}
);
width = 565.34783;
},
{
anchors = (
{
name = bottom;
pos = (142.783,0);
},
{
name = top;
pos = (313.652,688);
}
);
layerId = m012;
shapes = (
{
closed = 1;
nodes = (
(185.783,0,l),
(185.783,294.717,l),
(489.978,294.717,l),
(489.978,368.935,l),
(185.783,368.935,l),
(185.783,613.783,l),
(526.978,613.783,l),
(526.978,688,l),
(99.783,688,l),
(99.783,0,l)
);
}
);
width = 565.34783;
},
{
anchors = (
{
name = bottom;
pos = (142.783,0);
},
{
name = top;
pos = (313.652,688);
}
);
layerId = m013;
shapes = (
{
closed = 1;
nodes = (
(185.783,0,l),
(185.783,294.717,l),
(489.978,294.717,l),
(489.978,368.935,l),
(185.783,368.935,l),
(185.783,613.783,l),
(526.978,613.783,l),
(526.978,688,l),
(99.783,688,l),
(99.783,0,l)
);
}
);
width = 565.34783;
},
{
anchors = (
{
name = bottom;
pos = (142.783,0);
},
{
name = top;
pos = (313.652,688);
}
);
layerId = m014;
shapes = (
{
closed = 1;
nodes = (
(185.783,0,l),
(185.783,294.717,l),
(489.978,294.717,l),
(489.978,368.935,l),
(185.783,368.935,l),
(185.783,613.783,l),
(526.978,613.783,l),
(526.978,688,l),
(99.783,688,l),
(99.783,0,l)
);
}
);
width = 565.34783;
},
{
anchors = (
{
name = bottom;
pos = (142.783,0);
},
{
name = top;
pos = (313.652,688);
}
);
layerId = m015;
shapes = (
{
closed = 1;
nodes = (
(185.783,0,l),
(185.783,294.717,l),
(489.978,294.717,l),
(489.978,368.935,l),
(185.783,368.935,l),
(185.783,613.783,l),
(526.978,613.783,l),
(526.978,688,l),
(99.783,688,l),
(99.783,0,l)
);
}
);
width = 565.34783;
},
{
anchors = (
{
name = bottom;
pos = (168,0);
},
{
name = top;
pos = (293,688);
}
);
layerId = "4F93A97B-747D-4721-B098-38A63C534D7A";
shapes = (
{
closed = 1;
nodes = (
(284,0,l),
(284,233,l),
(498,233,l),
(498,400,l),
(284,400,l),
(284,521,l),
(535,521,l),
(535,688,l),
(51,688,l),
(51,0,l)
);
}
);
width = 569;
},
{
anchors = (
{
name = bottom;
pos = (142.783,0);
},
{
name = top;
pos = (313.652,688);
}
);
layerId = m016;
shapes = (
{
closed = 1;
nodes = (
(185.783,0,l),
(185.783,294.717,l),
(489.978,294.717,l),
(489.978,368.935,l),
(185.783,368.935,l),
(185.783,613.783,l),
(526.978,613.783,l),
(526.978,688,l),
(99.783,688,l),
(99.783,0,l)
);
}
);
width = 565.34783;
}
);
unicode = 70;
},
{
glyphname = G;
kernLeft = O;
kernRight = G;
layers = (
{
anchors = (
{
name = bottom;
pos = (358.196,0);
},
{
name = top;
pos = (358.196,688);
}
);
layerId = m009;
shapes = (
{
closed = 1;
nodes = (
(430.37,-8,o),
(521.174,0.087,o),
(587.891,11.717,c),
(587.891,369.652,l),
(349.196,369.652,l),
(349.196,297.065,l),
(504.609,297.065,l),
(504.609,72.783,l),
(472.109,68.413,o),
(411.391,64.587,o),
(369.913,64.587,cs),
(185.696,64.587,o),
(162.413,101.326,o),
(162.413,344,cs),
(162.413,618.239,o),
(202.543,621.783,o),
(410.152,621.783,cs),
(449.261,621.783,o),
(520.37,615.326,o),
(584.891,606.326,c),
(584.891,675.826,l),
(525.283,687.457,o),
(435.109,696,o),
(368.196,696,cs),
(127.587,696,o),
(76.413,639.065,o),
(76.413,344,cs),
(76.413,48.935,o),
(125.13,-8,o),
(368.196,-8,cs)
);
}
);
width = 675.93478;
},
{
anchors = (
{
name = bottom;
pos = (358.196,0);
},
{
name = top;
pos = (358.196,688);
}
);
layerId = m010;
shapes = (
{
closed = 1;
nodes = (
(430.37,-8,o),
(521.174,0.087,o),
(587.891,11.717,c),
(587.891,369.652,l),
(349.196,369.652,l),
(349.196,297.065,l),
(504.609,297.065,l),
(504.609,72.783,l),
(472.109,68.413,o),
(411.391,64.587,o),
(369.913,64.587,cs),
(185.696,64.587,o),
(162.413,101.326,o),
(162.413,344,cs),
(162.413,618.239,o),
(202.543,621.783,o),
(410.152,621.783,cs),
(449.261,621.783,o),
(520.37,615.326,o),
(584.891,606.326,c),
(584.891,675.826,l),
(525.283,687.457,o),
(435.109,696,o),
(368.196,696,cs),
(127.587,696,o),
(76.413,639.065,o),
(76.413,344,cs),
(76.413,48.935,o),
(125.13,-8,o),
(368.196,-8,cs)
);
}
);
width = 675.93478;
},
{
anchors = (
{
name = bottom;
pos = (358.196,0);
},
{
name = top;
pos = (358.196,688);
}
);
layerId = m011;
shapes = (
{
closed = 1;
nodes = (
(430.37,-8,o),
(521.174,0.087,o),
(587.891,11.717,c),
(587.891,369.652,l),
(349.196,369.652,l),
(349.196,297.065,l),
(504.609,297.065,l),
(504.609,72.783,l),
(472.109,68.413,o),
(411.391,64.587,o),
(369.913,64.587,cs),
(185.696,64.587,o),
(162.413,101.326,o),
(162.413,344,cs),
(162.413,618.239,o),
(202.543,621.783,o),
(410.152,621.783,cs),
(449.261,621.783,o),
(520.37,615.326,o),
(584.891,606.326,c),
(584.891,675.826,l),
(525.283,687.457,o),
(435.109,696,o),
(368.196,696,cs),
(127.587,696,o),
(76.413,639.065,o),
(76.413,344,cs),
(76.413,48.935,o),
(125.13,-8,o),
(368.196,-8,cs)
);
}
);
width = 675.93478;
},
{
anchors = (
{
name = bottom;
pos = (358.196,0);
},
{
name = top;
pos = (358.196,688);
}
);
layerId = m012;
shapes = (
{
closed = 1;
nodes = (
(430.37,-8,o),
(521.174,0.087,o),
(587.891,11.717,c),
(587.891,369.652,l),
(349.196,369.652,l),
(349.196,297.065,l),
(504.609,297.065,l),
(504.609,72.783,l),
(472.109,68.413,o),
(411.391,64.587,o),
(369.913,64.587,cs),
(185.696,64.587,o),
(162.413,101.326,o),
(162.413,344,cs),
(162.413,618.239,o),
(202.543,621.783,o),
(410.152,621.783,cs),
(449.261,621.783,o),
(520.37,615.326,o),
(584.891,606.326,c),
(584.891,675.826,l),
(525.283,687.457,o),
(435.109,696,o),
(368.196,696,cs),
(127.587,696,o),
(76.413,639.065,o),
(76.413,344,cs),
(76.413,48.935,o),
(125.13,-8,o),
(368.196,-8,cs)
);
}
);
width = 675.93478;
},
{
anchors = (
{
name = bottom;
pos = (358.196,0);
},
{
name = top;
pos = (358.196,688);
}
);
layerId = m013;
shapes = (
{
closed = 1;
nodes = (
(430.37,-8,o),
(521.174,0.087,o),
(587.891,11.717,c),
(587.891,369.652,l),
(349.196,369.652,l),
(349.196,297.065,l),
(504.609,297.065,l),
(504.609,72.783,l),
(472.109,68.413,o),
(411.391,64.587,o),
(369.913,64.587,cs),
(185.696,64.587,o),
(162.413,101.326,o),
(162.413,344,cs),
(162.413,618.239,o),
(202.543,621.783,o),
(410.152,621.783,cs),
(449.261,621.783,o),
(520.37,615.326,o),
(584.891,606.326,c),
(584.891,675.826,l),
(525.283,687.457,o),
(435.109,696,o),
(368.196,696,cs),
(127.587,696,o),
(76.413,639.065,o),
(76.413,344,cs),
(76.413,48.935,o),
(125.13,-8,o),
(368.196,-8,cs)
);
}
);
width = 675.93478;
},
{
anchors = (
{
name = bottom;
pos = (358.196,0);
},
{
name = top;
pos = (358.196,688);
}
);
layerId = m014;
shapes = (
{
closed = 1;
nodes = (
(430.37,-8,o),
(521.174,0.087,o),
(587.891,11.717,c),
(587.891,369.652,l),
(349.196,369.652,l),
(349.196,297.065,l),
(504.609,297.065,l),
(504.609,72.783,l),
(472.109,68.413,o),
(411.391,64.587,o),
(369.913,64.587,cs),
(185.696,64.587,o),
(162.413,101.326,o),
(162.413,344,cs),
(162.413,618.239,o),
(202.543,621.783,o),
(410.152,621.783,cs),
(449.261,621.783,o),
(520.37,615.326,o),
(584.891,606.326,c),
(584.891,675.826,l),
(525.283,687.457,o),
(435.109,696,o),
(368.196,696,cs),
(127.587,696,o),
(76.413,639.065,o),
(76.413,344,cs),
(76.413,48.935,o),
(125.13,-8,o),
(368.196,-8,cs)
);
}
);
width = 675.93478;
},
{
anchors = (
{
name = bottom;
pos = (358.196,0);
},
{
name = top;
pos = (358.196,688);
}
);
layerId = m015;
shapes = (
{
closed = 1;
nodes = (
(430.37,-8,o),
(521.174,0.087,o),
(587.891,11.717,c),
(587.891,369.652,l),
(349.196,369.652,l),
(349.196,297.065,l),
(504.609,297.065,l),
(504.609,72.783,l),
(472.109,68.413,o),
(411.391,64.587,o),
(369.913,64.587,cs),
(185.696,64.587,o),
(162.413,101.326,o),
(162.413,344,cs),
(162.413,618.239,o),
(202.543,621.783,o),
(410.152,621.783,cs),
(449.261,621.783,o),
(520.37,615.326,o),
(584.891,606.326,c),
(584.891,675.826,l),
(525.283,687.457,o),
(435.109,696,o),
(368.196,696,cs),
(127.587,696,o),
(76.413,639.065,o),
(76.413,344,cs),
(76.413,48.935,o),
(125.13,-8,o),
(368.196,-8,cs)
);
}
);
width = 675.93478;
},
{
anchors = (
{
name = bottom;
pos = (356,0);
},
{
name = top;
pos = (356,688);
}
);
layerId = "4F93A97B-747D-4721-B098-38A63C534D7A";
shapes = (
{
closed = 1;
nodes = (
(432,-8,o),
(539,1,o),
(614,13,c),
(614,414,l),
(344,414,l),
(344,263,l),
(410,263,l),
(410,156,l),
(395,156,o),
(374,155,o),
(367,155,cs),
(280,155,o),
(271,183,o),
(271,344,cs),
(271,525,o),
(276,529,o),
(432,529,cs),
(468,529,o),
(549,523,o),
(611,516,c),
(611,672,l),
(535,686,o),
(430,696,o),
(357,696,cs),
(98,696,o),
(42,620,o),
(42,344,cs),
(42,68,o),
(98,-8,o),
(357,-8,cs)
);
}
);
width = 662;
},
{
anchors = (
{
name = bottom;
pos = (358.196,0);
},
{
name = top;
pos = (358.196,688);
}
);
layerId = m016;
shapes = (
{
closed = 1;
nodes = (
(430.37,-8,o),
(521.174,0.087,o),
(587.891,11.717,c),
(587.891,369.652,l),
(349.196,369.652,l),
(349.196,297.065,l),
(504.609,297.065,l),
(504.609,72.783,l),
(472.109,68.413,o),
(411.391,64.587,o),
(369.913,64.587,cs),
(185.696,64.587,o),
(162.413,101.326,o),
(162.413,344,cs),
(162.413,618.239,o),
(202.543,621.783,o),
(410.152,621.783,cs),
(449.261,621.783,o),
(520.37,615.326,o),
(584.891,606.326,c),
(584.891,675.826,l),
(525.283,687.457,o),
(435.109,696,o),
(368.196,696,cs),
(127.587,696,o),
(76.413,639.065,o),
(76.413,344,cs),
(76.413,48.935,o),
(125.13,-8,o),
(368.196,-8,cs)
);
}
);
width = 675.93478;
}
);
unicode = 71;
},
{
color = 4;
glyphname = H;
kernLeft = H;
kernRight = H;
layers = (
{
anchors = (
{
name = bottom;
pos = (357,0);
},
{
name = center;
pos = (357,550);
},
{
name = top;
pos = (357,688);
},
{
name = topleft;
pos = (20,688);
}
);
layerId = m009;
shapes = (
{
closed = 1;
nodes = (
(182,0,l),
(182,347,l),
(145,310,l),
(569,310,l),
(532,347,l),
(532,0,l),
(614,0,l),
(614,688,l),
(532,688,l),
(532,347,l),
(569,384,l),
(145,384,l),
(182,347,l),
(182,688,l),
(100,688,l),
(100,0,l)
);
}
);
width = 714;
},
{
anchors = (
{
name = bottom;
pos = (167,0);
},
{
name = center;
pos = (167,550);
},
{
name = top;
pos = (167,688);
},
{
name = topleft;
pos = (-40,688);
}
);
layerId = m010;
shapes = (
{
closed = 1;
nodes = (
(122,0,l),
(122,347,l),
(85,310,l),
(249,310,l),
(212,347,l),
(212,0,l),
(294,0,l),
(294,688,l),
(212,688,l),
(212,347,l),
(249,384,l),
(85,384,l),
(122,347,l),
(122,688,l),
(40,688,l),
(40,0,l)
);
}
);
width = 334;
},
{
anchors = (
{
name = bottom;
pos = (437,0);
},
{
name = center;
pos = (437,550);
},
{
name = top;
pos = (437,688);
},
{
name = topleft;
pos = (-3,688);
}
);
layerId = m011;
shapes = (
{
closed = 1;
nodes = (
(182,0,l),
(182,347,l),
(145,310,l),
(729,310,l),
(692,347,l),
(692,0,l),
(774,0,l),
(774,688,l),
(692,688,l),
(692,347,l),
(729,384,l),
(145,384,l),
(182,347,l),
(182,688,l),
(100,688,l),
(100,0,l)
);
}
);
width = 874;
},
{
anchors = (
{
name = bottom;
pos = (285,0);
},
{
name = center;
pos = (285,550);
},
{
name = top;
pos = (285,688);
},
{
name = topleft;
pos = (98,688);
}
);
layerId = m012;
shapes = (
{
closed = 1;
nodes = (
(110,0,l),
(110,347,l),
(104,310,l),
(466,310,l),
(460,347,l),
(460,0,l),
(470,0,l),
(470,688,l),
(460,688,l),
(460,347,l),
(466,384,l),
(104,384,l),
(110,347,l),
(110,688,l),
(100,688,l),
(100,0,l)
);
}
);
width = 570;
},
{
anchors = (
{
name = bottom;
pos = (505,0);
},
{
name = center;
pos = (505,550);
},
{
name = top;
pos = (505,688);
},
{
name = topleft;
pos = (78,688);
}
);
layerId = m013;
shapes = (
{
closed = 1;
nodes = (
(330,0,l),
(330,347,l),
(220,310,l),
(790,310,l),
(680,347,l),
(680,0,l),
(910,0,l),
(910,688,l),
(680,688,l),
(680,347,l),
(790,384,l),
(220,384,l),
(330,347,l),
(330,688,l),
(100,688,l),
(100,0,l)
);
}
);
width = 1010;
},
{
anchors = (
{
name = bottom;
pos = (357,0);
},
{
name = center;
pos = (357,550);
},
{
name = top;
pos = (357,688);
},
{
name = topleft;
pos = (20,688);
}
);
layerId = m014;
shapes = (
{
closed = 1;
nodes = (
(182,0,l),
(182,347,l),
(145,342,l),
(569,342,l),
(532,347,l),
(532,0,l),
(614,0,l),
(614,688,l),
(532,688,l),
(532,347,l),
(569,352,l),
(145,352,l),
(182,347,l),
(182,688,l),
(100,688,l),
(100,0,l)
);
}
);
width = 714;
},
{
anchors = (
{
name = bottom;
pos = (357,0);
},
{
name = center;
pos = (357,550);
},
{
name = top;
pos = (357,688);
},
{
name = topleft;
pos = (20,688);
}
);
layerId = m015;
shapes = (
{
closed = 1;
nodes = (
(182,0,l),
(182,347,l),
(145,247,l),
(569,247,l),
(532,347,l),
(532,0,l),
(614,0,l),
(614,688,l),
(532,688,l),
(532,347,l),
(569,447,l),
(145,447,l),
(182,347,l),
(182,688,l),
(100,688,l),
(100,0,l)
);
}
);
width = 714;
},
{
anchors = (
{
name = bottom;
pos = (360,0);
},
{
name = center;
pos = (360,550);
},
{
name = top;
pos = (360,688);
},
{
name = topleft;
pos = (20,688);
}
);
layerId = "4F93A97B-747D-4721-B098-38A63C534D7A";
shapes = (
{
closed = 1;
nodes = (
(269,0,l),
(269,355,l),
(175,260,l),
(546,260,l),
(451,355,l),
(451,0,l),
(663,0,l),
(663,688,l),
(451,688,l),
(451,336,l),
(546,430,l),
(175,430,l),
(269,336,l),
(269,688,l),
(57,688,l),
(57,0,l)
);
}
);
width = 720;
},
{
anchors = (
{
name = bottom;
pos = (390,0);
},
{
name = center;
pos = (390,550);
},
{
name = top;
pos = (390,688);
},
{
name = topleft;
pos = (28,688);
}
);
layerId = m016;
shapes = (
{
closed = 1;
nodes = (
(205,0,l),
(205,348,l),
(162,305,l),
(617,305,l),
(574,348,l),
(574,0,l),
(670,0,l),
(670,688,l),
(574,688,l),
(574,346,l),
(617,389,l),
(162,389,l),
(205,346,l),
(205,688,l),
(109,688,l),
(109,0,l)
);
}
);
width = 779;
}
);
metricRight = "=|";
unicode = 72;
},
{
color = 4;
glyphname = I;
kernLeft = H;
kernRight = H;
layers = (
{
anchors = (
{
name = bottom;
pos = (141,0);
},
{
name = ogonek;
pos = (254,10);
},
{
name = top;
pos = (141,688);
},
{
name = topleft;
pos = (20,688);
}
);
layerId = m009;
shapes = (
{
closed = 1;
nodes = (
(182,0,l),
(182,688,l),
(100,688,l),
(100,0,l)
);
}
);
width = 282;
},
{
anchors = (
{
name = bottom;
pos = (81,0);
},
{
name = ogonek;
pos = (146,10);
},
{
name = top;
pos = (81,688);
},
{
name = topleft;
pos = (20,688);
}
);
layerId = m010;
shapes = (
{
closed = 1;
nodes = (
(122,0,l),
(122,688,l),
(40,688,l),
(40,0,l)
);
}
);
width = 162;
},
{
anchors = (
{
name = bottom;
pos = (141,0);
},
{
name = ogonek;
pos = (254,10);
},
{
name = top;
pos = (141,688);
},
{
name = topleft;
pos = (20,688);
}
);
layerId = m011;
shapes = (
{
closed = 1;
nodes = (
(182,0,l),
(182,688,l),
(100,688,l),
(100,0,l)
);
}
);
width = 282;
},
{
anchors = (
{
name = bottom;
pos = (105,0);
},
{
name = ogonek;
pos = (218,10);
},
{
name = top;
pos = (105,688);
},
{
name = topleft;
pos = (-16,688);
}
);
layerId = m012;
shapes = (
{
closed = 1;
nodes = (
(110,0,l),
(110,688,l),
(100,688,l),
(100,0,l)
);
}
);
width = 210;
},
{
anchors = (
{
name = bottom;
pos = (215,0);
},
{
name = ogonek;
pos = (328,10);
},
{
name = top;
pos = (215,688);
},
{
name = topleft;
pos = (94,688);
}
);
layerId = m013;
shapes = (
{
closed = 1;
nodes = (
(330,0,l),
(330,688,l),
(100,688,l),
(100,0,l)
);
}
);
width = 430;
},
{
anchors = (
{
name = bottom;
pos = (141,0);
},
{
name = ogonek;
pos = (254,10);
},
{
name = top;
pos = (141,688);
},
{
name = topleft;
pos = (20,688);
}
);
layerId = m014;
shapes = (
{
closed = 1;
nodes = (
(182,0,l),
(182,688,l),
(100,688,l),
(100,0,l)
);
}
);
width = 282;
},
{
anchors = (
{
name = bottom;
pos = (141,0);
},
{
name = ogonek;
pos = (254,10);
},
{
name = top;
pos = (141,688);
},
{
name = topleft;
pos = (20,688);
}
);
layerId = m015;
shapes = (
{
closed = 1;
nodes = (
(182,0,l),
(182,688,l),
(100,688,l),
(100,0,l)
);
}
);
width = 282;
},
{
anchors = (
{
name = bottom;
pos = (163,0);
},
{
name = ogonek;
pos = (293,10);
},
{
name = top;
pos = (163,688);
},
{
name = topleft;
pos = (20,688);
}
);
layerId = "4F93A97B-747D-4721-B098-38A63C534D7A";
shapes = (
{
closed = 1;
nodes = (
(269,0,l),
(269,688,l),
(57,688,l),
(57,0,l)
);
}
);
width = 326;
},
{
anchors = (
{
name = bottom;
pos = (157,0);
},
{
name = ogonek;
pos = (270,10);
},
{
name = top;
pos = (157,688);
},
{
name = topleft;
pos = (36,688);
}
);
layerId = m016;
shapes = (
{
closed = 1;
nodes = (
(205,0,l),
(205,688,l),
(109,688,l),
(109,0,l)
);
}
);
width = 314;
}
);
metricLeft = H;
metricRight = "=|";
unicode = 73;
},
{
glyphname = J;
kernLeft = J;
kernRight = U;
layers = (
{
anchors = (
{
name = bottom;
pos = (177.761,0);
},
{
name = top;
pos = (219.478,688);
}
);
layerId = m009;
shapes = (
{
closed = 1;
nodes = (
(253.304,1.913,o),
(262.478,10.826,o),
(262.478,280.304,cs),
(262.478,688,l),
(176.478,688,l),
(176.478,252.522,ls),
(176.478,80.587,o),
(175.109,73.87,o),
(33.478,70.957,c),
(33.478,0,l)
);
}
);
width = 354.97826;
},
{
anchors = (
{
name = bottom;
pos = (177.761,0);
},
{
name = top;
pos = (219.478,688);
}
);
layerId = m010;
shapes = (
{
closed = 1;
nodes = (
(253.304,1.913,o),
(262.478,10.826,o),
(262.478,280.304,cs),
(262.478,688,l),
(176.478,688,l),
(176.478,252.522,ls),
(176.478,80.587,o),
(175.109,73.87,o),
(33.478,70.957,c),
(33.478,0,l)
);
}
);
width = 354.97826;
},
{
anchors = (
{
name = bottom;
pos = (177.761,0);
},
{
name = top;
pos = (219.478,688);
}
);
layerId = m011;
shapes = (
{
closed = 1;
nodes = (
(253.304,1.913,o),
(262.478,10.826,o),
(262.478,280.304,cs),
(262.478,688,l),
(176.478,688,l),
(176.478,252.522,ls),
(176.478,80.587,o),
(175.109,73.87,o),
(33.478,70.957,c),
(33.478,0,l)
);
}
);
width = 354.97826;
},
{
anchors = (
{
name = bottom;
pos = (177.761,0);
},
{
name = top;
pos = (219.478,688);
}
);
layerId = m012;
shapes = (
{
closed = 1;
nodes = (
(253.304,1.913,o),
(262.478,10.826,o),
(262.478,280.304,cs),
(262.478,688,l),
(176.478,688,l),
(176.478,252.522,ls),
(176.478,80.587,o),
(175.109,73.87,o),
(33.478,70.957,c),
(33.478,0,l)
);
}
);
width = 354.97826;
},
{
anchors = (
{
name = bottom;
pos = (177.761,0);
},
{
name = top;
pos = (219.478,688);
}
);
layerId = m013;
shapes = (
{
closed = 1;
nodes = (
(253.304,1.913,o),
(262.478,10.826,o),
(262.478,280.304,cs),
(262.478,688,l),
(176.478,688,l),
(176.478,252.522,ls),
(176.478,80.587,o),
(175.109,73.87,o),
(33.478,70.957,c),
(33.478,0,l)
);
}
);
width = 354.97826;
},
{
anchors = (
{
name = bottom;
pos = (177.761,0);
},
{
name = top;
pos = (219.478,688);
}
);
layerId = m014;
shapes = (
{
closed = 1;
nodes = (
(253.304,1.913,o),
(262.478,10.826,o),
(262.478,280.304,cs),
(262.478,688,l),
(176.478,688,l),
(176.478,252.522,ls),
(176.478,80.587,o),
(175.109,73.87,o),
(33.478,70.957,c),
(33.478,0,l)
);
}
);
width = 354.97826;
},
{
anchors = (
{
name = bottom;
pos = (177.761,0);
},
{
name = top;
pos = (219.478,688);
}
);
layerId = m015;
shapes = (
{
closed = 1;
nodes = (
(253.304,1.913,o),
(262.478,10.826,o),
(262.478,280.304,cs),
(262.478,688,l),
(176.478,688,l),
(176.478,252.522,ls),
(176.478,80.587,o),
(175.109,73.87,o),
(33.478,70.957,c),
(33.478,0,l)
);
}
);
width = 354.97826;
},
{
anchors = (
{
name = bottom;
pos = (219,0);
},
{
name = top;
pos = (270,688);
}
);
layerId = "4F93A97B-747D-4721-B098-38A63C534D7A";
shapes = (
{
closed = 1;
nodes = (
(373,0,o),
(387,13,o),
(387,328,cs),
(387,688,l),
(153,688,l),
(153,271,ls),
(153,163,o),
(148,158,o),
(18,158,c),
(18,0,l)
);
}
);
width = 438;
},
{
anchors = (
{
name = bottom;
pos = (177.761,0);
},
{
name = top;
pos = (219.478,688);
}
);
layerId = m016;
shapes = (
{
closed = 1;
nodes = (
(253.304,1.913,o),
(262.478,10.826,o),
(262.478,280.304,cs),
(262.478,688,l),
(176.478,688,l),
(176.478,252.522,ls),
(176.478,80.587,o),
(175.109,73.87,o),
(33.478,70.957,c),
(33.478,0,l)
);
}
);
width = 354.97826;
}
);
unicode = 74;
},
{
glyphname = K;
kernLeft = H;
kernRight = X;
layers = (
{
anchors = (
{
name = bottom;
pos = (335.717,0);
},
{
name = top;
pos = (335.717,688);
}
);
layerId = m009;
shapes = (
{
closed = 1;
nodes = (
(185.783,0,l),
(185.783,312.435,l),
(309.326,312.435,l),
(542.87,0,l),
(643.478,0,l),
(379,353.891,l),
(640.478,688,l),
(544.674,688,l),
(309.326,386.652,l),
(185.783,386.652,l),
(185.783,688,l),
(99.783,688,l),
(99.783,0,l)
);
}
);
width = 670.43478;
},
{
anchors = (
{
name = bottom;
pos = (335.717,0);
},
{
name = top;
pos = (335.717,688);
}
);
layerId = m010;
shapes = (
{
closed = 1;
nodes = (
(185.783,0,l),
(185.783,312.435,l),
(309.326,312.435,l),
(542.87,0,l),
(643.478,0,l),
(379,353.891,l),
(640.478,688,l),
(544.674,688,l),
(309.326,386.652,l),
(185.783,386.652,l),
(185.783,688,l),
(99.783,688,l),
(99.783,0,l)
);
}
);
width = 670.43478;
},
{
anchors = (
{
name = bottom;
pos = (335.717,0);
},
{
name = top;
pos = (335.717,688);
}
);
layerId = m011;
shapes = (
{
closed = 1;
nodes = (
(185.783,0,l),
(185.783,312.435,l),
(309.326,312.435,l),
(542.87,0,l),
(643.478,0,l),
(379,353.891,l),
(640.478,688,l),
(544.674,688,l),
(309.326,386.652,l),
(185.783,386.652,l),
(185.783,688,l),
(99.783,688,l),
(99.783,0,l)
);
}
);
width = 670.43478;
},
{
anchors = (
{
name = bottom;
pos = (335.717,0);
},
{
name = top;
pos = (335.717,688);
}
);
layerId = m012;
shapes = (
{
closed = 1;
nodes = (
(185.783,0,l),
(185.783,312.435,l),
(309.326,312.435,l),
(542.87,0,l),
(643.478,0,l),
(379,353.891,l),
(640.478,688,l),
(544.674,688,l),
(309.326,386.652,l),
(185.783,386.652,l),
(185.783,688,l),
(99.783,688,l),
(99.783,0,l)
);
}
);
width = 670.43478;
},
{
anchors = (
{
name = bottom;
pos = (335.717,0);
},
{
name = top;
pos = (335.717,688);
}
);
layerId = m013;
shapes = (
{
closed = 1;
nodes = (
(185.783,0,l),
(185.783,312.435,l),
(309.326,312.435,l),
(542.87,0,l),
(643.478,0,l),
(379,353.891,l),
(640.478,688,l),
(544.674,688,l),
(309.326,386.652,l),
(185.783,386.652,l),
(185.783,688,l),
(99.783,688,l),
(99.783,0,l)
);
}
);
width = 670.43478;
},
{
anchors = (
{
name = bottom;
pos = (335.717,0);
},
{
name = top;
pos = (335.717,688);
}
);
layerId = m014;
shapes = (
{
closed = 1;
nodes = (
(185.783,0,l),
(185.783,312.435,l),
(309.326,312.435,l),
(542.87,0,l),
(643.478,0,l),
(379,353.891,l),
(640.478,688,l),
(544.674,688,l),
(309.326,386.652,l),
(185.783,386.652,l),
(185.783,688,l),
(99.783,688,l),
(99.783,0,l)
);
}
);
width = 670.43478;
},
{
anchors = (
{
name = bottom;
pos = (335.717,0);
},
{
name = top;
pos = (335.717,688);
}
);
layerId = m015;
shapes = (
{
closed = 1;
nodes = (
(185.783,0,l),
(185.783,312.435,l),
(309.326,312.435,l),
(542.87,0,l),
(643.478,0,l),
(379,353.891,l),
(640.478,688,l),
(544.674,688,l),
(309.326,386.652,l),
(185.783,386.652,l),
(185.783,688,l),
(99.783,688,l),
(99.783,0,l)
);
}
);
width = 670.43478;
},
{
anchors = (
{
name = bottom;
pos = (348,0);
},
{
name = top;
pos = (348,688);
}
);
layerId = "4F93A97B-747D-4721-B098-38A63C534D7A";
shapes = (
{
closed = 1;
nodes = (
(285,0,l),
(285,268,l),
(295,268,l),
(441,0,l),
(696,0,l),
(486,365,l),
(693,688,l),
(444,688,l),
(295,431,l),
(285,431,l),
(285,688,l),
(51,688,l),
(51,0,l)
);
}
);
width = 696;
},
{
anchors = (
{
name = bottom;
pos = (335.717,0);
},
{
name = top;
pos = (335.717,688);
}
);
layerId = m016;
shapes = (
{
closed = 1;
nodes = (
(185.783,0,l),
(185.783,312.435,l),
(309.326,312.435,l),
(542.87,0,l),
(643.478,0,l),
(379,353.891,l),
(640.478,688,l),
(544.674,688,l),
(309.326,386.652,l),
(185.783,386.652,l),
(185.783,688,l),
(99.783,688,l),
(99.783,0,l)
);
}
);
width = 670.43478;
}
);
unicode = 75;
},
{
glyphname = L;
kernLeft = H;
kernRight = L;
layers = (
{
anchors = (
{
name = bottom;
pos = (316,0);
},
{
name = center;
pos = (142.783,344);
},
{
name = top;
pos = (142.783,688);
},
{
name = topright;
pos = (295.435,510);
}
);
layerId = m009;
shapes = (
{
closed = 1;
nodes = (
(506.978,0,l),
(506.978,76.391,l),
(185.783,76.391,l),
(185.783,688,l),
(99.783,688,l),
(99.783,0,l)
);
}
);
width = 537.63043;
},
{
anchors = (
{
name = bottom;
pos = (316,0);
},
{
name = center;
pos = (142.783,344);
},
{
name = top;
pos = (142.783,688);
},
{
name = topright;
pos = (295.435,510);
}
);
layerId = m010;
shapes = (
{
closed = 1;
nodes = (
(506.978,0,l),
(506.978,76.391,l),
(185.783,76.391,l),
(185.783,688,l),
(99.783,688,l),
(99.783,0,l)
);
}
);
width = 537.63043;
},
{
anchors = (
{
name = bottom;
pos = (316,0);
},
{
name = center;
pos = (142.783,344);
},
{
name = top;
pos = (142.783,688);
},
{
name = topright;
pos = (295.435,510);
}
);
layerId = m011;
shapes = (
{
closed = 1;
nodes = (
(506.978,0,l),
(506.978,76.391,l),
(185.783,76.391,l),
(185.783,688,l),
(99.783,688,l),
(99.783,0,l)
);
}
);
width = 537.63043;
},
{
anchors = (
{
name = bottom;
pos = (316,0);
},
{
name = center;
pos = (142.783,344);
},
{
name = top;
pos = (142.783,688);
},
{
name = topright;
pos = (295.435,510);
}
);
layerId = m012;
shapes = (
{
closed = 1;
nodes = (
(506.978,0,l),
(506.978,76.391,l),
(185.783,76.391,l),
(185.783,688,l),
(99.783,688,l),
(99.783,0,l)
);
}
);
width = 537.63043;
},
{
anchors = (
{
name = bottom;
pos = (316,0);
},
{
name = center;
pos = (142.783,344);
},
{
name = top;
pos = (142.783,688);
},
{
name = topright;
pos = (295.435,510);
}
);
layerId = m013;
shapes = (
{
closed = 1;
nodes = (
(506.978,0,l),
(506.978,76.391,l),
(185.783,76.391,l),
(185.783,688,l),
(99.783,688,l),
(99.783,0,l)
);
}
);
width = 537.63043;
},
{
anchors = (
{
name = bottom;
pos = (316,0);
},
{
name = center;
pos = (142.783,344);
},
{
name = top;
pos = (142.783,688);
},
{
name = topright;
pos = (295.435,510);
}
);
layerId = m014;
shapes = (
{
closed = 1;
nodes = (
(506.978,0,l),
(506.978,76.391,l),
(185.783,76.391,l),
(185.783,688,l),
(99.783,688,l),
(99.783,0,l)
);
}
);
width = 537.63043;
},
{
anchors = (
{
name = bottom;
pos = (316,0);
},
{
name = center;
pos = (142.783,344);
},
{
name = top;
pos = (142.783,688);
},
{
name = topright;
pos = (295.435,510);
}
);
layerId = m015;
shapes = (
{
closed = 1;
nodes = (
(506.978,0,l),
(506.978,76.391,l),
(185.783,76.391,l),
(185.783,688,l),
(99.783,688,l),
(99.783,0,l)
);
}
);
width = 537.63043;
},
{
anchors = (
{
name = bottom;
pos = (291,0);
},
{
name = center;
pos = (168,344);
},
{
name = top;
pos = (168,688);
},
{
name = topright;
pos = (330,510);
}
);
layerId = "4F93A97B-747D-4721-B098-38A63C534D7A";
shapes = (
{
closed = 1;
nodes = (
(515,0,l),
(515,176,l),
(285,176,l),
(285,688,l),
(51,688,l),
(51,0,l)
);
}
);
width = 533;
},
{
anchors = (
{
name = bottom;
pos = (316,0);
},
{
name = center;
pos = (142.783,344);
},
{
name = top;
pos = (142.783,688);
},
{
name = topright;
pos = (295.435,510);
}
);
layerId = m016;
shapes = (
{
closed = 1;
nodes = (
(506.978,0,l),
(506.978,76.391,l),
(185.783,76.391,l),
(185.783,688,l),
(99.783,688,l),
(99.783,0,l)
);
}
);
width = 537.63043;
}
);
unicode = 76;
},
{
glyphname = M;
kernLeft = H;
kernRight = H;
layers = (
{
anchors = (
{
name = bottom;
pos = (453.109,0);
},
{
name = top;
pos = (453.109,688);
}
);
layerId = m009;
shapes = (
{
closed = 1;
nodes = (
(180.978,0,l),
(180.978,550.065,l),
(184.978,550.065,l),
(419.804,0,l),
(482.783,0,l),
(718.152,550.065,l),
(722.152,550.065,l),
(722.152,0,l),
(805.978,0,l),
(805.978,688,l),
(690.326,688,l),
(455.652,140.5,l),
(450.652,140.5,l),
(216.435,688,l),
(99.783,688,l),
(99.783,0,l)
);
}
);
width = 905.76087;
},
{
anchors = (
{
name = bottom;
pos = (453.109,0);
},
{
name = top;
pos = (453.109,688);
}
);
layerId = m010;
shapes = (
{
closed = 1;
nodes = (
(180.978,0,l),
(180.978,550.065,l),
(184.978,550.065,l),
(419.804,0,l),
(482.783,0,l),
(718.152,550.065,l),
(722.152,550.065,l),
(722.152,0,l),
(805.978,0,l),
(805.978,688,l),
(690.326,688,l),
(455.652,140.5,l),
(450.652,140.5,l),
(216.435,688,l),
(99.783,688,l),
(99.783,0,l)
);
}
);
width = 905.76087;
},
{
anchors = (
{
name = bottom;
pos = (453.109,0);
},
{
name = top;
pos = (453.109,688);
}
);
layerId = m011;
shapes = (
{
closed = 1;
nodes = (
(180.978,0,l),
(180.978,550.065,l),
(184.978,550.065,l),
(419.804,0,l),
(482.783,0,l),
(718.152,550.065,l),
(722.152,550.065,l),
(722.152,0,l),
(805.978,0,l),
(805.978,688,l),
(690.326,688,l),
(455.652,140.5,l),
(450.652,140.5,l),
(216.435,688,l),
(99.783,688,l),
(99.783,0,l)
);
}
);
width = 905.76087;
},
{
anchors = (
{
name = bottom;
pos = (453.109,0);
},
{
name = top;
pos = (453.109,688);
}
);
layerId = m012;
shapes = (
{
closed = 1;
nodes = (
(180.978,0,l),
(180.978,550.065,l),
(184.978,550.065,l),
(419.804,0,l),
(482.783,0,l),
(718.152,550.065,l),
(722.152,550.065,l),
(722.152,0,l),
(805.978,0,l),
(805.978,688,l),
(690.326,688,l),
(455.652,140.5,l),
(450.652,140.5,l),
(216.435,688,l),
(99.783,688,l),
(99.783,0,l)
);
}
);
width = 905.76087;
},
{
anchors = (
{
name = bottom;
pos = (453.109,0);
},
{
name = top;
pos = (453.109,688);
}
);
layerId = m013;
shapes = (
{
closed = 1;
nodes = (
(180.978,0,l),
(180.978,550.065,l),
(184.978,550.065,l),
(419.804,0,l),
(482.783,0,l),
(718.152,550.065,l),
(722.152,550.065,l),
(722.152,0,l),
(805.978,0,l),
(805.978,688,l),
(690.326,688,l),
(455.652,140.5,l),
(450.652,140.5,l),
(216.435,688,l),
(99.783,688,l),
(99.783,0,l)
);
}
);
width = 905.76087;
},
{
anchors = (
{
name = bottom;
pos = (453.109,0);
},
{
name = top;
pos = (453.109,688);
}
);
layerId = m014;
shapes = (
{
closed = 1;
nodes = (
(180.978,0,l),
(180.978,550.065,l),
(184.978,550.065,l),
(419.804,0,l),
(482.783,0,l),
(718.152,550.065,l),
(722.152,550.065,l),
(722.152,0,l),
(805.978,0,l),
(805.978,688,l),
(690.326,688,l),
(455.652,140.5,l),
(450.652,140.5,l),
(216.435,688,l),
(99.783,688,l),
(99.783,0,l)
);
}
);
width = 905.76087;
},
{
anchors = (
{
name = bottom;
pos = (453.109,0);
},
{
name = top;
pos = (453.109,688);
}
);
layerId = m015;
shapes = (
{
closed = 1;
nodes = (
(180.978,0,l),
(180.978,550.065,l),
(184.978,550.065,l),
(419.804,0,l),
(482.783,0,l),
(718.152,550.065,l),
(722.152,550.065,l),
(722.152,0,l),
(805.978,0,l),
(805.978,688,l),
(690.326,688,l),
(455.652,140.5,l),
(450.652,140.5,l),
(216.435,688,l),
(99.783,688,l),
(99.783,0,l)
);
}
);
width = 905.76087;
},
{
anchors = (
{
name = bottom;
pos = (452,0);
},
{
name = top;
pos = (452,688);
}
);
layerId = "4F93A97B-747D-4721-B098-38A63C534D7A";
shapes = (
{
closed = 1;
nodes = (
(268,0,l),
(268,387,l),
(279,387,l),
(371,0,l),
(526,0,l),
(618,387,l),
(629,387,l),
(629,0,l),
(852,0,l),
(852,688,l),
(533,688,l),
(457,365,l),
(448,365,l),
(371,688,l),
(51,688,l),
(51,0,l)
);
}
);
width = 903;
},
{
anchors = (
{
name = bottom;
pos = (453.109,0);
},
{
name = top;
pos = (453.109,688);
}
);
layerId = m016;
shapes = (
{
closed = 1;
nodes = (
(180.978,0,l),
(180.978,550.065,l),
(184.978,550.065,l),
(419.804,0,l),
(482.783,0,l),
(718.152,550.065,l),
(722.152,550.065,l),
(722.152,0,l),
(805.978,0,l),
(805.978,688,l),
(690.326,688,l),
(455.652,140.5,l),
(450.652,140.5,l),
(216.435,688,l),
(99.783,688,l),
(99.783,0,l)
);
}
);
width = 905.76087;
}
);
unicode = 77;
},
{
color = 4;
glyphname = N;
kernLeft = H;
kernRight = H;
layers = (
{
anchors = (
{
name = bottom;
pos = (366,0);
},
{
name = top;
pos = (366,688);
}
);
layerId = m009;
shapes = (
{
closed = 1;
nodes = (
(182,0,l),
(182,600,l),
(145,600,l),
(532,0,l),
(614,0,l),
(614,688,l),
(532,688,l),
(532,88,l),
(569,88,l),
(182,688,l),
(100,688,l),
(100,0,l)
);
}
);
width = 714;
},
{
anchors = (
{
name = bottom;
pos = (175,0);
},
{
name = top;
pos = (175,688);
}
);
layerId = m010;
shapes = (
{
closed = 1;
nodes = (
(122,0,l),
(122,599,l),
(70,635,l),
(223,0,l),
(320,0,l),
(320,688,l),
(238,688,l),
(238,89,l),
(290,53,l),
(138,688,l),
(40,688,l),
(40,0,l)
);
}
);
width = 360;
},
{
anchors = (
{
name = bottom;
pos = (446,0);
},
{
name = top;
pos = (446,688);
}
);
background = {
shapes = (
{
closed = 1;
nodes = (
(207,0,l),
(207,600,l),
(159,600,l),
(691,0,l),
(792,0,l),
(792,688,l),
(685,688,l),
(685,88,l),
(733,88,l),
(201,688,l),
(100,688,l),
(100,0,l)
);
}
);
};
layerId = m011;
shapes = (
{
closed = 1;
nodes = (
(182,0,l),
(182,600,l),
(144,610,l),
(660,0,l),
(738,0,l),
(738,688,l),
(656,688,l),
(656,88,l),
(694,78,l),
(178,688,l),
(100,688,l),
(100,0,l)
);
}
);
width = 838;
},
{
anchors = (
{
name = bottom;
pos = (586,0);
},
{
name = top;
pos = (586,688);
}
);
layerId = m015;
shapes = (
{
closed = 1;
nodes = (
(330,0,l),
(330,643,l),
(295,643,l),
(648,0,l),
(910,0,l),
(910,688,l),
(680,688,l),
(680,45,l),
(715,45,l),
(362,688,l),
(100,688,l),
(100,0,l)
);
}
);
width = 1010;
},
{
anchors = (
{
name = bottom;
pos = (366,0);
},
{
name = top;
pos = (366,688);
}
);
layerId = "4F93A97B-747D-4721-B098-38A63C534D7A";
shapes = (
{
closed = 1;
nodes = (
(269,0,l),
(269,313,l),
(250,313,l),
(485,0,l),
(674,0,l),
(674,688,l),
(462,688,l),
(462,375,l),
(480,375,l),
(227,688,l),
(57,688,l),
(57,0,l)
);
}
);
width = 731;
},
{
anchors = (
{
name = bottom;
pos = (398,0);
},
{
name = top;
pos = (398,688);
}
);
layerId = m016;
shapes = (
{
closed = 1;
nodes = (
(205,0,l),
(205,571,l),
(170,571,l),
(581,0,l),
(669,0,l),
(669,688,l),
(573,688,l),
(573,117,l),
(609,117,l),
(196,688,l),
(109,688,l),
(109,0,l)
);
}
);
width = 778;
},
{
anchors = (
{
name = bottom;
pos = (582,0);
},
{
name = top;
pos = (582,688);
}
);
layerId = m014;
name = "YOPQ-min - 32";
shapes = (
{
closed = 1;
nodes = (
(110,0,l),
(110,660,l),
(105,624,l),
(408,0,l),
(470,0,l),
(470,688,l),
(460,688,l),
(460,28,l),
(465,64,l),
(162,688,l),
(100,688,l),
(100,0,l)
);
}
);
width = 570;
},
{
anchors = (
{
name = bottom;
pos = (294,0);
},
{
name = top;
pos = (294,688);
}
);
layerId = m012;
name = "XOPQ-min - 32";
shapes = (
{
closed = 1;
nodes = (
(182,0,l),
(182,620,l),
(179,609,l),
(577,0,l),
(614,0,l),
(614,688,l),
(532,688,l),
(532,68,l),
(535,79,l),
(137,688,l),
(100,688,l),
(100,0,l)
);
}
);
width = 714;
},
{
anchors = (
{
name = bottom;
pos = (514,0);
},
{
name = top;
pos = (514,688);
}
);
layerId = m013;
name = "XOPQ-max - 212";
shapes = (
{
closed = 1;
nodes = (
(182,0,l),
(182,600,l),
(145,417,l),
(532,0,l),
(614,0,l),
(614,688,l),
(532,688,l),
(532,88,l),
(569,271,l),
(182,688,l),
(100,688,l),
(100,0,l)
);
}
);
width = 714;
},
{
anchors = (
{
name = bottom;
pos = (294,0);
},
{
name = top;
pos = (294,688);
}
);
associatedMasterId = m012;
layerId = "0DE0E026-9D6A-4C60-8A4A-E9D40A63B1C4";
name = "24 Mar 26 17:31";
shapes = (
{
closed = 1;
nodes = (
(182,0,l),
(182,620,l),
(179,609,l),
(595,0,l),
(632,0,l),
(632,688,l),
(550,688,l),
(550,68,l),
(553,79,l),
(137,688,l),
(100,688,l),
(100,0,l)
);
}
);
width = 732;
},
{
anchors = (
{
name = bottom;
pos = (514,0);
},
{
name = top;
pos = (514,688);
}
);
associatedMasterId = m013;
layerId = "8F73DF40-ED9E-42D8-9D13-79C2098EB4B4";
name = "24 Mar 26 17:31";
shapes = (
{
closed = 1;
nodes = (
(182,0,l),
(182,600,l),
(145,434,l),
(550,0,l),
(632,0,l),
(632,688,l),
(550,688,l),
(550,88,l),
(587,254,l),
(182,688,l),
(100,688,l),
(100,0,l)
);
}
);
width = 732;
},
{
anchors = (
{
name = bottom;
pos = (586,0);
},
{
name = top;
pos = (586,688);
}
);
associatedMasterId = m015;
layerId = "B09D4DD6-A0D9-4DA2-944C-CB4D2355EA7E";
name = "24 Mar 26 17:31";
shapes = (
{
closed = 1;
nodes = (
(330,0,l),
(330,643,l),
(325,643,l),
(636,0,l),
(928,0,l),
(928,688,l),
(698,688,l),
(698,45,l),
(703,45,l),
(392,688,l),
(100,688,l),
(100,0,l)
);
}
);
width = 1028;
},
{
anchors = (
{
name = bottom;
pos = (366,0);
},
{
name = top;
pos = (366,688);
}
);
associatedMasterId = m014;
layerId = "127C1106-DDF0-4182-A2C0-BF12465128A0";
name = "24 Mar 26 17:44";
shapes = (
{
closed = 1;
nodes = (
(110,0,l),
(110,660,l),
(105,624,l),
(426,0,l),
(488,0,l),
(488,688,l),
(478,688,l),
(478,28,l),
(483,64,l),
(162,688,l),
(100,688,l),
(100,0,l)
);
}
);
width = 588;
}
);
metricLeft = H;
metricRight = "=|";
unicode = 78;
},
{
color = 4;
glyphname = O;
kernLeft = O;
kernRight = O;
layers = (
{
anchors = (
{
name = bottom;
pos = (354,0);
},
{
name = center;
pos = (354,344);
},
{
name = ogonek;
pos = (637,10);
},
{
name = top;
pos = (354,688);
},
{
name = topleft;
pos = (20,688);
},
{
name = topright;
pos = (688,688);
}
);
layerId = m009;
shapes = (
{
closed = 1;
nodes = (
(590,-8,o),
(632,44,o),
(632,339,cs),
(632,349,ls),
(632,644,o),
(590,696,o),
(354,696,cs),
(118,696,o),
(76,644,o),
(76,349,cs),
(76,339,ls),
(76,44,o),
(118,-8,o),
(354,-8,cs)
);
},
{
closed = 1;
nodes = (
(171,68,o),
(158,85,o),
(158,310,cs),
(158,378,ls),
(158,603,o),
(171,620,o),
(354,620,cs),
(537,620,o),
(550,603,o),
(550,378,cs),
(550,310,ls),
(550,85,o),
(537,68,o),
(354,68,cs)
);
}
);
width = 708;
},
{
anchors = (
{
name = bottom;
pos = (178,0);
},
{
name = center;
pos = (178,344);
},
{
name = ogonek;
pos = (320,10);
},
{
name = top;
pos = (178,688);
},
{
name = topleft;
pos = (20,688);
},
{
name = topright;
pos = (336,688);
}
);
layerId = m010;
shapes = (
{
closed = 1;
nodes = (
(300,-8,o),
(326,52,o),
(326,339,cs),
(326,349,ls),
(326,636,o),
(300,696,o),
(178,696,cs),
(56,696,o),
(30,636,o),
(30,349,cs),
(30,339,ls),
(30,52,o),
(56,-8,o),
(178,-8,cs)
);
},
{
closed = 1;
nodes = (
(119,68,o),
(112,92,o),
(112,310,cs),
(112,378,ls),
(112,596,o),
(119,620,o),
(178,620,cs),
(237,620,o),
(244,596,o),
(244,378,cs),
(244,310,ls),
(244,92,o),
(237,68,o),
(178,68,cs)
);
}
);
width = 356;
},
{
anchors = (
{
name = bottom;
pos = (444,0);
},
{
name = center;
pos = (444,344);
},
{
name = ogonek;
pos = (735,10);
},
{
name = top;
pos = (444,688);
},
{
name = topleft;
pos = (100,688);
},
{
name = topright;
pos = (788,688);
}
);
layerId = m011;
shapes = (
{
closed = 1;
nodes = (
(769,-8,o),
(812,33,o),
(812,339,cs),
(812,349,ls),
(812,655,o),
(769,696,o),
(444,696,cs),
(119,696,o),
(76,655,o),
(76,349,cs),
(76,339,ls),
(76,33,o),
(119,-8,o),
(444,-8,cs)
);
},
{
closed = 1;
nodes = (
(170,68,o),
(158,78,o),
(158,310,cs),
(158,378,ls),
(158,610,o),
(170,620,o),
(444,620,cs),
(718,620,o),
(730,610,o),
(730,378,cs),
(730,310,ls),
(730,78,o),
(718,68,o),
(444,68,cs)
);
}
);
width = 888;
},
{
anchors = (
{
name = bottom;
pos = (282,0);
},
{
name = center;
pos = (282,344);
},
{
name = ogonek;
pos = (565,10);
},
{
name = top;
pos = (282,688);
},
{
name = topleft;
pos = (-52,688);
},
{
name = topright;
pos = (616,688);
}
);
layerId = m012;
shapes = (
{
closed = 1;
nodes = (
(457,-8,o),
(488,44,o),
(488,339,cs),
(488,349,ls),
(488,644,o),
(457,696,o),
(282,696,cs),
(107,696,o),
(76,644,o),
(76,349,cs),
(76,339,ls),
(76,44,o),
(107,-8,o),
(282,-8,cs)
);
},
{
closed = 1;
nodes = (
(110,68,o),
(86,97,o),
(86,310,cs),
(86,378,ls),
(86,591,o),
(110,620,o),
(282,620,cs),
(454,620,o),
(478,591,o),
(478,378,cs),
(478,310,ls),
(478,97,o),
(454,68,o),
(282,68,cs)
);
}
);
width = 564;
},
{
anchors = (
{
name = bottom;
pos = (502,0);
},
{
name = center;
pos = (502,344);
},
{
name = ogonek;
pos = (785,10);
},
{
name = top;
pos = (502,688);
},
{
name = topleft;
pos = (168,688);
},
{
name = topright;
pos = (836,688);
}
);
layerId = m013;
shapes = (
{
closed = 1;
nodes = (
(864,-8,o),
(928,44,o),
(928,339,cs),
(928,349,ls),
(928,644,o),
(864,696,o),
(502,696,cs),
(140,696,o),
(76,644,o),
(76,349,cs),
(76,339,ls),
(76,44,o),
(140,-8,o),
(502,-8,cs)
);
},
{
closed = 1;
nodes = (
(319,68,o),
(306,85,o),
(306,310,cs),
(306,378,ls),
(306,603,o),
(319,620,o),
(502,620,cs),
(685,620,o),
(698,603,o),
(698,378,cs),
(698,310,ls),
(698,85,o),
(685,68,o),
(502,68,cs)
);
}
);
width = 1004;
},
{
anchors = (
{
name = bottom;
pos = (354,0);
},
{
name = center;
pos = (354,344);
},
{
name = ogonek;
pos = (637,10);
},
{
name = top;
pos = (354,688);
},
{
name = topleft;
pos = (20,688);
},
{
name = topright;
pos = (688,688);
}
);
layerId = m014;
shapes = (
{
closed = 1;
nodes = (
(590,-8,o),
(632,44,o),
(632,339,cs),
(632,349,ls),
(632,644,o),
(590,696,o),
(354,696,cs),
(118,696,o),
(76,644,o),
(76,349,cs),
(76,339,ls),
(76,44,o),
(118,-8,o),
(354,-8,cs)
);
},
{
closed = 1;
nodes = (
(171,2,o),
(158,23,o),
(158,302,cs),
(158,386,ls),
(158,665,o),
(171,686,o),
(354,686,cs),
(537,686,o),
(550,665,o),
(550,386,cs),
(550,302,ls),
(550,23,o),
(537,2,o),
(354,2,cs)
);
}
);
width = 708;
},
{
anchors = (
{
name = bottom;
pos = (354,0);
},
{
name = center;
pos = (354,344);
},
{
name = ogonek;
pos = (637,10);
},
{
name = top;
pos = (354,688);
},
{
name = topleft;
pos = (20,688);
},
{
name = topright;
pos = (688,688);
}
);
layerId = m015;
shapes = (
{
closed = 1;
nodes = (
(590,-8,o),
(632,44,o),
(632,339,cs),
(632,349,ls),
(632,644,o),
(590,696,o),
(354,696,cs),
(118,696,o),
(76,644,o),
(76,349,cs),
(76,339,ls),
(76,44,o),
(118,-8,o),
(354,-8,cs)
);
},
{
closed = 1;
nodes = (
(171,192,o),
(158,202,o),
(158,325,cs),
(158,363,ls),
(158,486,o),
(171,496,o),
(354,496,cs),
(537,496,o),
(550,486,o),
(550,363,cs),
(550,325,ls),
(550,202,o),
(537,192,o),
(354,192,cs)
);
}
);
width = 708;
},
{
anchors = (
{
name = bottom;
pos = (372,0);
},
{
name = center;
pos = (372,344);
},
{
name = ogonek;
pos = (669,10);
},
{
name = top;
pos = (372,688);
},
{
name = topleft;
pos = (20,688);
},
{
name = topright;
pos = (723,688);
}
);
layerId = "4F93A97B-747D-4721-B098-38A63C534D7A";
shapes = (
{
closed = 1;
nodes = (
(644,-8,o),
(693,44,o),
(693,339,cs),
(693,349,ls),
(693,644,o),
(644,696,o),
(371,696,cs),
(99,696,o),
(50,644,o),
(50,349,cs),
(50,339,ls),
(50,44,o),
(99,-8,o),
(371,-8,cs)
);
},
{
closed = 1;
nodes = (
(270,152,o),
(262,163,o),
(262,320,cs),
(262,368,ls),
(262,525,o),
(270,536,o),
(371,536,cs),
(472,536,o),
(480,525,o),
(480,368,cs),
(480,320,ls),
(480,163,o),
(472,152,o),
(371,152,cs)
);
}
);
width = 743;
},
{
anchors = (
{
name = bottom;
pos = (400,0);
},
{
name = center;
pos = (400,344);
},
{
name = ogonek;
pos = (685,10);
},
{
name = top;
pos = (400,688);
},
{
name = topleft;
pos = (64,688);
},
{
name = topright;
pos = (736,688);
}
);
guides = (
{
angle = 137.2026;
pos = (196,598);
showMeasurement = 1;
}
);
layerId = m016;
shapes = (
{
closed = 1;
nodes = (
(643,-8,o),
(713,70,o),
(713,339,cs),
(713,349,ls),
(713,618,o),
(643,696,o),
(400,696,cs),
(157,696,o),
(87,618,o),
(87,349,cs),
(87,339,ls),
(87,70,o),
(157,-8,o),
(400,-8,cs)
);
},
{
closed = 1;
nodes = (
(217,77,o),
(183,113,o),
(183,311,cs),
(183,377,ls),
(183,575,o),
(217,611,o),
(400,611,cs),
(583,611,o),
(617,575,o),
(617,377,cs),
(617,311,ls),
(617,113,o),
(583,77,o),
(400,77,cs)
);
}
);
width = 800;
}
);
metricRight = "=|";
unicode = 79;
},
{
color = 4;
glyphname = P;
kernLeft = H;
kernRight = P;
layers = (
{
anchors = (
{
name = bottom;
pos = (297,0);
},
{
name = top;
pos = (297,688);
}
);
layerId = m009;
shapes = (
{
closed = 1;
nodes = (
(186,0,l),
(186,645,l),
(149,612,l),
(311,612,ls),
(467,612,o),
(477,603,o),
(477,485,cs),
(477,450,ls),
(477,332,o),
(467,323,o),
(311,323,cs),
(170,323,l),
(170,247,l),
(311,247,ls),
(525,247,o),
(563,280,o),
(563,464,cs),
(563,471,ls),
(563,655,o),
(525,688,o),
(311,688,cs),
(100,688,l),
(100,0,l)
);
}
);
width = 593;
},
{
anchors = (
{
name = bottom;
pos = (155,0);
},
{
name = top;
pos = (155,688);
}
);
layerId = m010;
shapes = (
{
closed = 1;
nodes = (
(122,0,l),
(122,645,l),
(85,612,l),
(153,612,ls),
(209,612,o),
(212,603,o),
(212,485,cs),
(212,450,ls),
(212,332,o),
(209,323,o),
(153,323,cs),
(101,323,l),
(101,247,l),
(153,247,ls),
(273,247,o),
(294,280,o),
(294,464,cs),
(294,471,ls),
(294,655,o),
(273,688,o),
(153,688,cs),
(40,688,l),
(40,0,l)
);
}
);
width = 306;
},
{
anchors = (
{
name = bottom;
pos = (366,0);
},
{
name = top;
pos = (366,688);
}
);
layerId = m011;
shapes = (
{
closed = 1;
nodes = (
(182,0,l),
(182,645,l),
(145,614,l),
(428,614,ls),
(649,614,o),
(669,603,o),
(669,485,cs),
(669,450,ls),
(669,332,o),
(649,321,o),
(428,321,cs),
(171,321,l),
(171,247,l),
(428,247,ls),
(697,247,o),
(751,280,o),
(751,464,cs),
(751,471,ls),
(751,655,o),
(697,688,o),
(428,688,cs),
(100,688,l),
(100,0,l)
);
}
);
width = 781;
},
{
anchors = (
{
name = bottom;
pos = (221,0);
},
{
name = top;
pos = (221,688);
}
);
layerId = m012;
shapes = (
{
closed = 1;
nodes = (
(110,0,l),
(110,645,l),
(106,614,l),
(235,614,ls),
(391,614,o),
(401,605,o),
(401,485,cs),
(401,450,ls),
(401,330,o),
(391,321,o),
(235,321,cs),
(105,321,l),
(105,247,l),
(235,247,ls),
(385,247,o),
(411,280,o),
(411,464,cs),
(411,471,ls),
(411,655,o),
(385,688,o),
(235,688,cs),
(100,688,l),
(100,0,l)
);
}
);
width = 441;
},
{
anchors = (
{
name = bottom;
pos = (441,0);
},
{
name = top;
pos = (441,688);
}
);
layerId = m013;
shapes = (
{
closed = 1;
nodes = (
(330,0,l),
(330,645,l),
(231,614,l),
(455,614,ls),
(611,614,o),
(621,605,o),
(621,485,cs),
(621,450,ls),
(621,330,o),
(611,321,o),
(455,321,cs),
(287,321,l),
(287,247,l),
(455,247,ls),
(791,247,o),
(851,280,o),
(851,464,cs),
(851,471,ls),
(851,655,o),
(791,688,o),
(455,688,cs),
(100,688,l),
(100,0,l)
);
}
);
width = 881;
},
{
anchors = (
{
name = bottom;
pos = (297,0);
},
{
name = top;
pos = (297,688);
}
);
layerId = m014;
shapes = (
{
closed = 1;
nodes = (
(186,0,l),
(186,683,l),
(149,678,l),
(311,678,ls),
(467,678,o),
(477,677,o),
(477,500,cs),
(477,467,ls),
(477,290,o),
(467,289,o),
(311,289,cs),
(170,289,l),
(170,279,l),
(311,279,ls),
(525,279,o),
(563,310,o),
(563,480,cs),
(563,487,ls),
(563,657,o),
(525,688,o),
(311,688,cs),
(100,688,l),
(100,0,l)
);
}
);
width = 593;
},
{
anchors = (
{
name = bottom;
pos = (297,0);
},
{
name = top;
pos = (297,688);
}
);
layerId = m015;
shapes = (
{
closed = 1;
nodes = (
(186,0,l),
(186,521,l),
(149,488,l),
(311,488,ls),
(467,488,o),
(477,484,o),
(477,430,cs),
(477,443,ls),
(477,389,o),
(467,385,o),
(311,385,cs),
(170,385,l),
(170,185,l),
(311,185,ls),
(525,185,o),
(563,218,o),
(563,409,cs),
(563,414,ls),
(563,647,o),
(525,688,o),
(311,688,cs),
(100,688,l),
(100,0,l)
);
}
);
width = 593;
},
{
anchors = (
{
name = bottom;
pos = (322,0);
},
{
name = top;
pos = (322,688);
}
);
background = {
shapes = (
{
closed = 1;
nodes = (
(236,212,l),
(378,212,ls),
(568,212,o),
(589,304,o),
(589,448,cs),
(589,610,o),
(561,688,o),
(378,688,cs),
(40,688,l),
(40,0,l),
(252,0,l),
(252,617,l),
(158,522,l),
(313,522,ls),
(371,522,o),
(377,518,o),
(377,448,cs),
(377,377,o),
(371,372,o),
(313,372,cs),
(236,372,l)
);
}
);
};
layerId = "4F93A97B-747D-4721-B098-38A63C534D7A";
shapes = (
{
closed = 1;
nodes = (
(269,0,l),
(269,617,l),
(175,528,l),
(308,528,ls),
(407,528,o),
(414,523,o),
(414,461,cs),
(414,441,ls),
(414,378,o),
(407,373,o),
(308,373,cs),
(213,373,l),
(213,213,l),
(308,213,ls),
(578,213,o),
(626,248,o),
(626,447,cs),
(626,454,ls),
(626,653,o),
(578,688,o),
(308,688,cs),
(57,688,l),
(57,0,l)
);
}
);
width = 643;
},
{
anchors = (
{
name = bottom;
pos = (326,0);
},
{
name = top;
pos = (326,688);
}
);
layerId = m016;
shapes = (
{
closed = 1;
nodes = (
(205,0,l),
(205,642,l),
(161,604,l),
(349,604,ls),
(504,604,o),
(526,589,o),
(526,482,cs),
(526,449,ls),
(526,342,o),
(504,327,o),
(349,327,cs),
(185,327,l),
(185,243,l),
(349,243,ls),
(564,243,o),
(622,289,o),
(622,462,cs),
(622,469,ls),
(622,642,o),
(564,688,o),
(349,688,cs),
(109,688,l),
(109,0,l)
);
}
);
width = 655;
}
);
metricLeft = H;
metricRight = "=H*.3";
unicode = 80;
},
{
glyphname = R;
kernLeft = H;
kernRight = R;
layers = (
{
anchors = (
{
name = bottom;
pos = (340.826,0);
},
{
name = top;
pos = (340.826,688);
}
);
layerId = m009;
shapes = (
{
closed = 1;
nodes = (
(185.783,0,l),
(185.783,273.348,l),
(390.783,273.348,ls),
(413.174,273.348,o),
(425.087,273.804,o),
(435.087,277.348,c),
(410.848,289.326,l),
(524.783,0,l),
(616.957,0,l),
(500.848,286.239,l),
(597.609,315.043,o),
(607.239,407.37,o),
(607.239,480.674,cs),
(607.239,596.609,o),
(588.826,688,o),
(415.565,688,cs),
(99.783,688,l),
(99.783,0,l)
);
},
{
closed = 1;
nodes = (
(185.783,613.783,l),
(386.391,613.783,ls),
(513.696,613.783,o),
(521.239,570.239,o),
(521.239,480.674,cs),
(521.239,392.739,o),
(510.783,347.565,o),
(379,347.565,cs),
(185.783,347.565,l)
);
}
);
width = 681.19565;
},
{
anchors = (
{
name = bottom;
pos = (340.826,0);
},
{
name = top;
pos = (340.826,688);
}
);
layerId = m010;
shapes = (
{
closed = 1;
nodes = (
(185.783,0,l),
(185.783,273.348,l),
(390.783,273.348,ls),
(413.174,273.348,o),
(425.087,273.804,o),
(435.087,277.348,c),
(410.848,289.326,l),
(524.783,0,l),
(616.957,0,l),
(500.848,286.239,l),
(597.609,315.043,o),
(607.239,407.37,o),
(607.239,480.674,cs),
(607.239,596.609,o),
(588.826,688,o),
(415.565,688,cs),
(99.783,688,l),
(99.783,0,l)
);
},
{
closed = 1;
nodes = (
(185.783,613.783,l),
(386.391,613.783,ls),
(513.696,613.783,o),
(521.239,570.239,o),
(521.239,480.674,cs),
(521.239,392.739,o),
(510.783,347.565,o),
(379,347.565,cs),
(185.783,347.565,l)
);
}
);
width = 681.19565;
},
{
anchors = (
{
name = bottom;
pos = (340.826,0);
},
{
name = top;
pos = (340.826,688);
}
);
layerId = m011;
shapes = (
{
closed = 1;
nodes = (
(185.783,0,l),
(185.783,273.348,l),
(390.783,273.348,ls),
(413.174,273.348,o),
(425.087,273.804,o),
(435.087,277.348,c),
(410.848,289.326,l),
(524.783,0,l),
(616.957,0,l),
(500.848,286.239,l),
(597.609,315.043,o),
(607.239,407.37,o),
(607.239,480.674,cs),
(607.239,596.609,o),
(588.826,688,o),
(415.565,688,cs),
(99.783,688,l),
(99.783,0,l)
);
},
{
closed = 1;
nodes = (
(185.783,613.783,l),
(386.391,613.783,ls),
(513.696,613.783,o),
(521.239,570.239,o),
(521.239,480.674,cs),
(521.239,392.739,o),
(510.783,347.565,o),
(379,347.565,cs),
(185.783,347.565,l)
);
}
);
width = 681.19565;
},
{
anchors = (
{
name = bottom;
pos = (340.826,0);
},
{
name = top;
pos = (340.826,688);
}
);
layerId = m012;
shapes = (
{
closed = 1;
nodes = (
(185.783,0,l),
(185.783,273.348,l),
(390.783,273.348,ls),
(413.174,273.348,o),
(425.087,273.804,o),
(435.087,277.348,c),
(410.848,289.326,l),
(524.783,0,l),
(616.957,0,l),
(500.848,286.239,l),
(597.609,315.043,o),
(607.239,407.37,o),
(607.239,480.674,cs),
(607.239,596.609,o),
(588.826,688,o),
(415.565,688,cs),
(99.783,688,l),
(99.783,0,l)
);
},
{
closed = 1;
nodes = (
(185.783,613.783,l),
(386.391,613.783,ls),
(513.696,613.783,o),
(521.239,570.239,o),
(521.239,480.674,cs),
(521.239,392.739,o),
(510.783,347.565,o),
(379,347.565,cs),
(185.783,347.565,l)
);
}
);
width = 681.19565;
},
{
anchors = (
{
name = bottom;
pos = (340.826,0);
},
{
name = top;
pos = (340.826,688);
}
);
layerId = m013;
shapes = (
{
closed = 1;
nodes = (
(185.783,0,l),
(185.783,273.348,l),
(390.783,273.348,ls),
(413.174,273.348,o),
(425.087,273.804,o),
(435.087,277.348,c),
(410.848,289.326,l),
(524.783,0,l),
(616.957,0,l),
(500.848,286.239,l),
(597.609,315.043,o),
(607.239,407.37,o),
(607.239,480.674,cs),
(607.239,596.609,o),
(588.826,688,o),
(415.565,688,cs),
(99.783,688,l),
(99.783,0,l)
);
},
{
closed = 1;
nodes = (
(185.783,613.783,l),
(386.391,613.783,ls),
(513.696,613.783,o),
(521.239,570.239,o),
(521.239,480.674,cs),
(521.239,392.739,o),
(510.783,347.565,o),
(379,347.565,cs),
(185.783,347.565,l)
);
}
);
width = 681.19565;
},
{
anchors = (
{
name = bottom;
pos = (340.826,0);
},
{
name = top;
pos = (340.826,688);
}
);
layerId = m014;
shapes = (
{
closed = 1;
nodes = (
(185.783,0,l),
(185.783,273.348,l),
(390.783,273.348,ls),
(413.174,273.348,o),
(425.087,273.804,o),
(435.087,277.348,c),
(410.848,289.326,l),
(524.783,0,l),
(616.957,0,l),
(500.848,286.239,l),
(597.609,315.043,o),
(607.239,407.37,o),
(607.239,480.674,cs),
(607.239,596.609,o),
(588.826,688,o),
(415.565,688,cs),
(99.783,688,l),
(99.783,0,l)
);
},
{
closed = 1;
nodes = (
(185.783,613.783,l),
(386.391,613.783,ls),
(513.696,613.783,o),
(521.239,570.239,o),
(521.239,480.674,cs),
(521.239,392.739,o),
(510.783,347.565,o),
(379,347.565,cs),
(185.783,347.565,l)
);
}
);
width = 681.19565;
},
{
anchors = (
{
name = bottom;
pos = (340.826,0);
},
{
name = top;
pos = (340.826,688);
}
);
layerId = m015;
shapes = (
{
closed = 1;
nodes = (
(185.783,0,l),
(185.783,273.348,l),
(390.783,273.348,ls),
(413.174,273.348,o),
(425.087,273.804,o),
(435.087,277.348,c),
(410.848,289.326,l),
(524.783,0,l),
(616.957,0,l),
(500.848,286.239,l),
(597.609,315.043,o),
(607.239,407.37,o),
(607.239,480.674,cs),
(607.239,596.609,o),
(588.826,688,o),
(415.565,688,cs),
(99.783,688,l),
(99.783,0,l)
);
},
{
closed = 1;
nodes = (
(185.783,613.783,l),
(386.391,613.783,ls),
(513.696,613.783,o),
(521.239,570.239,o),
(521.239,480.674,cs),
(521.239,392.739,o),
(510.783,347.565,o),
(379,347.565,cs),
(185.783,347.565,l)
);
}
);
width = 681.19565;
},
{
anchors = (
{
name = bottom;
pos = (333,0);
},
{
name = top;
pos = (333,688);
}
);
layerId = "4F93A97B-747D-4721-B098-38A63C534D7A";
shapes = (
{
closed = 1;
nodes = (
(285,0,l),
(285,229,l),
(329,229,ls),
(352,229,o),
(364,229,o),
(377,239,c),
(319,272,l),
(401,0,l),
(641,0,l),
(547,257,l),
(615,294,o),
(626,364,o),
(626,458,cs),
(626,613,o),
(598,688,o),
(413,688,cs),
(51,688,l),
(51,0,l)
);
},
{
closed = 1;
nodes = (
(285,525,l),
(326,525,ls),
(392,525,o),
(392,517,o),
(392,454,cs),
(392,387,o),
(384,384,o),
(327,384,cs),
(285,384,l)
);
}
);
width = 665;
},
{
anchors = (
{
name = bottom;
pos = (340.826,0);
},
{
name = top;
pos = (340.826,688);
}
);
layerId = m016;
shapes = (
{
closed = 1;
nodes = (
(185.783,0,l),
(185.783,273.348,l),
(390.783,273.348,ls),
(413.174,273.348,o),
(425.087,273.804,o),
(435.087,277.348,c),
(410.848,289.326,l),
(524.783,0,l),
(616.957,0,l),
(500.848,286.239,l),
(597.609,315.043,o),
(607.239,407.37,o),
(607.239,480.674,cs),
(607.239,596.609,o),
(588.826,688,o),
(415.565,688,cs),
(99.783,688,l),
(99.783,0,l)
);
},
{
closed = 1;
nodes = (
(185.783,613.783,l),
(386.391,613.783,ls),
(513.696,613.783,o),
(521.239,570.239,o),
(521.239,480.674,cs),
(521.239,392.739,o),
(510.783,347.565,o),
(379,347.565,cs),
(185.783,347.565,l)
);
}
);
width = 681.19565;
}
);
unicode = 82;
},
{
glyphname = S;
kernLeft = S;
kernRight = S;
layers = (
{
anchors = (
{
name = bottom;
pos = (314.196,0);
},
{
name = top;
pos = (314.196,688);
}
);
layerId = m009;
shapes = (
{
closed = 1;
nodes = (
(466.37,-8,o),
(560.891,6.435,o),
(560.891,195.609,cs),
(560.891,245.587,o),
(557.087,282.391,o),
(546.37,309.565,cs),
(524.565,366.217,o),
(475.913,377.109,o),
(405.304,384.478,cs),
(237.826,403.022,ls),
(163.326,410.935,o),
(153.5,426.326,o),
(153.5,505.935,cs),
(153.5,549.522,o),
(156.326,580.739,o),
(185.891,598.848,cs),
(211.913,615.413,o),
(254.848,621.783,o),
(329.152,621.783,cs),
(391.783,621.783,o),
(474.239,616.783,o),
(526.435,609.239,c),
(526.435,679.739,l),
(479.087,689.37,o),
(390.283,696,o),
(313.652,696,cs),
(158.435,696,o),
(66.957,671.261,o),
(66.957,503.587,cs),
(66.957,399.717,o),
(83.804,336.457,o),
(212.261,322.37,cs),
(382.761,303.37,ls),
(469.63,294.174,o),
(474.348,281.087,o),
(474.348,190.065,cs),
(474.348,144.022,o),
(471.522,105.783,o),
(441.848,88.043,cs),
(412.717,70.848,o),
(372.978,66.217,o),
(303.435,66.217,cs),
(249.783,66.217,o),
(157.217,71.674,o),
(86.957,78.674,c),
(86.957,5.63,l),
(154.304,-2.457,o),
(254.022,-8,o),
(328.652,-8,cs)
);
}
);
width = 628.3913;
},
{
anchors = (
{
name = bottom;
pos = (314.196,0);
},
{
name = top;
pos = (314.196,688);
}
);
layerId = m010;
shapes = (
{
closed = 1;
nodes = (
(466.37,-8,o),
(560.891,6.435,o),
(560.891,195.609,cs),
(560.891,245.587,o),
(557.087,282.391,o),
(546.37,309.565,cs),
(524.565,366.217,o),
(475.913,377.109,o),
(405.304,384.478,cs),
(237.826,403.022,ls),
(163.326,410.935,o),
(153.5,426.326,o),
(153.5,505.935,cs),
(153.5,549.522,o),
(156.326,580.739,o),
(185.891,598.848,cs),
(211.913,615.413,o),
(254.848,621.783,o),
(329.152,621.783,cs),
(391.783,621.783,o),
(474.239,616.783,o),
(526.435,609.239,c),
(526.435,679.739,l),
(479.087,689.37,o),
(390.283,696,o),
(313.652,696,cs),
(158.435,696,o),
(66.957,671.261,o),
(66.957,503.587,cs),
(66.957,399.717,o),
(83.804,336.457,o),
(212.261,322.37,cs),
(382.761,303.37,ls),
(469.63,294.174,o),
(474.348,281.087,o),
(474.348,190.065,cs),
(474.348,144.022,o),
(471.522,105.783,o),
(441.848,88.043,cs),
(412.717,70.848,o),
(372.978,66.217,o),
(303.435,66.217,cs),
(249.783,66.217,o),
(157.217,71.674,o),
(86.957,78.674,c),
(86.957,5.63,l),
(154.304,-2.457,o),
(254.022,-8,o),
(328.652,-8,cs)
);
}
);
width = 628.3913;
},
{
anchors = (
{
name = bottom;
pos = (314.196,0);
},
{
name = top;
pos = (314.196,688);
}
);
layerId = m011;
shapes = (
{
closed = 1;
nodes = (
(466.37,-8,o),
(560.891,6.435,o),
(560.891,195.609,cs),
(560.891,245.587,o),
(557.087,282.391,o),
(546.37,309.565,cs),
(524.565,366.217,o),
(475.913,377.109,o),
(405.304,384.478,cs),
(237.826,403.022,ls),
(163.326,410.935,o),
(153.5,426.326,o),
(153.5,505.935,cs),
(153.5,549.522,o),
(156.326,580.739,o),
(185.891,598.848,cs),
(211.913,615.413,o),
(254.848,621.783,o),
(329.152,621.783,cs),
(391.783,621.783,o),
(474.239,616.783,o),
(526.435,609.239,c),
(526.435,679.739,l),
(479.087,689.37,o),
(390.283,696,o),
(313.652,696,cs),
(158.435,696,o),
(66.957,671.261,o),
(66.957,503.587,cs),
(66.957,399.717,o),
(83.804,336.457,o),
(212.261,322.37,cs),
(382.761,303.37,ls),
(469.63,294.174,o),
(474.348,281.087,o),
(474.348,190.065,cs),
(474.348,144.022,o),
(471.522,105.783,o),
(441.848,88.043,cs),
(412.717,70.848,o),
(372.978,66.217,o),
(303.435,66.217,cs),
(249.783,66.217,o),
(157.217,71.674,o),
(86.957,78.674,c),
(86.957,5.63,l),
(154.304,-2.457,o),
(254.022,-8,o),
(328.652,-8,cs)
);
}
);
width = 628.3913;
},
{
anchors = (
{
name = bottom;
pos = (314.196,0);
},
{
name = top;
pos = (314.196,688);
}
);
layerId = m012;
shapes = (
{
closed = 1;
nodes = (
(466.37,-8,o),
(560.891,6.435,o),
(560.891,195.609,cs),
(560.891,245.587,o),
(557.087,282.391,o),
(546.37,309.565,cs),
(524.565,366.217,o),
(475.913,377.109,o),
(405.304,384.478,cs),
(237.826,403.022,ls),
(163.326,410.935,o),
(153.5,426.326,o),
(153.5,505.935,cs),
(153.5,549.522,o),
(156.326,580.739,o),
(185.891,598.848,cs),
(211.913,615.413,o),
(254.848,621.783,o),
(329.152,621.783,cs),
(391.783,621.783,o),
(474.239,616.783,o),
(526.435,609.239,c),
(526.435,679.739,l),
(479.087,689.37,o),
(390.283,696,o),
(313.652,696,cs),
(158.435,696,o),
(66.957,671.261,o),
(66.957,503.587,cs),
(66.957,399.717,o),
(83.804,336.457,o),
(212.261,322.37,cs),
(382.761,303.37,ls),
(469.63,294.174,o),
(474.348,281.087,o),
(474.348,190.065,cs),
(474.348,144.022,o),
(471.522,105.783,o),
(441.848,88.043,cs),
(412.717,70.848,o),
(372.978,66.217,o),
(303.435,66.217,cs),
(249.783,66.217,o),
(157.217,71.674,o),
(86.957,78.674,c),
(86.957,5.63,l),
(154.304,-2.457,o),
(254.022,-8,o),
(328.652,-8,cs)
);
}
);
width = 628.3913;
},
{
anchors = (
{
name = bottom;
pos = (314.196,0);
},
{
name = top;
pos = (314.196,688);
}
);
layerId = m013;
shapes = (
{
closed = 1;
nodes = (
(466.37,-8,o),
(560.891,6.435,o),
(560.891,195.609,cs),
(560.891,245.587,o),
(557.087,282.391,o),
(546.37,309.565,cs),
(524.565,366.217,o),
(475.913,377.109,o),
(405.304,384.478,cs),
(237.826,403.022,ls),
(163.326,410.935,o),
(153.5,426.326,o),
(153.5,505.935,cs),
(153.5,549.522,o),
(156.326,580.739,o),
(185.891,598.848,cs),
(211.913,615.413,o),
(254.848,621.783,o),
(329.152,621.783,cs),
(391.783,621.783,o),
(474.239,616.783,o),
(526.435,609.239,c),
(526.435,679.739,l),
(479.087,689.37,o),
(390.283,696,o),
(313.652,696,cs),
(158.435,696,o),
(66.957,671.261,o),
(66.957,503.587,cs),
(66.957,399.717,o),
(83.804,336.457,o),
(212.261,322.37,cs),
(382.761,303.37,ls),
(469.63,294.174,o),
(474.348,281.087,o),
(474.348,190.065,cs),
(474.348,144.022,o),
(471.522,105.783,o),
(441.848,88.043,cs),
(412.717,70.848,o),
(372.978,66.217,o),
(303.435,66.217,cs),
(249.783,66.217,o),
(157.217,71.674,o),
(86.957,78.674,c),
(86.957,5.63,l),
(154.304,-2.457,o),
(254.022,-8,o),
(328.652,-8,cs)
);
}
);
width = 628.3913;
},
{
anchors = (
{
name = bottom;
pos = (314.196,0);
},
{
name = top;
pos = (314.196,688);
}
);
layerId = m014;
shapes = (
{
closed = 1;
nodes = (
(466.37,-8,o),
(560.891,6.435,o),
(560.891,195.609,cs),
(560.891,245.587,o),
(557.087,282.391,o),
(546.37,309.565,cs),
(524.565,366.217,o),
(475.913,377.109,o),
(405.304,384.478,cs),
(237.826,403.022,ls),
(163.326,410.935,o),
(153.5,426.326,o),
(153.5,505.935,cs),
(153.5,549.522,o),
(156.326,580.739,o),
(185.891,598.848,cs),
(211.913,615.413,o),
(254.848,621.783,o),
(329.152,621.783,cs),
(391.783,621.783,o),
(474.239,616.783,o),
(526.435,609.239,c),
(526.435,679.739,l),
(479.087,689.37,o),
(390.283,696,o),
(313.652,696,cs),
(158.435,696,o),
(66.957,671.261,o),
(66.957,503.587,cs),
(66.957,399.717,o),
(83.804,336.457,o),
(212.261,322.37,cs),
(382.761,303.37,ls),
(469.63,294.174,o),
(474.348,281.087,o),
(474.348,190.065,cs),
(474.348,144.022,o),
(471.522,105.783,o),
(441.848,88.043,cs),
(412.717,70.848,o),
(372.978,66.217,o),
(303.435,66.217,cs),
(249.783,66.217,o),
(157.217,71.674,o),
(86.957,78.674,c),
(86.957,5.63,l),
(154.304,-2.457,o),
(254.022,-8,o),
(328.652,-8,cs)
);
}
);
width = 628.3913;
},
{
anchors = (
{
name = bottom;
pos = (314.196,0);
},
{
name = top;
pos = (314.196,688);
}
);
layerId = m015;
shapes = (
{
closed = 1;
nodes = (
(466.37,-8,o),
(560.891,6.435,o),
(560.891,195.609,cs),
(560.891,245.587,o),
(557.087,282.391,o),
(546.37,309.565,cs),
(524.565,366.217,o),
(475.913,377.109,o),
(405.304,384.478,cs),
(237.826,403.022,ls),
(163.326,410.935,o),
(153.5,426.326,o),
(153.5,505.935,cs),
(153.5,549.522,o),
(156.326,580.739,o),
(185.891,598.848,cs),
(211.913,615.413,o),
(254.848,621.783,o),
(329.152,621.783,cs),
(391.783,621.783,o),
(474.239,616.783,o),
(526.435,609.239,c),
(526.435,679.739,l),
(479.087,689.37,o),
(390.283,696,o),
(313.652,696,cs),
(158.435,696,o),
(66.957,671.261,o),
(66.957,503.587,cs),
(66.957,399.717,o),
(83.804,336.457,o),
(212.261,322.37,cs),
(382.761,303.37,ls),
(469.63,294.174,o),
(474.348,281.087,o),
(474.348,190.065,cs),
(474.348,144.022,o),
(471.522,105.783,o),
(441.848,88.043,cs),
(412.717,70.848,o),
(372.978,66.217,o),
(303.435,66.217,cs),
(249.783,66.217,o),
(157.217,71.674,o),
(86.957,78.674,c),
(86.957,5.63,l),
(154.304,-2.457,o),
(254.022,-8,o),
(328.652,-8,cs)
);
}
);
width = 628.3913;
},
{
anchors = (
{
name = bottom;
pos = (305,0);
},
{
name = top;
pos = (305,688);
}
);
layerId = "4F93A97B-747D-4721-B098-38A63C534D7A";
shapes = (
{
closed = 1;
nodes = (
(464,-8,o),
(576,13,o),
(576,223,cs),
(576,289,o),
(567,333,o),
(554,357,cs),
(524,414,o),
(478,425,o),
(427,432,cs),
(322,445,ls),
(270,452,o),
(266,456,o),
(266,491,cs),
(266,506,o),
(270,515,o),
(281,522,cs),
(291,528,o),
(311,529,o),
(343,529,cs),
(407,529,o),
(490,524,o),
(541,518,c),
(541,675,l),
(488,687,o),
(389,696,o),
(305,696,cs),
(154,696,o),
(33,666,o),
(33,485,cs),
(33,359,o),
(54,279,o),
(136,269,cs),
(253,254,l),
(333,244,o),
(343,243,o),
(343,204,cs),
(343,185,o),
(343,174,o),
(333,167,cs),
(323,160,o),
(299,159,o),
(246,159,cs),
(201,159,o),
(126,163,o),
(53,169,c),
(53,10,l),
(121,0,o),
(233,-8,o),
(320,-8,cs)
);
}
);
width = 609;
},
{
anchors = (
{
name = bottom;
pos = (314.196,0);
},
{
name = top;
pos = (314.196,688);
}
);
layerId = m016;
shapes = (
{
closed = 1;
nodes = (
(466.37,-8,o),
(560.891,6.435,o),
(560.891,195.609,cs),
(560.891,245.587,o),
(557.087,282.391,o),
(546.37,309.565,cs),
(524.565,366.217,o),
(475.913,377.109,o),
(405.304,384.478,cs),
(237.826,403.022,ls),
(163.326,410.935,o),
(153.5,426.326,o),
(153.5,505.935,cs),
(153.5,549.522,o),
(156.326,580.739,o),
(185.891,598.848,cs),
(211.913,615.413,o),
(254.848,621.783,o),
(329.152,621.783,cs),
(391.783,621.783,o),
(474.239,616.783,o),
(526.435,609.239,c),
(526.435,679.739,l),
(479.087,689.37,o),
(390.283,696,o),
(313.652,696,cs),
(158.435,696,o),
(66.957,671.261,o),
(66.957,503.587,cs),
(66.957,399.717,o),
(83.804,336.457,o),
(212.261,322.37,cs),
(382.761,303.37,ls),
(469.63,294.174,o),
(474.348,281.087,o),
(474.348,190.065,cs),
(474.348,144.022,o),
(471.522,105.783,o),
(441.848,88.043,cs),
(412.717,70.848,o),
(372.978,66.217,o),
(303.435,66.217,cs),
(249.783,66.217,o),
(157.217,71.674,o),
(86.957,78.674,c),
(86.957,5.63,l),
(154.304,-2.457,o),
(254.022,-8,o),
(328.652,-8,cs)
);
}
);
width = 628.3913;
}
);
unicode = 83;
},
{
glyphname = T;
kernLeft = T;
kernRight = T;
layers = (
{
anchors = (
{
name = bottom;
pos = (290.457,0);
},
{
name = center;
pos = (290.457,344);
},
{
name = top;
pos = (290.457,688);
}
);
layerId = m009;
shapes = (
{
closed = 1;
nodes = (
(333.457,0,l),
(333.457,611.609,l),
(550.696,611.609,l),
(550.696,688,l),
(30.217,688,l),
(30.217,611.609,l),
(247.457,611.609,l),
(247.457,0,l)
);
}
);
width = 580.91304;
},
{
anchors = (
{
name = bottom;
pos = (290.457,0);
},
{
name = center;
pos = (290.457,344);
},
{
name = top;
pos = (290.457,688);
}
);
layerId = m010;
shapes = (
{
closed = 1;
nodes = (
(333.457,0,l),
(333.457,611.609,l),
(550.696,611.609,l),
(550.696,688,l),
(30.217,688,l),
(30.217,611.609,l),
(247.457,611.609,l),
(247.457,0,l)
);
}
);
width = 580.91304;
},
{
anchors = (
{
name = bottom;
pos = (290.457,0);
},
{
name = center;
pos = (290.457,344);
},
{
name = top;
pos = (290.457,688);
}
);
layerId = m011;
shapes = (
{
closed = 1;
nodes = (
(333.457,0,l),
(333.457,611.609,l),
(550.696,611.609,l),
(550.696,688,l),
(30.217,688,l),
(30.217,611.609,l),
(247.457,611.609,l),
(247.457,0,l)
);
}
);
width = 580.91304;
},
{
anchors = (
{
name = bottom;
pos = (290.457,0);
},
{
name = center;
pos = (290.457,344);
},
{
name = top;
pos = (290.457,688);
}
);
layerId = m012;
shapes = (
{
closed = 1;
nodes = (
(333.457,0,l),
(333.457,611.609,l),
(550.696,611.609,l),
(550.696,688,l),
(30.217,688,l),
(30.217,611.609,l),
(247.457,611.609,l),
(247.457,0,l)
);
}
);
width = 580.91304;
},
{
anchors = (
{
name = bottom;
pos = (290.457,0);
},
{
name = center;
pos = (290.457,344);
},
{
name = top;
pos = (290.457,688);
}
);
layerId = m013;
shapes = (
{
closed = 1;
nodes = (
(333.457,0,l),
(333.457,611.609,l),
(550.696,611.609,l),
(550.696,688,l),
(30.217,688,l),
(30.217,611.609,l),
(247.457,611.609,l),
(247.457,0,l)
);
}
);
width = 580.91304;
},
{
anchors = (
{
name = bottom;
pos = (290.457,0);
},
{
name = center;
pos = (290.457,344);
},
{
name = top;
pos = (290.457,688);
}
);
layerId = m014;
shapes = (
{
closed = 1;
nodes = (
(333.457,0,l),
(333.457,611.609,l),
(550.696,611.609,l),
(550.696,688,l),
(30.217,688,l),
(30.217,611.609,l),
(247.457,611.609,l),
(247.457,0,l)
);
}
);
width = 580.91304;
},
{
anchors = (
{
name = bottom;
pos = (290.457,0);
},
{
name = center;
pos = (290.457,344);
},
{
name = top;
pos = (290.457,688);
}
);
layerId = m015;
shapes = (
{
closed = 1;
nodes = (
(333.457,0,l),
(333.457,611.609,l),
(550.696,611.609,l),
(550.696,688,l),
(30.217,688,l),
(30.217,611.609,l),
(247.457,611.609,l),
(247.457,0,l)
);
}
);
width = 580.91304;
},
{
anchors = (
{
name = bottom;
pos = (299,0);
},
{
name = center;
pos = (299,344);
},
{
name = top;
pos = (299,688);
}
);
layerId = "4F93A97B-747D-4721-B098-38A63C534D7A";
shapes = (
{
closed = 1;
nodes = (
(415,0,l),
(415,512,l),
(584,512,l),
(584,688,l),
(13,688,l),
(13,512,l),
(181,512,l),
(181,0,l)
);
}
);
width = 597;
},
{
anchors = (
{
name = bottom;
pos = (290.457,0);
},
{
name = center;
pos = (290.457,344);
},
{
name = top;
pos = (290.457,688);
}
);
layerId = m016;
shapes = (
{
closed = 1;
nodes = (
(333.457,0,l),
(333.457,611.609,l),
(550.696,611.609,l),
(550.696,688,l),
(30.217,688,l),
(30.217,611.609,l),
(247.457,611.609,l),
(247.457,0,l)
);
}
);
width = 580.91304;
}
);
unicode = 84;
},
{
color = 4;
glyphname = U;
kernLeft = O;
kernRight = O;
layers = (
{
anchors = (
{
name = bottom;
pos = (500,0);
},
{
name = ogonek;
pos = (785,10);
},
{
name = top;
pos = (500,688);
},
{
name = topright;
pos = (836,688);
}
);
guides = (
{
angle = -19.4766;
pos = (136,312);
}
);
layerId = m009;
shapes = (
{
closed = 1;
nodes = (
(570,-8,o),
(609,50,o),
(609,326,cs),
(609,688,l),
(527,688,l),
(527,297,ls),
(527,91,o),
(515,68,o),
(352,68,cs),
(189,68,o),
(177,91,o),
(177,297,cs),
(177,688,l),
(95,688,l),
(95,326,ls),
(95,51,o),
(134,-8,o),
(352,-8,cs)
);
}
);
width = 704;
},
{
anchors = (
{
name = bottom;
pos = (190,0);
},
{
name = ogonek;
pos = (340,10);
},
{
name = top;
pos = (190,688);
},
{
name = topright;
pos = (355,688);
}
);
guides = (
{
angle = -19.4766;
pos = (38,246);
}
);
layerId = m010;
shapes = (
{
closed = 1;
nodes = (
(294,-8,o),
(322,38,o),
(322,216,cs),
(322,688,l),
(240,688,l),
(240,187,ls),
(240,79,o),
(235,68,o),
(180,68,cs),
(125,68,o),
(120,79,o),
(120,187,cs),
(120,688,l),
(38,688,l),
(38,216,ls),
(38,38,o),
(66,-8,o),
(180,-8,cs)
);
}
);
width = 360;
},
{
anchors = (
{
name = bottom;
pos = (445,0);
},
{
name = ogonek;
pos = (802,10);
},
{
name = top;
pos = (445,688);
},
{
name = topright;
pos = (870,688);
}
);
layerId = m011;
shapes = (
{
closed = 1;
nodes = (
(735,-8,o),
(789,43,o),
(789,326,cs),
(789,688,l),
(707,688,l),
(707,297,ls),
(707,90,o),
(682,68,o),
(442,68,cs),
(202,68,o),
(177,90,o),
(177,297,cs),
(177,688,l),
(95,688,l),
(95,326,ls),
(95,43,o),
(149,-8,o),
(442,-8,cs)
);
}
);
width = 884;
},
{
anchors = (
{
name = bottom;
pos = (208,0);
},
{
name = ogonek;
pos = (432,10);
},
{
name = top;
pos = (208,688);
},
{
name = topright;
pos = (468,688);
}
);
guides = (
{
angle = 90;
pos = (280,68);
}
);
layerId = m012;
shapes = (
{
closed = 1;
nodes = (
(493,-8,o),
(537,52,o),
(537,326,cs),
(537,688,l),
(455,688,l),
(455,297,ls),
(455,87,o),
(440,68,o),
(280,68,cs),
(135,68,o),
(105,108,o),
(105,297,cs),
(105,688,l),
(95,688,l),
(95,306,ls),
(95,38,o),
(124,-8,o),
(293,-8,cs)
);
}
);
width = 632;
},
{
anchors = (
{
name = bottom;
pos = (428,0);
},
{
name = ogonek;
pos = (770,10);
},
{
name = top;
pos = (428,688);
},
{
name = topright;
pos = (836,688);
}
);
layerId = m013;
shapes = (
{
closed = 1;
nodes = (
(718,-8,o),
(757,38,o),
(757,326,cs),
(757,688,l),
(675,688,l),
(675,297,ls),
(675,87,o),
(660,68,o),
(500,68,cs),
(340,68,o),
(325,87,o),
(325,297,cs),
(325,688,l),
(95,688,l),
(95,326,ls),
(95,54,o),
(165,-8,o),
(471,-8,cs)
);
}
);
width = 852;
},
{
anchors = (
{
name = bottom;
pos = (402,0);
},
{
name = ogonek;
pos = (684,10);
},
{
name = top;
pos = (402,688);
},
{
name = topright;
pos = (734,688);
}
);
layerId = m014;
shapes = (
{
closed = 1;
nodes = (
(507,-8,o),
(537,43,o),
(537,326,cs),
(537,688,l),
(527,688,l),
(527,297,ls),
(527,51,o),
(497,2,o),
(344,2,cs),
(194,2,o),
(177,32,o),
(177,297,cs),
(177,688,l),
(95,688,l),
(95,326,ls),
(95,52,o),
(139,-8,o),
(338,-8,cs)
);
}
);
width = 632;
},
{
anchors = (
{
name = bottom;
pos = (354,0);
},
{
name = ogonek;
pos = (636,10);
},
{
name = top;
pos = (354,688);
},
{
name = topright;
pos = (686,688);
}
);
layerId = m015;
shapes = (
{
closed = 1;
nodes = (
(688,-8,o),
(757,54,o),
(757,326,cs),
(757,688,l),
(527,688,l),
(527,354,ls),
(527,206,o),
(512,192,o),
(352,192,cs),
(192,192,o),
(177,206,o),
(177,354,cs),
(177,688,l),
(95,688,l),
(95,326,ls),
(95,37,o),
(133,-8,o),
(383,-8,cs)
);
}
);
width = 852;
},
{
anchors = (
{
name = bottom;
pos = (357,0);
},
{
name = ogonek;
pos = (643,10);
},
{
name = top;
pos = (357,688);
},
{
name = topright;
pos = (694,688);
}
);
layerId = "4F93A97B-747D-4721-B098-38A63C534D7A";
shapes = (
{
closed = 1;
nodes = (
(613,-8,o),
(660,53,o),
(660,339,cs),
(660,688,l),
(448,688,l),
(448,320,ls),
(448,170,o),
(442,152,o),
(357,152,cs),
(272,152,o),
(266,170,o),
(266,320,cs),
(266,688,l),
(54,688,l),
(54,339,ls),
(54,53,o),
(101,-8,o),
(357,-8,cs)
);
}
);
width = 714;
},
{
anchors = (
{
name = bottom;
pos = (384,0);
},
{
name = ogonek;
pos = (690,10);
},
{
name = top;
pos = (384,688);
},
{
name = topright;
pos = (747,688);
}
);
layerId = m016;
shapes = (
{
closed = 1;
nodes = (
(607,-8,o),
(663,59,o),
(663,327,cs),
(663,688,l),
(568,688,l),
(568,299,ls),
(568,107,o),
(543,77,o),
(383,77,cs),
(224,77,o),
(199,107,o),
(199,299,cs),
(199,688,l),
(104,688,l),
(104,327,ls),
(104,59,o),
(160,-8,o),
(383,-8,cs)
);
}
);
width = 767;
},
{
anchors = (
{
name = bottom;
pos = (208,0);
},
{
name = ogonek;
pos = (432,10);
},
{
name = top;
pos = (208,688);
},
{
name = topright;
pos = (468,688);
}
);
associatedMasterId = m012;
guides = (
{
angle = 90;
pos = (280,68);
}
);
layerId = "3BA10B90-F538-41D8-8831-0E131D7725CF";
name = "24 Mar 26 13:36";
shapes = (
{
closed = 1;
nodes = (
(493,-8,o),
(537,52,o),
(537,326,cs),
(537,688,l),
(455,688,l),
(455,297,ls),
(455,87,o),
(440,68,o),
(280,68,cs),
(135,68,o),
(105,108,o),
(105,297,cs),
(105,688,l),
(95,688,l),
(95,306,ls),
(95,38,o),
(124,-8,o),
(293,-8,cs)
);
}
);
width = 632;
},
{
anchors = (
{
name = bottom;
pos = (428,0);
},
{
name = ogonek;
pos = (770,10);
},
{
name = top;
pos = (428,688);
},
{
name = topright;
pos = (836,688);
}
);
associatedMasterId = m013;
layerId = "A2CD191C-1A23-491F-80B4-4427AE70665E";
name = "24 Mar 26 13:36";
shapes = (
{
closed = 1;
nodes = (
(687,-8,o),
(757,54,o),
(757,326,cs),
(757,688,l),
(527,688,l),
(527,297,ls),
(527,87,o),
(512,68,o),
(352,68,cs),
(192,68,o),
(177,87,o),
(177,297,cs),
(177,688,l),
(95,688,l),
(95,326,ls),
(95,38,o),
(134,-8,o),
(381,-8,cs)
);
}
);
width = 852;
},
{
anchors = (
{
name = bottom;
pos = (352,0);
},
{
name = ogonek;
pos = (634,10);
},
{
name = top;
pos = (352,688);
},
{
name = topright;
pos = (684,688);
}
);
associatedMasterId = m014;
layerId = "65EE2A8F-43B5-4912-9688-69EEBAEC2D53";
name = "24 Mar 26 13:36";
shapes = (
{
closed = 1;
nodes = (
(507,-8,o),
(537,43,o),
(537,326,cs),
(537,688,l),
(527,688,l),
(527,297,ls),
(527,51,o),
(497,2,o),
(344,2,cs),
(194,2,o),
(177,32,o),
(177,297,cs),
(177,688,l),
(95,688,l),
(95,326,ls),
(95,52,o),
(139,-8,o),
(338,-8,cs)
);
}
);
width = 632;
},
{
anchors = (
{
name = bottom;
pos = (354,0);
},
{
name = ogonek;
pos = (636,10);
},
{
name = top;
pos = (354,688);
},
{
name = topright;
pos = (686,688);
}
);
associatedMasterId = m015;
layerId = "BCD6A0E0-ED65-4D28-8696-5ECB486C6EED";
name = "24 Mar 26 13:36";
shapes = (
{
closed = 1;
nodes = (
(719,-8,o),
(757,37,o),
(757,326,cs),
(757,688,l),
(675,688,l),
(675,374,ls),
(675,235,o),
(660,222,o),
(500,222,cs),
(340,222,o),
(325,235,o),
(325,374,cs),
(325,688,l),
(95,688,l),
(95,326,ls),
(95,54,o),
(164,-8,o),
(469,-8,cs)
);
}
);
width = 852;
}
);
metricLeft = "=H*.95";
metricRight = "=|";
unicode = 85;
},
{
color = 4;
glyphname = V;
kernLeft = A;
kernRight = A;
layers = (
{
anchors = (
{
name = bottom;
pos = (313,0);
},
{
name = top;
pos = (313,688);
}
);
layerId = m009;
shapes = (
{
closed = 1;
nodes = (
(366,0,l),
(616,688,l),
(529,688,l),
(316,88,l),
(310,88,l),
(97,688,l),
(10,688,l),
(260,0,l)
);
}
);
width = 626;
},
{
anchors = (
{
name = bottom;
pos = (177,0);
},
{
name = top;
pos = (177,688);
}
);
layerId = m010;
shapes = (
{
closed = 1;
nodes = (
(245,0,l),
(350,688,l),
(267,688,l),
(179,68,l),
(175,68,l),
(87,688,l),
(4,688,l),
(108,0,l)
);
}
);
width = 354;
},
{
anchors = (
{
name = bottom;
pos = (393,0);
},
{
name = top;
pos = (393,688);
}
);
layerId = m011;
shapes = (
{
closed = 1;
nodes = (
(449,0,l),
(776,688,l),
(685,688,l),
(397,68,l),
(389,68,l),
(101,688,l),
(10,688,l),
(337,0,l)
);
}
);
width = 786;
},
{
anchors = (
{
name = bottom;
pos = (275,0);
},
{
name = top;
pos = (275,688);
}
);
guides = (
{
angle = -70.4551;
pos = (540,0);
}
);
layerId = m012;
shapes = (
{
closed = 1;
nodes = (
(290,0,l),
(540,688,l),
(453,688,l),
(240,88,l),
(234,88,l),
(21,688,l),
(10,688,l),
(255,0,l)
);
}
);
width = 550;
},
{
anchors = (
{
name = bottom;
pos = (392,0);
},
{
name = top;
pos = (392,688);
}
);
layerId = m013;
shapes = (
{
closed = 1;
nodes = (
(507,0,l),
(774,688,l),
(687,688,l),
(474,128,l),
(468,128,l),
(255,688,l),
(10,688,l),
(275,0,l)
);
}
);
width = 784;
},
{
anchors = (
{
name = bottom;
pos = (275,0);
},
{
name = top;
pos = (275,688);
}
);
layerId = m014;
shapes = (
{
closed = 1;
nodes = (
(295,0,l),
(540,688,l),
(529,688,l),
(316,88,l),
(310,88,l),
(97,688,l),
(10,688,l),
(260,0,l)
);
}
);
width = 550;
},
{
anchors = (
{
name = bottom;
pos = (392,0);
},
{
name = top;
pos = (392,688);
}
);
layerId = m015;
shapes = (
{
closed = 1;
nodes = (
(509,0,l),
(774,688,l),
(529,688,l),
(316,128,l),
(310,128,l),
(97,688,l),
(10,688,l),
(277,0,l)
);
}
);
width = 784;
},
{
anchors = (
{
name = bottom;
pos = (362,0);
},
{
name = top;
pos = (362,688);
}
);
background = {
shapes = (
{
closed = 1;
nodes = (
(433,119,l),
(462,0,l),
(694,0,l),
(503,688,l),
(178,688,l),
(-13,0,l),
(214,0,l),
(332,500,l),
(341,500,l),
(398,263,l),
(260,263,l),
(218,87,l)
);
}
);
};
layerId = "4F93A97B-747D-4721-B098-38A63C534D7A";
shapes = (
{
closed = 1;
nodes = (
(530,0,l),
(718,688,l),
(499,688,l),
(365,178,l),
(359,178,l),
(225,688,l),
(6,688,l),
(194,0,l)
);
}
);
width = 724;
},
{
anchors = (
{
name = bottom;
pos = (314,0);
},
{
name = top;
pos = (314,688);
}
);
layerId = m016;
shapes = (
{
closed = 1;
nodes = (
(367,0,l),
(617,688,l),
(530,688,l),
(316,88,l),
(312,88,l),
(98,688,l),
(11,688,l),
(261,0,l)
);
}
);
width = 628;
}
);
metricLeft = "=H*.10";
metricRight = "=|";
unicode = 86;
},
{
glyphname = W;
kernLeft = V;
kernRight = V;
layers = (
{
anchors = (
{
name = bottom;
pos = (493.63,0);
},
{
name = top;
pos = (493.63,688);
}
);
layerId = m009;
shapes = (
{
closed = 1;
nodes = (
(325.587,0,l),
(491.63,556.696,l),
(495.63,556.696,l),
(661.674,0,l),
(764.065,0,l),
(951.217,688,l),
(864.761,688,l),
(715.826,111.739,l),
(710.37,111.739,l),
(540.804,688,l),
(450.63,688,l),
(282.696,111.739,l),
(277.239,111.739,l),
(123.957,688,l),
(36.043,688,l),
(223.196,0,l)
);
}
);
width = 987.26087;
},
{
anchors = (
{
name = bottom;
pos = (493.63,0);
},
{
name = top;
pos = (493.63,688);
}
);
layerId = m010;
shapes = (
{
closed = 1;
nodes = (
(325.587,0,l),
(491.63,556.696,l),
(495.63,556.696,l),
(661.674,0,l),
(764.065,0,l),
(951.217,688,l),
(864.761,688,l),
(715.826,111.739,l),
(710.37,111.739,l),
(540.804,688,l),
(450.63,688,l),
(282.696,111.739,l),
(277.239,111.739,l),
(123.957,688,l),
(36.043,688,l),
(223.196,0,l)
);
}
);
width = 987.26087;
},
{
anchors = (
{
name = bottom;
pos = (493.63,0);
},
{
name = top;
pos = (493.63,688);
}
);
layerId = m011;
shapes = (
{
closed = 1;
nodes = (
(325.587,0,l),
(491.63,556.696,l),
(495.63,556.696,l),
(661.674,0,l),
(764.065,0,l),
(951.217,688,l),
(864.761,688,l),
(715.826,111.739,l),
(710.37,111.739,l),
(540.804,688,l),
(450.63,688,l),
(282.696,111.739,l),
(277.239,111.739,l),
(123.957,688,l),
(36.043,688,l),
(223.196,0,l)
);
}
);
width = 987.26087;
},
{
anchors = (
{
name = bottom;
pos = (493.63,0);
},
{
name = top;
pos = (493.63,688);
}
);
layerId = m012;
shapes = (
{
closed = 1;
nodes = (
(325.587,0,l),
(491.63,556.696,l),
(495.63,556.696,l),
(661.674,0,l),
(764.065,0,l),
(951.217,688,l),
(864.761,688,l),
(715.826,111.739,l),
(710.37,111.739,l),
(540.804,688,l),
(450.63,688,l),
(282.696,111.739,l),
(277.239,111.739,l),
(123.957,688,l),
(36.043,688,l),
(223.196,0,l)
);
}
);
width = 987.26087;
},
{
anchors = (
{
name = bottom;
pos = (493.63,0);
},
{
name = top;
pos = (493.63,688);
}
);
layerId = m013;
shapes = (
{
closed = 1;
nodes = (
(325.587,0,l),
(491.63,556.696,l),
(495.63,556.696,l),
(661.674,0,l),
(764.065,0,l),
(951.217,688,l),
(864.761,688,l),
(715.826,111.739,l),
(710.37,111.739,l),
(540.804,688,l),
(450.63,688,l),
(282.696,111.739,l),
(277.239,111.739,l),
(123.957,688,l),
(36.043,688,l),
(223.196,0,l)
);
}
);
width = 987.26087;
},
{
anchors = (
{
name = bottom;
pos = (493.63,0);
},
{
name = top;
pos = (493.63,688);
}
);
layerId = m014;
shapes = (
{
closed = 1;
nodes = (
(325.587,0,l),
(491.63,556.696,l),
(495.63,556.696,l),
(661.674,0,l),
(764.065,0,l),
(951.217,688,l),
(864.761,688,l),
(715.826,111.739,l),
(710.37,111.739,l),
(540.804,688,l),
(450.63,688,l),
(282.696,111.739,l),
(277.239,111.739,l),
(123.957,688,l),
(36.043,688,l),
(223.196,0,l)
);
}
);
width = 987.26087;
},
{
anchors = (
{
name = bottom;
pos = (493.63,0);
},
{
name = top;
pos = (493.63,688);
}
);
layerId = m015;
shapes = (
{
closed = 1;
nodes = (
(325.587,0,l),
(491.63,556.696,l),
(495.63,556.696,l),
(661.674,0,l),
(764.065,0,l),
(951.217,688,l),
(864.761,688,l),
(715.826,111.739,l),
(710.37,111.739,l),
(540.804,688,l),
(450.63,688,l),
(282.696,111.739,l),
(277.239,111.739,l),
(123.957,688,l),
(36.043,688,l),
(223.196,0,l)
);
}
);
width = 987.26087;
},
{
anchors = (
{
name = bottom;
pos = (493,0);
},
{
name = top;
pos = (493,688);
}
);
layerId = "4F93A97B-747D-4721-B098-38A63C534D7A";
shapes = (
{
closed = 1;
nodes = (
(422,0,l),
(487,347,l),
(498,347,l),
(563,0,l),
(858,0,l),
(985,688,l),
(752,688,l),
(702,256,l),
(691,256,l),
(615,688,l),
(375,688,l),
(301,256,l),
(290,256,l),
(232,688,l),
(0,688,l),
(127,0,l)
);
}
);
width = 985;
},
{
anchors = (
{
name = bottom;
pos = (493.63,0);
},
{
name = top;
pos = (493.63,688);
}
);
layerId = m016;
shapes = (
{
closed = 1;
nodes = (
(325.587,0,l),
(491.63,556.696,l),
(495.63,556.696,l),
(661.674,0,l),
(764.065,0,l),
(951.217,688,l),
(864.761,688,l),
(715.826,111.739,l),
(710.37,111.739,l),
(540.804,688,l),
(450.63,688,l),
(282.696,111.739,l),
(277.239,111.739,l),
(123.957,688,l),
(36.043,688,l),
(223.196,0,l)
);
}
);
width = 987.26087;
}
);
unicode = 87;
},
{
glyphname = X;
kernLeft = X;
kernRight = X;
layers = (
{
anchors = (
{
name = bottom;
pos = (337.543,0);
},
{
name = top;
pos = (337.543,688);
}
);
layerId = m009;
shapes = (
{
closed = 1;
nodes = (
(127.478,0,l),
(331.913,276.043,l),
(339.913,276.043,l),
(543.891,0,l),
(645.413,0,l),
(389.978,347.543,l),
(642.413,688,l),
(543.522,688,l),
(342.63,417.674,l),
(335.087,417.674,l),
(134.652,688,l),
(33.13,688,l),
(285.109,345.457,l),
(29.13,0,l)
);
}
);
width = 674.54348;
},
{
anchors = (
{
name = bottom;
pos = (337.543,0);
},
{
name = top;
pos = (337.543,688);
}
);
layerId = m010;
shapes = (
{
closed = 1;
nodes = (
(127.478,0,l),
(331.913,276.043,l),
(339.913,276.043,l),
(543.891,0,l),
(645.413,0,l),
(389.978,347.543,l),
(642.413,688,l),
(543.522,688,l),
(342.63,417.674,l),
(335.087,417.674,l),
(134.652,688,l),
(33.13,688,l),
(285.109,345.457,l),
(29.13,0,l)
);
}
);
width = 674.54348;
},
{
anchors = (
{
name = bottom;
pos = (337.543,0);
},
{
name = top;
pos = (337.543,688);
}
);
layerId = m011;
shapes = (
{
closed = 1;
nodes = (
(127.478,0,l),
(331.913,276.043,l),
(339.913,276.043,l),
(543.891,0,l),
(645.413,0,l),
(389.978,347.543,l),
(642.413,688,l),
(543.522,688,l),
(342.63,417.674,l),
(335.087,417.674,l),
(134.652,688,l),
(33.13,688,l),
(285.109,345.457,l),
(29.13,0,l)
);
}
);
width = 674.54348;
},
{
anchors = (
{
name = bottom;
pos = (337.543,0);
},
{
name = top;
pos = (337.543,688);
}
);
layerId = m012;
shapes = (
{
closed = 1;
nodes = (
(127.478,0,l),
(331.913,276.043,l),
(339.913,276.043,l),
(543.891,0,l),
(645.413,0,l),
(389.978,347.543,l),
(642.413,688,l),
(543.522,688,l),
(342.63,417.674,l),
(335.087,417.674,l),
(134.652,688,l),
(33.13,688,l),
(285.109,345.457,l),
(29.13,0,l)
);
}
);
width = 674.54348;
},
{
anchors = (
{
name = bottom;
pos = (337.543,0);
},
{
name = top;
pos = (337.543,688);
}
);
layerId = m013;
shapes = (
{
closed = 1;
nodes = (
(127.478,0,l),
(331.913,276.043,l),
(339.913,276.043,l),
(543.891,0,l),
(645.413,0,l),
(389.978,347.543,l),
(642.413,688,l),
(543.522,688,l),
(342.63,417.674,l),
(335.087,417.674,l),
(134.652,688,l),
(33.13,688,l),
(285.109,345.457,l),
(29.13,0,l)
);
}
);
width = 674.54348;
},
{
anchors = (
{
name = bottom;
pos = (337.543,0);
},
{
name = top;
pos = (337.543,688);
}
);
layerId = m014;
shapes = (
{
closed = 1;
nodes = (
(127.478,0,l),
(331.913,276.043,l),
(339.913,276.043,l),
(543.891,0,l),
(645.413,0,l),
(389.978,347.543,l),
(642.413,688,l),
(543.522,688,l),
(342.63,417.674,l),
(335.087,417.674,l),
(134.652,688,l),
(33.13,688,l),
(285.109,345.457,l),
(29.13,0,l)
);
}
);
width = 674.54348;
},
{
anchors = (
{
name = bottom;
pos = (337.543,0);
},
{
name = top;
pos = (337.543,688);
}
);
layerId = m015;
shapes = (
{
closed = 1;
nodes = (
(127.478,0,l),
(331.913,276.043,l),
(339.913,276.043,l),
(543.891,0,l),
(645.413,0,l),
(389.978,347.543,l),
(642.413,688,l),
(543.522,688,l),
(342.63,417.674,l),
(335.087,417.674,l),
(134.652,688,l),
(33.13,688,l),
(285.109,345.457,l),
(29.13,0,l)
);
}
);
width = 674.54348;
},
{
anchors = (
{
name = bottom;
pos = (351,0);
},
{
name = top;
pos = (351,688);
}
);
layerId = "4F93A97B-747D-4721-B098-38A63C534D7A";
shapes = (
{
closed = 1;
nodes = (
(255,0,l),
(341,175,l),
(352,175,l),
(437,0,l),
(697,0,l),
(500,350,l),
(694,688,l),
(444,688,l),
(359,516,l),
(350,516,l),
(269,688,l),
(9,688,l),
(203,346,l),
(5,0,l)
);
}
);
width = 702;
},
{
anchors = (
{
name = bottom;
pos = (337.543,0);
},
{
name = top;
pos = (337.543,688);
}
);
layerId = m016;
shapes = (
{
closed = 1;
nodes = (
(127.478,0,l),
(331.913,276.043,l),
(339.913,276.043,l),
(543.891,0,l),
(645.413,0,l),
(389.978,347.543,l),
(642.413,688,l),
(543.522,688,l),
(342.63,417.674,l),
(335.087,417.674,l),
(134.652,688,l),
(33.13,688,l),
(285.109,345.457,l),
(29.13,0,l)
);
}
);
width = 674.54348;
}
);
unicode = 88;
},
{
glyphname = Y;
kernLeft = Y;
kernRight = Y;
layers = (
{
anchors = (
{
name = bottom;
pos = (304.891,0);
},
{
name = top;
pos = (304.891,688);
},
{
name = topleft;
pos = (11.848,688);
}
);
layerId = m009;
shapes = (
{
closed = 1;
nodes = (
(346.891,0,l),
(346.891,262.522,l),
(596.935,688,l),
(507.022,688,l),
(309.522,348.891,l),
(302.522,348.891,l),
(104.391,688,l),
(11.848,688,l),
(260.891,262.522,l),
(260.891,0,l)
);
}
);
width = 609.32609;
},
{
anchors = (
{
name = bottom;
pos = (304.891,0);
},
{
name = top;
pos = (304.891,688);
},
{
name = topleft;
pos = (11.848,688);
}
);
layerId = m010;
shapes = (
{
closed = 1;
nodes = (
(346.891,0,l),
(346.891,262.522,l),
(596.935,688,l),
(507.022,688,l),
(309.522,348.891,l),
(302.522,348.891,l),
(104.391,688,l),
(11.848,688,l),
(260.891,262.522,l),
(260.891,0,l)
);
}
);
width = 609.32609;
},
{
anchors = (
{
name = bottom;
pos = (304.891,0);
},
{
name = top;
pos = (304.891,688);
},
{
name = topleft;
pos = (11.848,688);
}
);
layerId = m011;
shapes = (
{
closed = 1;
nodes = (
(346.891,0,l),
(346.891,262.522,l),
(596.935,688,l),
(507.022,688,l),
(309.522,348.891,l),
(302.522,348.891,l),
(104.391,688,l),
(11.848,688,l),
(260.891,262.522,l),
(260.891,0,l)
);
}
);
width = 609.32609;
},
{
anchors = (
{
name = bottom;
pos = (304.891,0);
},
{
name = top;
pos = (304.891,688);
},
{
name = topleft;
pos = (11.848,688);
}
);
layerId = m012;
shapes = (
{
closed = 1;
nodes = (
(346.891,0,l),
(346.891,262.522,l),
(596.935,688,l),
(507.022,688,l),
(309.522,348.891,l),
(302.522,348.891,l),
(104.391,688,l),
(11.848,688,l),
(260.891,262.522,l),
(260.891,0,l)
);
}
);
width = 609.32609;
},
{
anchors = (
{
name = bottom;
pos = (304.891,0);
},
{
name = top;
pos = (304.891,688);
},
{
name = topleft;
pos = (11.848,688);
}
);
layerId = m013;
shapes = (
{
closed = 1;
nodes = (
(346.891,0,l),
(346.891,262.522,l),
(596.935,688,l),
(507.022,688,l),
(309.522,348.891,l),
(302.522,348.891,l),
(104.391,688,l),
(11.848,688,l),
(260.891,262.522,l),
(260.891,0,l)
);
}
);
width = 609.32609;
},
{
anchors = (
{
name = bottom;
pos = (304.891,0);
},
{
name = top;
pos = (304.891,688);
},
{
name = topleft;
pos = (11.848,688);
}
);
layerId = m014;
shapes = (
{
closed = 1;
nodes = (
(346.891,0,l),
(346.891,262.522,l),
(596.935,688,l),
(507.022,688,l),
(309.522,348.891,l),
(302.522,348.891,l),
(104.391,688,l),
(11.848,688,l),
(260.891,262.522,l),
(260.891,0,l)
);
}
);
width = 609.32609;
},
{
anchors = (
{
name = bottom;
pos = (304.891,0);
},
{
name = top;
pos = (304.891,688);
},
{
name = topleft;
pos = (11.848,688);
}
);
layerId = m015;
shapes = (
{
closed = 1;
nodes = (
(346.891,0,l),
(346.891,262.522,l),
(596.935,688,l),
(507.022,688,l),
(309.522,348.891,l),
(302.522,348.891,l),
(104.391,688,l),
(11.848,688,l),
(260.891,262.522,l),
(260.891,0,l)
);
}
);
width = 609.32609;
},
{
anchors = (
{
name = bottom;
pos = (331,0);
},
{
name = top;
pos = (331,688);
},
{
name = topleft;
pos = (-3,688);
}
);
layerId = "4F93A97B-747D-4721-B098-38A63C534D7A";
shapes = (
{
closed = 1;
nodes = (
(448,0,l),
(448,222,l),
(665,688,l),
(432,688,l),
(337,432,l),
(330,432,l),
(235,688,l),
(-3,688,l),
(214,222,l),
(214,0,l)
);
}
);
width = 662;
},
{
anchors = (
{
name = bottom;
pos = (304.891,0);
},
{
name = top;
pos = (304.891,688);
},
{
name = topleft;
pos = (11.848,688);
}
);
layerId = m016;
shapes = (
{
closed = 1;
nodes = (
(346.891,0,l),
(346.891,262.522,l),
(596.935,688,l),
(507.022,688,l),
(309.522,348.891,l),
(302.522,348.891,l),
(104.391,688,l),
(11.848,688,l),
(260.891,262.522,l),
(260.891,0,l)
);
}
);
width = 609.32609;
}
);
unicode = 89;
},
{
glyphname = Z;
kernLeft = Z;
kernRight = Z;
layers = (
{
anchors = (
{
name = bottom;
pos = (303.174,0);
},
{
name = center;
pos = (303.174,344);
},
{
name = top;
pos = (303.174,688);
}
);
layerId = m009;
shapes = (
{
closed = 1;
nodes = (
(555.783,0,l),
(555.783,73.674,l),
(160.891,73.674,l),
(549.957,619.043,l),
(549.957,688,l),
(64.478,688,l),
(64.478,613.783,l),
(440.826,613.783,l),
(53.478,70.587,l),
(53.478,0,l)
);
}
);
width = 605.8913;
},
{
anchors = (
{
name = bottom;
pos = (303.174,0);
},
{
name = center;
pos = (303.174,344);
},
{
name = top;
pos = (303.174,688);
}
);
layerId = m010;
shapes = (
{
closed = 1;
nodes = (
(555.783,0,l),
(555.783,73.674,l),
(160.891,73.674,l),
(549.957,619.043,l),
(549.957,688,l),
(64.478,688,l),
(64.478,613.783,l),
(440.826,613.783,l),
(53.478,70.587,l),
(53.478,0,l)
);
}
);
width = 605.8913;
},
{
anchors = (
{
name = bottom;
pos = (303.174,0);
},
{
name = center;
pos = (303.174,344);
},
{
name = top;
pos = (303.174,688);
}
);
layerId = m011;
shapes = (
{
closed = 1;
nodes = (
(555.783,0,l),
(555.783,73.674,l),
(160.891,73.674,l),
(549.957,619.043,l),
(549.957,688,l),
(64.478,688,l),
(64.478,613.783,l),
(440.826,613.783,l),
(53.478,70.587,l),
(53.478,0,l)
);
}
);
width = 605.8913;
},
{
anchors = (
{
name = bottom;
pos = (303.174,0);
},
{
name = center;
pos = (303.174,344);
},
{
name = top;
pos = (303.174,688);
}
);
layerId = m012;
shapes = (
{
closed = 1;
nodes = (
(555.783,0,l),
(555.783,73.674,l),
(160.891,73.674,l),
(549.957,619.043,l),
(549.957,688,l),
(64.478,688,l),
(64.478,613.783,l),
(440.826,613.783,l),
(53.478,70.587,l),
(53.478,0,l)
);
}
);
width = 605.8913;
},
{
anchors = (
{
name = bottom;
pos = (303.174,0);
},
{
name = center;
pos = (303.174,344);
},
{
name = top;
pos = (303.174,688);
}
);
layerId = m013;
shapes = (
{
closed = 1;
nodes = (
(555.783,0,l),
(555.783,73.674,l),
(160.891,73.674,l),
(549.957,619.043,l),
(549.957,688,l),
(64.478,688,l),
(64.478,613.783,l),
(440.826,613.783,l),
(53.478,70.587,l),
(53.478,0,l)
);
}
);
width = 605.8913;
},
{
anchors = (
{
name = bottom;
pos = (303.174,0);
},
{
name = center;
pos = (303.174,344);
},
{
name = top;
pos = (303.174,688);
}
);
layerId = m014;
shapes = (
{
closed = 1;
nodes = (
(555.783,0,l),
(555.783,73.674,l),
(160.891,73.674,l),
(549.957,619.043,l),
(549.957,688,l),
(64.478,688,l),
(64.478,613.783,l),
(440.826,613.783,l),
(53.478,70.587,l),
(53.478,0,l)
);
}
);
width = 605.8913;
},
{
anchors = (
{
name = bottom;
pos = (303.174,0);
},
{
name = center;
pos = (303.174,344);
},
{
name = top;
pos = (303.174,688);
}
);
layerId = m015;
shapes = (
{
closed = 1;
nodes = (
(555.783,0,l),
(555.783,73.674,l),
(160.891,73.674,l),
(549.957,619.043,l),
(549.957,688,l),
(64.478,688,l),
(64.478,613.783,l),
(440.826,613.783,l),
(53.478,70.587,l),
(53.478,0,l)
);
}
);
width = 605.8913;
},
{
anchors = (
{
name = bottom;
pos = (310,0);
},
{
name = center;
pos = (310,344);
},
{
name = top;
pos = (310,688);
}
);
layerId = "4F93A97B-747D-4721-B098-38A63C534D7A";
shapes = (
{
closed = 1;
nodes = (
(581,0,l),
(581,167,l),
(318,167,l),
(582,532,l),
(582,688,l),
(49,688,l),
(49,521,l),
(298,521,l),
(38,161,l),
(38,0,l)
);
}
);
width = 620;
},
{
anchors = (
{
name = bottom;
pos = (303.174,0);
},
{
name = center;
pos = (303.174,344);
},
{
name = top;
pos = (303.174,688);
}
);
layerId = m016;
shapes = (
{
closed = 1;
nodes = (
(555.783,0,l),
(555.783,73.674,l),
(160.891,73.674,l),
(549.957,619.043,l),
(549.957,688,l),
(64.478,688,l),
(64.478,613.783,l),
(440.826,613.783,l),
(53.478,70.587,l),
(53.478,0,l)
);
}
);
width = 605.8913;
}
);
unicode = 90;
},
{
export = 0;
glyphname = AE;
kernLeft = A;
kernRight = E;
layers = (
{
anchors = (
{
name = bottom;
pos = (475.065,0);
},
{
name = top;
pos = (475.065,688);
}
);
layerId = m009;
shapes = (
{
closed = 1;
nodes = (
(79.848,0,l),
(171.109,188.304,l),
(480.239,188.304,l),
(530.304,0,l),
(898.152,0,l),
(898.152,74.217,l),
(601.239,74.217,l),
(536.413,310.348,l),
(851.152,310.348,l),
(851.152,384.565,l),
(518.261,384.565,l),
(455.435,613.783,l),
(898.152,613.783,l),
(898.152,688,l),
(327.913,688,l),
(-7.065,0,l)
);
},
{
closed = 1;
nodes = (
(368.348,599.5,l),
(373.348,599.5,l),
(462.174,262.522,l),
(205.413,262.522,l)
);
}
);
width = 954.6087;
},
{
anchors = (
{
name = bottom;
pos = (475.065,0);
},
{
name = top;
pos = (475.065,688);
}
);
layerId = m010;
shapes = (
{
closed = 1;
nodes = (
(79.848,0,l),
(171.109,188.304,l),
(480.239,188.304,l),
(530.304,0,l),
(898.152,0,l),
(898.152,74.217,l),
(601.239,74.217,l),
(536.413,310.348,l),
(851.152,310.348,l),
(851.152,384.565,l),
(518.261,384.565,l),
(455.435,613.783,l),
(898.152,613.783,l),
(898.152,688,l),
(327.913,688,l),
(-7.065,0,l)
);
},
{
closed = 1;
nodes = (
(368.348,599.5,l),
(373.348,599.5,l),
(462.174,262.522,l),
(205.413,262.522,l)
);
}
);
width = 954.6087;
},
{
anchors = (
{
name = bottom;
pos = (475.065,0);
},
{
name = top;
pos = (475.065,688);
}
);
layerId = m011;
shapes = (
{
closed = 1;
nodes = (
(79.848,0,l),
(171.109,188.304,l),
(480.239,188.304,l),
(530.304,0,l),
(898.152,0,l),
(898.152,74.217,l),
(601.239,74.217,l),
(536.413,310.348,l),
(851.152,310.348,l),
(851.152,384.565,l),
(518.261,384.565,l),
(455.435,613.783,l),
(898.152,613.783,l),
(898.152,688,l),
(327.913,688,l),
(-7.065,0,l)
);
},
{
closed = 1;
nodes = (
(368.348,599.5,l),
(373.348,599.5,l),
(462.174,262.522,l),
(205.413,262.522,l)
);
}
);
width = 954.6087;
},
{
anchors = (
{
name = bottom;
pos = (475.065,0);
},
{
name = top;
pos = (475.065,688);
}
);
layerId = m012;
shapes = (
{
closed = 1;
nodes = (
(79.848,0,l),
(171.109,188.304,l),
(480.239,188.304,l),
(530.304,0,l),
(898.152,0,l),
(898.152,74.217,l),
(601.239,74.217,l),
(536.413,310.348,l),
(851.152,310.348,l),
(851.152,384.565,l),
(518.261,384.565,l),
(455.435,613.783,l),
(898.152,613.783,l),
(898.152,688,l),
(327.913,688,l),
(-7.065,0,l)
);
},
{
closed = 1;
nodes = (
(368.348,599.5,l),
(373.348,599.5,l),
(462.174,262.522,l),
(205.413,262.522,l)
);
}
);
width = 954.6087;
},
{
anchors = (
{
name = bottom;
pos = (475.065,0);
},
{
name = top;
pos = (475.065,688);
}
);
layerId = m013;
shapes = (
{
closed = 1;
nodes = (
(79.848,0,l),
(171.109,188.304,l),
(480.239,188.304,l),
(530.304,0,l),
(898.152,0,l),
(898.152,74.217,l),
(601.239,74.217,l),
(536.413,310.348,l),
(851.152,310.348,l),
(851.152,384.565,l),
(518.261,384.565,l),
(455.435,613.783,l),
(898.152,613.783,l),
(898.152,688,l),
(327.913,688,l),
(-7.065,0,l)
);
},
{
closed = 1;
nodes = (
(368.348,599.5,l),
(373.348,599.5,l),
(462.174,262.522,l),
(205.413,262.522,l)
);
}
);
width = 954.6087;
},
{
anchors = (
{
name = bottom;
pos = (475.065,0);
},
{
name = top;
pos = (475.065,688);
}
);
layerId = m014;
shapes = (
{
closed = 1;
nodes = (
(79.848,0,l),
(171.109,188.304,l),
(480.239,188.304,l),
(530.304,0,l),
(898.152,0,l),
(898.152,74.217,l),
(601.239,74.217,l),
(536.413,310.348,l),
(851.152,310.348,l),
(851.152,384.565,l),
(518.261,384.565,l),
(455.435,613.783,l),
(898.152,613.783,l),
(898.152,688,l),
(327.913,688,l),
(-7.065,0,l)
);
},
{
closed = 1;
nodes = (
(368.348,599.5,l),
(373.348,599.5,l),
(462.174,262.522,l),
(205.413,262.522,l)
);
}
);
width = 954.6087;
},
{
anchors = (
{
name = bottom;
pos = (475.065,0);
},
{
name = top;
pos = (475.065,688);
}
);
layerId = m015;
shapes = (
{
closed = 1;
nodes = (
(79.848,0,l),
(171.109,188.304,l),
(480.239,188.304,l),
(530.304,0,l),
(898.152,0,l),
(898.152,74.217,l),
(601.239,74.217,l),
(536.413,310.348,l),
(851.152,310.348,l),
(851.152,384.565,l),
(518.261,384.565,l),
(455.435,613.783,l),
(898.152,613.783,l),
(898.152,688,l),
(327.913,688,l),
(-7.065,0,l)
);
},
{
closed = 1;
nodes = (
(368.348,599.5,l),
(373.348,599.5,l),
(462.174,262.522,l),
(205.413,262.522,l)
);
}
);
width = 954.6087;
},
{
anchors = (
{
name = bottom;
pos = (490,0);
},
{
name = top;
pos = (490,688);
}
);
layerId = "4F93A97B-747D-4721-B098-38A63C534D7A";
shapes = (
{
closed = 1;
nodes = (
(202,0,l),
(242,106,l),
(445,106,l),
(455,0,l),
(932,0,l),
(932,167,l),
(646,167,l),
(636,266,l),
(885,266,l),
(885,429,l),
(618,429,l),
(609,521,l),
(932,521,l),
(932,688,l),
(284,688,l),
(-25,0,l)
);
},
{
closed = 1;
nodes = (
(400,521,l),
(409,521,l),
(431,266,l),
(303,266,l)
);
}
);
width = 980;
},
{
anchors = (
{
name = bottom;
pos = (475.065,0);
},
{
name = top;
pos = (475.065,688);
}
);
layerId = m016;
shapes = (
{
closed = 1;
nodes = (
(79.848,0,l),
(171.109,188.304,l),
(480.239,188.304,l),
(530.304,0,l),
(898.152,0,l),
(898.152,74.217,l),
(601.239,74.217,l),
(536.413,310.348,l),
(851.152,310.348,l),
(851.152,384.565,l),
(518.261,384.565,l),
(455.435,613.783,l),
(898.152,613.783,l),
(898.152,688,l),
(327.913,688,l),
(-7.065,0,l)
);
},
{
closed = 1;
nodes = (
(368.348,599.5,l),
(373.348,599.5,l),
(462.174,262.522,l),
(205.413,262.522,l)
);
}
);
width = 954.6087;
}
);
unicode = 198;
},
{
export = 0;
glyphname = Eth;
kernLeft = H;
kernRight = O;
layers = (
{
layerId = m009;
shapes = (
{
closed = 1;
nodes = (
(318.37,0,ls),
(598.5,0,o),
(611.696,52.13,o),
(611.696,344,cs),
(611.696,635.87,o),
(598.5,688,o),
(318.37,688,cs),
(99.783,688,l),
(99.783,383.304,l),
(31.413,383.304,l),
(31.413,313.609,l),
(99.783,313.609,l),
(99.783,0,l)
);
},
{
closed = 1;
nodes = (
(185.783,313.609,l),
(295.761,313.609,l),
(295.761,383.304,l),
(185.783,383.304,l),
(185.783,613.783,l),
(304.348,613.783,ls),
(512.043,613.783,o),
(525.696,609.957,o),
(525.696,344,cs),
(525.696,77.5,o),
(514.957,74.217,o),
(304.348,74.217,cs),
(185.783,74.217,l)
);
}
);
width = 688.65217;
},
{
layerId = m010;
shapes = (
{
closed = 1;
nodes = (
(318.37,0,ls),
(598.5,0,o),
(611.696,52.13,o),
(611.696,344,cs),
(611.696,635.87,o),
(598.5,688,o),
(318.37,688,cs),
(99.783,688,l),
(99.783,383.304,l),
(31.413,383.304,l),
(31.413,313.609,l),
(99.783,313.609,l),
(99.783,0,l)
);
},
{
closed = 1;
nodes = (
(185.783,313.609,l),
(295.761,313.609,l),
(295.761,383.304,l),
(185.783,383.304,l),
(185.783,613.783,l),
(304.348,613.783,ls),
(512.043,613.783,o),
(525.696,609.957,o),
(525.696,344,cs),
(525.696,77.5,o),
(514.957,74.217,o),
(304.348,74.217,cs),
(185.783,74.217,l)
);
}
);
width = 688.65217;
},
{
layerId = m011;
shapes = (
{
closed = 1;
nodes = (
(318.37,0,ls),
(598.5,0,o),
(611.696,52.13,o),
(611.696,344,cs),
(611.696,635.87,o),
(598.5,688,o),
(318.37,688,cs),
(99.783,688,l),
(99.783,383.304,l),
(31.413,383.304,l),
(31.413,313.609,l),
(99.783,313.609,l),
(99.783,0,l)
);
},
{
closed = 1;
nodes = (
(185.783,313.609,l),
(295.761,313.609,l),
(295.761,383.304,l),
(185.783,383.304,l),
(185.783,613.783,l),
(304.348,613.783,ls),
(512.043,613.783,o),
(525.696,609.957,o),
(525.696,344,cs),
(525.696,77.5,o),
(514.957,74.217,o),
(304.348,74.217,cs),
(185.783,74.217,l)
);
}
);
width = 688.65217;
},
{
layerId = m012;
shapes = (
{
closed = 1;
nodes = (
(318.37,0,ls),
(598.5,0,o),
(611.696,52.13,o),
(611.696,344,cs),
(611.696,635.87,o),
(598.5,688,o),
(318.37,688,cs),
(99.783,688,l),
(99.783,383.304,l),
(31.413,383.304,l),
(31.413,313.609,l),
(99.783,313.609,l),
(99.783,0,l)
);
},
{
closed = 1;
nodes = (
(185.783,313.609,l),
(295.761,313.609,l),
(295.761,383.304,l),
(185.783,383.304,l),
(185.783,613.783,l),
(304.348,613.783,ls),
(512.043,613.783,o),
(525.696,609.957,o),
(525.696,344,cs),
(525.696,77.5,o),
(514.957,74.217,o),
(304.348,74.217,cs),
(185.783,74.217,l)
);
}
);
width = 688.65217;
},
{
layerId = m013;
shapes = (
{
closed = 1;
nodes = (
(318.37,0,ls),
(598.5,0,o),
(611.696,52.13,o),
(611.696,344,cs),
(611.696,635.87,o),
(598.5,688,o),
(318.37,688,cs),
(99.783,688,l),
(99.783,383.304,l),
(31.413,383.304,l),
(31.413,313.609,l),
(99.783,313.609,l),
(99.783,0,l)
);
},
{
closed = 1;
nodes = (
(185.783,313.609,l),
(295.761,313.609,l),
(295.761,383.304,l),
(185.783,383.304,l),
(185.783,613.783,l),
(304.348,613.783,ls),
(512.043,613.783,o),
(525.696,609.957,o),
(525.696,344,cs),
(525.696,77.5,o),
(514.957,74.217,o),
(304.348,74.217,cs),
(185.783,74.217,l)
);
}
);
width = 688.65217;
},
{
layerId = m014;
shapes = (
{
closed = 1;
nodes = (
(318.37,0,ls),
(598.5,0,o),
(611.696,52.13,o),
(611.696,344,cs),
(611.696,635.87,o),
(598.5,688,o),
(318.37,688,cs),
(99.783,688,l),
(99.783,383.304,l),
(31.413,383.304,l),
(31.413,313.609,l),
(99.783,313.609,l),
(99.783,0,l)
);
},
{
closed = 1;
nodes = (
(185.783,313.609,l),
(295.761,313.609,l),
(295.761,383.304,l),
(185.783,383.304,l),
(185.783,613.783,l),
(304.348,613.783,ls),
(512.043,613.783,o),
(525.696,609.957,o),
(525.696,344,cs),
(525.696,77.5,o),
(514.957,74.217,o),
(304.348,74.217,cs),
(185.783,74.217,l)
);
}
);
width = 688.65217;
},
{
layerId = m015;
shapes = (
{
closed = 1;
nodes = (
(318.37,0,ls),
(598.5,0,o),
(611.696,52.13,o),
(611.696,344,cs),
(611.696,635.87,o),
(598.5,688,o),
(318.37,688,cs),
(99.783,688,l),
(99.783,383.304,l),
(31.413,383.304,l),
(31.413,313.609,l),
(99.783,313.609,l),
(99.783,0,l)
);
},
{
closed = 1;
nodes = (
(185.783,313.609,l),
(295.761,313.609,l),
(295.761,383.304,l),
(185.783,383.304,l),
(185.783,613.783,l),
(304.348,613.783,ls),
(512.043,613.783,o),
(525.696,609.957,o),
(525.696,344,cs),
(525.696,77.5,o),
(514.957,74.217,o),
(304.348,74.217,cs),
(185.783,74.217,l)
);
}
);
width = 688.65217;
},
{
layerId = "4F93A97B-747D-4721-B098-38A63C534D7A";
shapes = (
{
closed = 1;
nodes = (
(306,0,ls),
(625,0,o),
(628,72,o),
(628,344,cs),
(628,616,o),
(625,688,o),
(306,688,c),
(51,688,l),
(51,417,l),
(-9,417,l),
(-9,280,l),
(51,280,l),
(51,0,l)
);
},
{
closed = 1;
nodes = (
(285,280,l),
(347,280,l),
(347,417,l),
(285,417,l),
(285,521,l),
(309,521,ls),
(393,521,o),
(393,516,o),
(393,343,cs),
(393,174,o),
(393,167,o),
(309,167,cs),
(285,167,l)
);
}
);
width = 670;
},
{
layerId = m016;
shapes = (
{
closed = 1;
nodes = (
(318.37,0,ls),
(598.5,0,o),
(611.696,52.13,o),
(611.696,344,cs),
(611.696,635.87,o),
(598.5,688,o),
(318.37,688,cs),
(99.783,688,l),
(99.783,383.304,l),
(31.413,383.304,l),
(31.413,313.609,l),
(99.783,313.609,l),
(99.783,0,l)
);
},
{
closed = 1;
nodes = (
(185.783,313.609,l),
(295.761,313.609,l),
(295.761,383.304,l),
(185.783,383.304,l),
(185.783,613.783,l),
(304.348,613.783,ls),
(512.043,613.783,o),
(525.696,609.957,o),
(525.696,344,cs),
(525.696,77.5,o),
(514.957,74.217,o),
(304.348,74.217,cs),
(185.783,74.217,l)
);
}
);
width = 688.65217;
}
);
unicode = 208;
},
{
export = 0;
glyphname = Schwa;
kernLeft = O;
kernRight = O;
layers = (
{
anchors = (
{
name = bottom;
pos = (348.652,0);
},
{
name = top;
pos = (348.652,688);
}
);
layerId = m009;
shapes = (
{
closed = 1;
nodes = (
(606.978,-8,o),
(620.348,48.935,o),
(620.348,344,cs),
(620.348,641.348,o),
(581.978,696,o),
(333.565,696,cs),
(276.478,696,o),
(201.391,689.087,o),
(154.304,678.717,c),
(154.304,607.217,l),
(197.13,615.957,o),
(262.326,621.783,o),
(311.609,621.783,cs),
(503.804,621.783,o),
(531.717,602.13,o),
(534.348,384.565,c),
(76.413,384.565,l),
(76.413,344,ls),
(76.413,48.935,o),
(89.239,-8,o),
(348.109,-8,cs)
);
},
{
closed = 1;
nodes = (
(181.152,66.217,o),
(163.957,71.13,o),
(162.413,310.348,c),
(534.348,310.348,l),
(532.804,71.13,o),
(515.065,66.217,o),
(348.109,66.217,cs)
);
}
);
width = 696.76087;
},
{
anchors = (
{
name = bottom;
pos = (348.652,0);
},
{
name = top;
pos = (348.652,688);
}
);
layerId = m010;
shapes = (
{
closed = 1;
nodes = (
(606.978,-8,o),
(620.348,48.935,o),
(620.348,344,cs),
(620.348,641.348,o),
(581.978,696,o),
(333.565,696,cs),
(276.478,696,o),
(201.391,689.087,o),
(154.304,678.717,c),
(154.304,607.217,l),
(197.13,615.957,o),
(262.326,621.783,o),
(311.609,621.783,cs),
(503.804,621.783,o),
(531.717,602.13,o),
(534.348,384.565,c),
(76.413,384.565,l),
(76.413,344,ls),
(76.413,48.935,o),
(89.239,-8,o),
(348.109,-8,cs)
);
},
{
closed = 1;
nodes = (
(181.152,66.217,o),
(163.957,71.13,o),
(162.413,310.348,c),
(534.348,310.348,l),
(532.804,71.13,o),
(515.065,66.217,o),
(348.109,66.217,cs)
);
}
);
width = 696.76087;
},
{
anchors = (
{
name = bottom;
pos = (348.652,0);
},
{
name = top;
pos = (348.652,688);
}
);
layerId = m011;
shapes = (
{
closed = 1;
nodes = (
(606.978,-8,o),
(620.348,48.935,o),
(620.348,344,cs),
(620.348,641.348,o),
(581.978,696,o),
(333.565,696,cs),
(276.478,696,o),
(201.391,689.087,o),
(154.304,678.717,c),
(154.304,607.217,l),
(197.13,615.957,o),
(262.326,621.783,o),
(311.609,621.783,cs),
(503.804,621.783,o),
(531.717,602.13,o),
(534.348,384.565,c),
(76.413,384.565,l),
(76.413,344,ls),
(76.413,48.935,o),
(89.239,-8,o),
(348.109,-8,cs)
);
},
{
closed = 1;
nodes = (
(181.152,66.217,o),
(163.957,71.13,o),
(162.413,310.348,c),
(534.348,310.348,l),
(532.804,71.13,o),
(515.065,66.217,o),
(348.109,66.217,cs)
);
}
);
width = 696.76087;
},
{
anchors = (
{
name = bottom;
pos = (348.652,0);
},
{
name = top;
pos = (348.652,688);
}
);
layerId = m012;
shapes = (
{
closed = 1;
nodes = (
(606.978,-8,o),
(620.348,48.935,o),
(620.348,344,cs),
(620.348,641.348,o),
(581.978,696,o),
(333.565,696,cs),
(276.478,696,o),
(201.391,689.087,o),
(154.304,678.717,c),
(154.304,607.217,l),
(197.13,615.957,o),
(262.326,621.783,o),
(311.609,621.783,cs),
(503.804,621.783,o),
(531.717,602.13,o),
(534.348,384.565,c),
(76.413,384.565,l),
(76.413,344,ls),
(76.413,48.935,o),
(89.239,-8,o),
(348.109,-8,cs)
);
},
{
closed = 1;
nodes = (
(181.152,66.217,o),
(163.957,71.13,o),
(162.413,310.348,c),
(534.348,310.348,l),
(532.804,71.13,o),
(515.065,66.217,o),
(348.109,66.217,cs)
);
}
);
width = 696.76087;
},
{
anchors = (
{
name = bottom;
pos = (348.652,0);
},
{
name = top;
pos = (348.652,688);
}
);
layerId = m013;
shapes = (
{
closed = 1;
nodes = (
(606.978,-8,o),
(620.348,48.935,o),
(620.348,344,cs),
(620.348,641.348,o),
(581.978,696,o),
(333.565,696,cs),
(276.478,696,o),
(201.391,689.087,o),
(154.304,678.717,c),
(154.304,607.217,l),
(197.13,615.957,o),
(262.326,621.783,o),
(311.609,621.783,cs),
(503.804,621.783,o),
(531.717,602.13,o),
(534.348,384.565,c),
(76.413,384.565,l),
(76.413,344,ls),
(76.413,48.935,o),
(89.239,-8,o),
(348.109,-8,cs)
);
},
{
closed = 1;
nodes = (
(181.152,66.217,o),
(163.957,71.13,o),
(162.413,310.348,c),
(534.348,310.348,l),
(532.804,71.13,o),
(515.065,66.217,o),
(348.109,66.217,cs)
);
}
);
width = 696.76087;
},
{
anchors = (
{
name = bottom;
pos = (348.652,0);
},
{
name = top;
pos = (348.652,688);
}
);
layerId = m014;
shapes = (
{
closed = 1;
nodes = (
(606.978,-8,o),
(620.348,48.935,o),
(620.348,344,cs),
(620.348,641.348,o),
(581.978,696,o),
(333.565,696,cs),
(276.478,696,o),
(201.391,689.087,o),
(154.304,678.717,c),
(154.304,607.217,l),
(197.13,615.957,o),
(262.326,621.783,o),
(311.609,621.783,cs),
(503.804,621.783,o),
(531.717,602.13,o),
(534.348,384.565,c),
(76.413,384.565,l),
(76.413,344,ls),
(76.413,48.935,o),
(89.239,-8,o),
(348.109,-8,cs)
);
},
{
closed = 1;
nodes = (
(181.152,66.217,o),
(163.957,71.13,o),
(162.413,310.348,c),
(534.348,310.348,l),
(532.804,71.13,o),
(515.065,66.217,o),
(348.109,66.217,cs)
);
}
);
width = 696.76087;
},
{
anchors = (
{
name = bottom;
pos = (348.652,0);
},
{
name = top;
pos = (348.652,688);
}
);
layerId = m015;
shapes = (
{
closed = 1;
nodes = (
(606.978,-8,o),
(620.348,48.935,o),
(620.348,344,cs),
(620.348,641.348,o),
(581.978,696,o),
(333.565,696,cs),
(276.478,696,o),
(201.391,689.087,o),
(154.304,678.717,c),
(154.304,607.217,l),
(197.13,615.957,o),
(262.326,621.783,o),
(311.609,621.783,cs),
(503.804,621.783,o),
(531.717,602.13,o),
(534.348,384.565,c),
(76.413,384.565,l),
(76.413,344,ls),
(76.413,48.935,o),
(89.239,-8,o),
(348.109,-8,cs)
);
},
{
closed = 1;
nodes = (
(181.152,66.217,o),
(163.957,71.13,o),
(162.413,310.348,c),
(534.348,310.348,l),
(532.804,71.13,o),
(515.065,66.217,o),
(348.109,66.217,cs)
);
}
);
width = 696.76087;
},
{
anchors = (
{
name = bottom;
pos = (348,0);
},
{
name = top;
pos = (348,688);
}
);
layerId = "4F93A97B-747D-4721-B098-38A63C534D7A";
shapes = (
{
closed = 1;
nodes = (
(639,-8,o),
(643,73,o),
(643,344,cs),
(643,614,o),
(608,696,o),
(313,696,cs),
(248,696,o),
(168,689,o),
(123,680,c),
(123,521,l),
(162,526,o),
(218,529,o),
(258,529,cs),
(378,529,o),
(402,519,o),
(407,429,c),
(42,429,l),
(42,344,ls),
(42,73,o),
(45,-8,o),
(337,-8,cs)
);
},
{
closed = 1;
nodes = (
(279,159,o),
(269,162,o),
(267,266,c),
(418,266,l),
(415,162,o),
(403,159,o),
(337,159,cs)
);
}
);
width = 695;
},
{
anchors = (
{
name = bottom;
pos = (348.652,0);
},
{
name = top;
pos = (348.652,688);
}
);
layerId = m016;
shapes = (
{
closed = 1;
nodes = (
(606.978,-8,o),
(620.348,48.935,o),
(620.348,344,cs),
(620.348,641.348,o),
(581.978,696,o),
(333.565,696,cs),
(276.478,696,o),
(201.391,689.087,o),
(154.304,678.717,c),
(154.304,607.217,l),
(197.13,615.957,o),
(262.326,621.783,o),
(311.609,621.783,cs),
(503.804,621.783,o),
(531.717,602.13,o),
(534.348,384.565,c),
(76.413,384.565,l),
(76.413,344,ls),
(76.413,48.935,o),
(89.239,-8,o),
(348.109,-8,cs)
);
},
{
closed = 1;
nodes = (
(181.152,66.217,o),
(163.957,71.13,o),
(162.413,310.348,c),
(534.348,310.348,l),
(532.804,71.13,o),
(515.065,66.217,o),
(348.109,66.217,cs)
);
}
);
width = 696.76087;
}
);
unicode = 399;
},
{
export = 0;
glyphname = Hbar;
kernLeft = H;
kernRight = H;
layers = (
{
layerId = m009;
shapes = (
{
closed = 1;
nodes = (
(185.783,0,l),
(185.783,277.848,l),
(545.696,277.848,l),
(545.696,0,l),
(631.696,0,l),
(631.696,688,l),
(545.696,688,l),
(545.696,551.739,l),
(185.783,551.739,l),
(185.783,688,l),
(99.783,688,l),
(99.783,0,l)
);
},
{
closed = 1;
nodes = (
(185.783,482.957,l),
(545.696,482.957,l),
(545.696,354.239,l),
(185.783,354.239,l)
);
}
);
width = 731.47826;
},
{
layerId = m010;
shapes = (
{
closed = 1;
nodes = (
(185.783,0,l),
(185.783,277.848,l),
(545.696,277.848,l),
(545.696,0,l),
(631.696,0,l),
(631.696,688,l),
(545.696,688,l),
(545.696,551.739,l),
(185.783,551.739,l),
(185.783,688,l),
(99.783,688,l),
(99.783,0,l)
);
},
{
closed = 1;
nodes = (
(185.783,482.957,l),
(545.696,482.957,l),
(545.696,354.239,l),
(185.783,354.239,l)
);
}
);
width = 731.47826;
},
{
layerId = m011;
shapes = (
{
closed = 1;
nodes = (
(185.783,0,l),
(185.783,277.848,l),
(545.696,277.848,l),
(545.696,0,l),
(631.696,0,l),
(631.696,688,l),
(545.696,688,l),
(545.696,551.739,l),
(185.783,551.739,l),
(185.783,688,l),
(99.783,688,l),
(99.783,0,l)
);
},
{
closed = 1;
nodes = (
(185.783,482.957,l),
(545.696,482.957,l),
(545.696,354.239,l),
(185.783,354.239,l)
);
}
);
width = 731.47826;
},
{
layerId = m012;
shapes = (
{
closed = 1;
nodes = (
(185.783,0,l),
(185.783,277.848,l),
(545.696,277.848,l),
(545.696,0,l),
(631.696,0,l),
(631.696,688,l),
(545.696,688,l),
(545.696,551.739,l),
(185.783,551.739,l),
(185.783,688,l),
(99.783,688,l),
(99.783,0,l)
);
},
{
closed = 1;
nodes = (
(185.783,482.957,l),
(545.696,482.957,l),
(545.696,354.239,l),
(185.783,354.239,l)
);
}
);
width = 731.47826;
},
{
layerId = m013;
shapes = (
{
closed = 1;
nodes = (
(185.783,0,l),
(185.783,277.848,l),
(545.696,277.848,l),
(545.696,0,l),
(631.696,0,l),
(631.696,688,l),
(545.696,688,l),
(545.696,551.739,l),
(185.783,551.739,l),
(185.783,688,l),
(99.783,688,l),
(99.783,0,l)
);
},
{
closed = 1;
nodes = (
(185.783,482.957,l),
(545.696,482.957,l),
(545.696,354.239,l),
(185.783,354.239,l)
);
}
);
width = 731.47826;
},
{
layerId = m014;
shapes = (
{
closed = 1;
nodes = (
(185.783,0,l),
(185.783,277.848,l),
(545.696,277.848,l),
(545.696,0,l),
(631.696,0,l),
(631.696,688,l),
(545.696,688,l),
(545.696,551.739,l),
(185.783,551.739,l),
(185.783,688,l),
(99.783,688,l),
(99.783,0,l)
);
},
{
closed = 1;
nodes = (
(185.783,482.957,l),
(545.696,482.957,l),
(545.696,354.239,l),
(185.783,354.239,l)
);
}
);
width = 731.47826;
},
{
layerId = m015;
shapes = (
{
closed = 1;
nodes = (
(185.783,0,l),
(185.783,277.848,l),
(545.696,277.848,l),
(545.696,0,l),
(631.696,0,l),
(631.696,688,l),
(545.696,688,l),
(545.696,551.739,l),
(185.783,551.739,l),
(185.783,688,l),
(99.783,688,l),
(99.783,0,l)
);
},
{
closed = 1;
nodes = (
(185.783,482.957,l),
(545.696,482.957,l),
(545.696,354.239,l),
(185.783,354.239,l)
);
}
);
width = 731.47826;
},
{
layerId = "4F93A97B-747D-4721-B098-38A63C534D7A";
shapes = (
{
closed = 1;
nodes = (
(285,0,l),
(285,211,l),
(412,211,l),
(412,0,l),
(646,0,l),
(646,688,l),
(412,688,l),
(412,611,l),
(285,611,l),
(285,688,l),
(51,688,l),
(51,0,l)
);
},
{
closed = 1;
nodes = (
(285,474,l),
(412,474,l),
(412,398,l),
(285,398,l)
);
}
);
width = 697;
},
{
layerId = m016;
shapes = (
{
closed = 1;
nodes = (
(185.783,0,l),
(185.783,277.848,l),
(545.696,277.848,l),
(545.696,0,l),
(631.696,0,l),
(631.696,688,l),
(545.696,688,l),
(545.696,551.739,l),
(185.783,551.739,l),
(185.783,688,l),
(99.783,688,l),
(99.783,0,l)
);
},
{
closed = 1;
nodes = (
(185.783,482.957,l),
(545.696,482.957,l),
(545.696,354.239,l),
(185.783,354.239,l)
);
}
);
width = 731.47826;
}
);
unicode = 294;
},
{
color = 3;
export = 0;
glyphname = Lslash;
kernLeft = H;
kernRight = L;
layers = (
{
layerId = m009;
shapes = (
{
closed = 1;
nodes = (
(375.413,391.761,l),
(375.413,458.913,l),
(35.674,333.13,l),
(35.674,265.978,l)
);
},
{
ref = L;
}
);
width = 537.63043;
},
{
layerId = m010;
shapes = (
{
closed = 1;
nodes = (
(375.413,391.761,l),
(375.413,458.913,l),
(35.674,333.13,l),
(35.674,265.978,l)
);
},
{
ref = L;
}
);
width = 537.63043;
},
{
layerId = m011;
shapes = (
{
closed = 1;
nodes = (
(375.413,391.761,l),
(375.413,458.913,l),
(35.674,333.13,l),
(35.674,265.978,l)
);
},
{
ref = L;
}
);
width = 537.63043;
},
{
layerId = m012;
shapes = (
{
closed = 1;
nodes = (
(375.413,391.761,l),
(375.413,458.913,l),
(35.674,333.13,l),
(35.674,265.978,l)
);
},
{
ref = L;
}
);
width = 537.63043;
},
{
layerId = m013;
shapes = (
{
closed = 1;
nodes = (
(375.413,391.761,l),
(375.413,458.913,l),
(35.674,333.13,l),
(35.674,265.978,l)
);
},
{
ref = L;
}
);
width = 537.63043;
},
{
layerId = m014;
shapes = (
{
closed = 1;
nodes = (
(375.413,391.761,l),
(375.413,458.913,l),
(35.674,333.13,l),
(35.674,265.978,l)
);
},
{
ref = L;
}
);
width = 537.63043;
},
{
layerId = m015;
shapes = (
{
closed = 1;
nodes = (
(375.413,391.761,l),
(375.413,458.913,l),
(35.674,333.13,l),
(35.674,265.978,l)
);
},
{
ref = L;
}
);
width = 537.63043;
},
{
layerId = "4F93A97B-747D-4721-B098-38A63C534D7A";
shapes = (
{
closed = 1;
nodes = (
(408,379,l),
(408,521,l),
(-1,372,l),
(-1,230,l)
);
},
{
ref = L;
}
);
width = 533;
},
{
layerId = m016;
shapes = (
{
closed = 1;
nodes = (
(375.413,391.761,l),
(375.413,458.913,l),
(35.674,333.13,l),
(35.674,265.978,l)
);
},
{
ref = L;
}
);
width = 537.63043;
}
);
metricRight = L;
unicode = 321;
},
{
export = 0;
glyphname = Nhookleft;
kernLeft = j;
kernRight = H;
layers = (
{
anchors = (
{
name = bottom;
pos = (365.739,0);
},
{
name = top;
pos = (365.739,688);
}
);
layerId = m009;
shapes = (
{
closed = 1;
nodes = (
(138.065,-200,o),
(182.609,-190.109,o),
(182.609,-62.783,cs),
(182.609,537.217,l),
(186.609,537.217,l),
(548.87,0,l),
(631.696,0,l),
(631.696,688,l),
(548.87,688,l),
(548.87,160.565,l),
(544.87,160.565,l),
(188.043,688,l),
(99.783,688,l),
(99.783,-80.935,ls),
(99.783,-123.761,o),
(92.413,-136.304,o),
(4.304,-136.304,c),
(4.304,-200,l)
);
}
);
width = 731.47826;
},
{
anchors = (
{
name = bottom;
pos = (365.739,0);
},
{
name = top;
pos = (365.739,688);
}
);
layerId = m010;
shapes = (
{
closed = 1;
nodes = (
(138.065,-200,o),
(182.609,-190.109,o),
(182.609,-62.783,cs),
(182.609,537.217,l),
(186.609,537.217,l),
(548.87,0,l),
(631.696,0,l),
(631.696,688,l),
(548.87,688,l),
(548.87,160.565,l),
(544.87,160.565,l),
(188.043,688,l),
(99.783,688,l),
(99.783,-80.935,ls),
(99.783,-123.761,o),
(92.413,-136.304,o),
(4.304,-136.304,c),
(4.304,-200,l)
);
}
);
width = 731.47826;
},
{
anchors = (
{
name = bottom;
pos = (365.739,0);
},
{
name = top;
pos = (365.739,688);
}
);
layerId = m011;
shapes = (
{
closed = 1;
nodes = (
(138.065,-200,o),
(182.609,-190.109,o),
(182.609,-62.783,cs),
(182.609,537.217,l),
(186.609,537.217,l),
(548.87,0,l),
(631.696,0,l),
(631.696,688,l),
(548.87,688,l),
(548.87,160.565,l),
(544.87,160.565,l),
(188.043,688,l),
(99.783,688,l),
(99.783,-80.935,ls),
(99.783,-123.761,o),
(92.413,-136.304,o),
(4.304,-136.304,c),
(4.304,-200,l)
);
}
);
width = 731.47826;
},
{
anchors = (
{
name = bottom;
pos = (365.739,0);
},
{
name = top;
pos = (365.739,688);
}
);
layerId = m012;
shapes = (
{
closed = 1;
nodes = (
(138.065,-200,o),
(182.609,-190.109,o),
(182.609,-62.783,cs),
(182.609,537.217,l),
(186.609,537.217,l),
(548.87,0,l),
(631.696,0,l),
(631.696,688,l),
(548.87,688,l),
(548.87,160.565,l),
(544.87,160.565,l),
(188.043,688,l),
(99.783,688,l),
(99.783,-80.935,ls),
(99.783,-123.761,o),
(92.413,-136.304,o),
(4.304,-136.304,c),
(4.304,-200,l)
);
}
);
width = 731.47826;
},
{
anchors = (
{
name = bottom;
pos = (365.739,0);
},
{
name = top;
pos = (365.739,688);
}
);
layerId = m013;
shapes = (
{
closed = 1;
nodes = (
(138.065,-200,o),
(182.609,-190.109,o),
(182.609,-62.783,cs),
(182.609,537.217,l),
(186.609,537.217,l),
(548.87,0,l),
(631.696,0,l),
(631.696,688,l),
(548.87,688,l),
(548.87,160.565,l),
(544.87,160.565,l),
(188.043,688,l),
(99.783,688,l),
(99.783,-80.935,ls),
(99.783,-123.761,o),
(92.413,-136.304,o),
(4.304,-136.304,c),
(4.304,-200,l)
);
}
);
width = 731.47826;
},
{
anchors = (
{
name = bottom;
pos = (365.739,0);
},
{
name = top;
pos = (365.739,688);
}
);
layerId = m014;
shapes = (
{
closed = 1;
nodes = (
(138.065,-200,o),
(182.609,-190.109,o),
(182.609,-62.783,cs),
(182.609,537.217,l),
(186.609,537.217,l),
(548.87,0,l),
(631.696,0,l),
(631.696,688,l),
(548.87,688,l),
(548.87,160.565,l),
(544.87,160.565,l),
(188.043,688,l),
(99.783,688,l),
(99.783,-80.935,ls),
(99.783,-123.761,o),
(92.413,-136.304,o),
(4.304,-136.304,c),
(4.304,-200,l)
);
}
);
width = 731.47826;
},
{
anchors = (
{
name = bottom;
pos = (365.739,0);
},
{
name = top;
pos = (365.739,688);
}
);
layerId = m015;
shapes = (
{
closed = 1;
nodes = (
(138.065,-200,o),
(182.609,-190.109,o),
(182.609,-62.783,cs),
(182.609,537.217,l),
(186.609,537.217,l),
(548.87,0,l),
(631.696,0,l),
(631.696,688,l),
(548.87,688,l),
(548.87,160.565,l),
(544.87,160.565,l),
(188.043,688,l),
(99.783,688,l),
(99.783,-80.935,ls),
(99.783,-123.761,o),
(92.413,-136.304,o),
(4.304,-136.304,c),
(4.304,-200,l)
);
}
);
width = 731.47826;
},
{
anchors = (
{
name = bottom;
pos = (353,0);
},
{
name = top;
pos = (353,688);
}
);
layerId = "4F93A97B-747D-4721-B098-38A63C534D7A";
shapes = (
{
closed = 1;
nodes = (
(230,-199,o),
(274,-179,o),
(274,37,cs),
(274,321,l),
(280,321,l),
(439,0,l),
(654,0,l),
(654,688,l),
(431,688,l),
(431,422,l),
(424,422,l),
(290,688,l),
(51,688,l),
(51,-10,ls),
(51,-45,o),
(48,-61,o),
(-21,-61,c),
(-21,-199,l)
);
}
);
width = 705;
},
{
anchors = (
{
name = bottom;
pos = (365.739,0);
},
{
name = top;
pos = (365.739,688);
}
);
layerId = m016;
shapes = (
{
closed = 1;
nodes = (
(138.065,-200,o),
(182.609,-190.109,o),
(182.609,-62.783,cs),
(182.609,537.217,l),
(186.609,537.217,l),
(548.87,0,l),
(631.696,0,l),
(631.696,688,l),
(548.87,688,l),
(548.87,160.565,l),
(544.87,160.565,l),
(188.043,688,l),
(99.783,688,l),
(99.783,-80.935,ls),
(99.783,-123.761,o),
(92.413,-136.304,o),
(4.304,-136.304,c),
(4.304,-200,l)
);
}
);
width = 731.47826;
}
);
metricRight = N;
unicode = 413;
},
{
export = 0;
glyphname = Eng;
kernLeft = H;
kernRight = H;
layers = (
{
layerId = m009;
shapes = (
{
closed = 1;
nodes = (
(587.152,-200,o),
(631.696,-190.109,o),
(631.696,-62.783,cs),
(631.696,688,l),
(548.87,688,l),
(548.87,160.565,l),
(544.87,160.565,l),
(188.043,688,l),
(99.783,688,l),
(99.783,0,l),
(182.609,0,l),
(182.609,537.217,l),
(186.609,537.217,l),
(548.87,0,l),
(548.87,-80.935,ls),
(548.87,-123.761,o),
(541.5,-136.304,o),
(453.391,-136.304,c),
(453.391,-200,l)
);
}
);
width = 731.47826;
},
{
layerId = m010;
shapes = (
{
closed = 1;
nodes = (
(587.152,-200,o),
(631.696,-190.109,o),
(631.696,-62.783,cs),
(631.696,688,l),
(548.87,688,l),
(548.87,160.565,l),
(544.87,160.565,l),
(188.043,688,l),
(99.783,688,l),
(99.783,0,l),
(182.609,0,l),
(182.609,537.217,l),
(186.609,537.217,l),
(548.87,0,l),
(548.87,-80.935,ls),
(548.87,-123.761,o),
(541.5,-136.304,o),
(453.391,-136.304,c),
(453.391,-200,l)
);
}
);
width = 731.47826;
},
{
layerId = m011;
shapes = (
{
closed = 1;
nodes = (
(587.152,-200,o),
(631.696,-190.109,o),
(631.696,-62.783,cs),
(631.696,688,l),
(548.87,688,l),
(548.87,160.565,l),
(544.87,160.565,l),
(188.043,688,l),
(99.783,688,l),
(99.783,0,l),
(182.609,0,l),
(182.609,537.217,l),
(186.609,537.217,l),
(548.87,0,l),
(548.87,-80.935,ls),
(548.87,-123.761,o),
(541.5,-136.304,o),
(453.391,-136.304,c),
(453.391,-200,l)
);
}
);
width = 731.47826;
},
{
layerId = m012;
shapes = (
{
closed = 1;
nodes = (
(587.152,-200,o),
(631.696,-190.109,o),
(631.696,-62.783,cs),
(631.696,688,l),
(548.87,688,l),
(548.87,160.565,l),
(544.87,160.565,l),
(188.043,688,l),
(99.783,688,l),
(99.783,0,l),
(182.609,0,l),
(182.609,537.217,l),
(186.609,537.217,l),
(548.87,0,l),
(548.87,-80.935,ls),
(548.87,-123.761,o),
(541.5,-136.304,o),
(453.391,-136.304,c),
(453.391,-200,l)
);
}
);
width = 731.47826;
},
{
layerId = m013;
shapes = (
{
closed = 1;
nodes = (
(587.152,-200,o),
(631.696,-190.109,o),
(631.696,-62.783,cs),
(631.696,688,l),
(548.87,688,l),
(548.87,160.565,l),
(544.87,160.565,l),
(188.043,688,l),
(99.783,688,l),
(99.783,0,l),
(182.609,0,l),
(182.609,537.217,l),
(186.609,537.217,l),
(548.87,0,l),
(548.87,-80.935,ls),
(548.87,-123.761,o),
(541.5,-136.304,o),
(453.391,-136.304,c),
(453.391,-200,l)
);
}
);
width = 731.47826;
},
{
layerId = m014;
shapes = (
{
closed = 1;
nodes = (
(587.152,-200,o),
(631.696,-190.109,o),
(631.696,-62.783,cs),
(631.696,688,l),
(548.87,688,l),
(548.87,160.565,l),
(544.87,160.565,l),
(188.043,688,l),
(99.783,688,l),
(99.783,0,l),
(182.609,0,l),
(182.609,537.217,l),
(186.609,537.217,l),
(548.87,0,l),
(548.87,-80.935,ls),
(548.87,-123.761,o),
(541.5,-136.304,o),
(453.391,-136.304,c),
(453.391,-200,l)
);
}
);
width = 731.47826;
},
{
layerId = m015;
shapes = (
{
closed = 1;
nodes = (
(587.152,-200,o),
(631.696,-190.109,o),
(631.696,-62.783,cs),
(631.696,688,l),
(548.87,688,l),
(548.87,160.565,l),
(544.87,160.565,l),
(188.043,688,l),
(99.783,688,l),
(99.783,0,l),
(182.609,0,l),
(182.609,537.217,l),
(186.609,537.217,l),
(548.87,0,l),
(548.87,-80.935,ls),
(548.87,-123.761,o),
(541.5,-136.304,o),
(453.391,-136.304,c),
(453.391,-200,l)
);
}
);
width = 731.47826;
},
{
layerId = "4F93A97B-747D-4721-B098-38A63C534D7A";
shapes = (
{
closed = 1;
nodes = (
(610,-199,o),
(654,-179,o),
(654,37,cs),
(654,688,l),
(431,688,l),
(431,422,l),
(424,422,l),
(290,688,l),
(51,688,l),
(51,0,l),
(274,0,l),
(274,321,l),
(280,321,l),
(431,16,l),
(431,-10,ls),
(431,-45,o),
(428,-61,o),
(359,-61,c),
(359,-199,l)
);
}
);
width = 705;
},
{
layerId = m016;
shapes = (
{
closed = 1;
nodes = (
(587.152,-200,o),
(631.696,-190.109,o),
(631.696,-62.783,cs),
(631.696,688,l),
(548.87,688,l),
(548.87,160.565,l),
(544.87,160.565,l),
(188.043,688,l),
(99.783,688,l),
(99.783,0,l),
(182.609,0,l),
(182.609,537.217,l),
(186.609,537.217,l),
(548.87,0,l),
(548.87,-80.935,ls),
(548.87,-123.761,o),
(541.5,-136.304,o),
(453.391,-136.304,c),
(453.391,-200,l)
);
}
);
width = 731.47826;
}
);
unicode = 330;
},
{
color = 3;
export = 0;
glyphname = Ohorn;
kernLeft = O;
kernRight = O;
layers = (
{
anchors = (
{
name = _topright;
pos = (475.804,688);
},
{
name = bottom;
pos = (358.652,0);
},
{
name = top;
pos = (358.652,688);
},
{
name = topright;
pos = (475.804,782.196);
}
);
layerId = m009;
shapes = (
{
closed = 1;
nodes = (
(541.87,648.587,ls),
(639.304,648.587,o),
(656.935,671.848,o),
(656.935,758.543,cs),
(656.935,782.196,l),
(597.848,782.196,l),
(597.848,751,ls),
(597.848,702,o),
(591.761,688,o),
(541.87,688,cs),
(475.804,688,l),
(475.804,648.587,l)
);
},
{
ref = O;
}
);
width = 716.76087;
},
{
anchors = (
{
name = _topright;
pos = (475.804,688);
},
{
name = bottom;
pos = (358.652,0);
},
{
name = top;
pos = (358.652,688);
},
{
name = topright;
pos = (475.804,782.196);
}
);
layerId = m010;
shapes = (
{
closed = 1;
nodes = (
(541.87,648.587,ls),
(639.304,648.587,o),
(656.935,671.848,o),
(656.935,758.543,cs),
(656.935,782.196,l),
(597.848,782.196,l),
(597.848,751,ls),
(597.848,702,o),
(591.761,688,o),
(541.87,688,cs),
(475.804,688,l),
(475.804,648.587,l)
);
},
{
ref = O;
}
);
width = 716.76087;
},
{
anchors = (
{
name = _topright;
pos = (475.804,688);
},
{
name = bottom;
pos = (358.652,0);
},
{
name = top;
pos = (358.652,688);
},
{
name = topright;
pos = (475.804,782.196);
}
);
layerId = m011;
shapes = (
{
closed = 1;
nodes = (
(541.87,648.587,ls),
(639.304,648.587,o),
(656.935,671.848,o),
(656.935,758.543,cs),
(656.935,782.196,l),
(597.848,782.196,l),
(597.848,751,ls),
(597.848,702,o),
(591.761,688,o),
(541.87,688,cs),
(475.804,688,l),
(475.804,648.587,l)
);
},
{
ref = O;
}
);
width = 716.76087;
},
{
anchors = (
{
name = _topright;
pos = (475.804,688);
},
{
name = bottom;
pos = (358.652,0);
},
{
name = top;
pos = (358.652,688);
},
{
name = topright;
pos = (475.804,782.196);
}
);
layerId = m012;
shapes = (
{
closed = 1;
nodes = (
(541.87,648.587,ls),
(639.304,648.587,o),
(656.935,671.848,o),
(656.935,758.543,cs),
(656.935,782.196,l),
(597.848,782.196,l),
(597.848,751,ls),
(597.848,702,o),
(591.761,688,o),
(541.87,688,cs),
(475.804,688,l),
(475.804,648.587,l)
);
},
{
ref = O;
}
);
width = 716.76087;
},
{
anchors = (
{
name = _topright;
pos = (475.804,688);
},
{
name = bottom;
pos = (358.652,0);
},
{
name = top;
pos = (358.652,688);
},
{
name = topright;
pos = (475.804,782.196);
}
);
layerId = m013;
shapes = (
{
closed = 1;
nodes = (
(541.87,648.587,ls),
(639.304,648.587,o),
(656.935,671.848,o),
(656.935,758.543,cs),
(656.935,782.196,l),
(597.848,782.196,l),
(597.848,751,ls),
(597.848,702,o),
(591.761,688,o),
(541.87,688,cs),
(475.804,688,l),
(475.804,648.587,l)
);
},
{
ref = O;
}
);
width = 716.76087;
},
{
anchors = (
{
name = _topright;
pos = (475.804,688);
},
{
name = bottom;
pos = (358.652,0);
},
{
name = top;
pos = (358.652,688);
},
{
name = topright;
pos = (475.804,782.196);
}
);
layerId = m014;
shapes = (
{
closed = 1;
nodes = (
(541.87,648.587,ls),
(639.304,648.587,o),
(656.935,671.848,o),
(656.935,758.543,cs),
(656.935,782.196,l),
(597.848,782.196,l),
(597.848,751,ls),
(597.848,702,o),
(591.761,688,o),
(541.87,688,cs),
(475.804,688,l),
(475.804,648.587,l)
);
},
{
ref = O;
}
);
width = 716.76087;
},
{
anchors = (
{
name = _topright;
pos = (475.804,688);
},
{
name = bottom;
pos = (358.652,0);
},
{
name = top;
pos = (358.652,688);
},
{
name = topright;
pos = (475.804,782.196);
}
);
layerId = m015;
shapes = (
{
closed = 1;
nodes = (
(541.87,648.587,ls),
(639.304,648.587,o),
(656.935,671.848,o),
(656.935,758.543,cs),
(656.935,782.196,l),
(597.848,782.196,l),
(597.848,751,ls),
(597.848,702,o),
(591.761,688,o),
(541.87,688,cs),
(475.804,688,l),
(475.804,648.587,l)
);
},
{
ref = O;
}
);
width = 716.76087;
},
{
anchors = (
{
name = _topright;
pos = (460,688);
},
{
name = bottom;
pos = (348,0);
},
{
name = top;
pos = (348,688);
},
{
name = topright;
pos = (460,776);
}
);
layerId = "4F93A97B-747D-4721-B098-38A63C534D7A";
shapes = (
{
closed = 1;
nodes = (
(486,616,ls),
(669,616,o),
(691,649,o),
(691,763,cs),
(691,776,l),
(556,776,l),
(556,754,ls),
(556,704,o),
(549,688,o),
(486,688,cs),
(460,688,l),
(460,616,l)
);
},
{
ref = O;
}
);
width = 695;
},
{
anchors = (
{
name = _topright;
pos = (475.804,688);
},
{
name = bottom;
pos = (358.652,0);
},
{
name = top;
pos = (358.652,688);
},
{
name = topright;
pos = (475.804,782.196);
}
);
layerId = m016;
shapes = (
{
closed = 1;
nodes = (
(541.87,648.587,ls),
(639.304,648.587,o),
(656.935,671.848,o),
(656.935,758.543,cs),
(656.935,782.196,l),
(597.848,782.196,l),
(597.848,751,ls),
(597.848,702,o),
(591.761,688,o),
(541.87,688,cs),
(475.804,688,l),
(475.804,648.587,l)
);
},
{
ref = O;
}
);
width = 716.76087;
}
);
unicode = 416;
},
{
color = 3;
export = 0;
glyphname = Oslash;
kernLeft = O;
kernRight = O;
layers = (
{
anchors = (
{
name = bottom;
pos = (360.283,0);
},
{
name = top;
pos = (360.283,688);
}
);
layerId = m009;
name = "[86]";
shapes = (
{
closed = 1;
nodes = (
(587.087,654.957,l),
(622.457,743,l),
(546.804,703.283,l),
(520.174,631.565,l)
);
},
{
closed = 1;
nodes = (
(147.652,-55,l),
(213.065,52.283,l),
(158.804,72.087,l),
(80.761,-55,l)
);
},
{
alignment = -1;
attr = {
identifier = C89C2D6D;
};
ref = O;
}
);
width = 716.76087;
},
{
anchors = (
{
name = bottom;
pos = (360.283,0);
},
{
name = top;
pos = (360.283,688);
}
);
layerId = m010;
name = "[86]";
shapes = (
{
closed = 1;
nodes = (
(587.087,654.957,l),
(622.457,743,l),
(546.804,703.283,l),
(520.174,631.565,l)
);
},
{
closed = 1;
nodes = (
(147.652,-55,l),
(213.065,52.283,l),
(158.804,72.087,l),
(80.761,-55,l)
);
},
{
alignment = -1;
attr = {
identifier = FBEA7DCA;
};
ref = O;
}
);
width = 716.76087;
},
{
anchors = (
{
name = bottom;
pos = (360.283,0);
},
{
name = top;
pos = (360.283,688);
}
);
layerId = m011;
name = "[86]";
shapes = (
{
closed = 1;
nodes = (
(587.087,654.957,l),
(622.457,743,l),
(546.804,703.283,l),
(520.174,631.565,l)
);
},
{
closed = 1;
nodes = (
(147.652,-55,l),
(213.065,52.283,l),
(158.804,72.087,l),
(80.761,-55,l)
);
},
{
alignment = -1;
attr = {
identifier = A9D2F262;
};
ref = O;
}
);
width = 716.76087;
},
{
anchors = (
{
name = bottom;
pos = (360.283,0);
},
{
name = top;
pos = (360.283,688);
}
);
layerId = m012;
name = "[86]";
shapes = (
{
closed = 1;
nodes = (
(587.087,654.957,l),
(622.457,743,l),
(546.804,703.283,l),
(520.174,631.565,l)
);
},
{
closed = 1;
nodes = (
(147.652,-55,l),
(213.065,52.283,l),
(158.804,72.087,l),
(80.761,-55,l)
);
},
{
alignment = -1;
attr = {
identifier = 9B80E98E;
};
ref = O;
}
);
width = 716.76087;
},
{
anchors = (
{
name = bottom;
pos = (360.283,0);
},
{
name = top;
pos = (360.283,688);
}
);
layerId = m013;
name = "[86]";
shapes = (
{
closed = 1;
nodes = (
(587.087,654.957,l),
(622.457,743,l),
(546.804,703.283,l),
(520.174,631.565,l)
);
},
{
closed = 1;
nodes = (
(147.652,-55,l),
(213.065,52.283,l),
(158.804,72.087,l),
(80.761,-55,l)
);
},
{
alignment = -1;
attr = {
identifier = 3E97CF94;
};
ref = O;
}
);
width = 716.76087;
},
{
anchors = (
{
name = bottom;
pos = (360.283,0);
},
{
name = top;
pos = (360.283,688);
}
);
layerId = m014;
name = "[86]";
shapes = (
{
closed = 1;
nodes = (
(587.087,654.957,l),
(622.457,743,l),
(546.804,703.283,l),
(520.174,631.565,l)
);
},
{
closed = 1;
nodes = (
(147.652,-55,l),
(213.065,52.283,l),
(158.804,72.087,l),
(80.761,-55,l)
);
},
{
alignment = -1;
attr = {
identifier = 64C063F9;
};
ref = O;
}
);
width = 716.76087;
},
{
anchors = (
{
name = bottom;
pos = (360.283,0);
},
{
name = top;
pos = (360.283,688);
}
);
layerId = m015;
name = "[86]";
shapes = (
{
closed = 1;
nodes = (
(587.087,654.957,l),
(622.457,743,l),
(546.804,703.283,l),
(520.174,631.565,l)
);
},
{
closed = 1;
nodes = (
(147.652,-55,l),
(213.065,52.283,l),
(158.804,72.087,l),
(80.761,-55,l)
);
},
{
alignment = -1;
attr = {
identifier = AC7F8A81;
};
ref = O;
}
);
width = 716.76087;
},
{
anchors = (
{
name = bottom;
pos = (348,0);
},
{
name = top;
pos = (348,688);
}
);
layerId = "4F93A97B-747D-4721-B098-38A63C534D7A";
shapes = (
{
closed = 1;
nodes = (
(215,-55,l),
(653,743,l),
(479,743,l),
(42,-55,l)
);
},
{
ref = O;
}
);
width = 695;
},
{
anchors = (
{
name = bottom;
pos = (360.283,0);
},
{
name = top;
pos = (360.283,688);
}
);
layerId = m016;
name = "[86]";
shapes = (
{
closed = 1;
nodes = (
(587.087,654.957,l),
(622.457,743,l),
(546.804,703.283,l),
(520.174,631.565,l)
);
},
{
closed = 1;
nodes = (
(147.652,-55,l),
(213.065,52.283,l),
(158.804,72.087,l),
(80.761,-55,l)
);
},
{
alignment = -1;
attr = {
identifier = C89C2D6D;
};
ref = O;
}
);
width = 716.76087;
}
);
unicode = 216;
},
{
color = 3;
export = 0;
glyphname = Oslashacute;
kernLeft = O;
kernRight = O;
layers = (
{
anchors = (
{
name = bottom;
pos = (360.283,0);
},
{
name = center;
pos = (358.652,344);
},
{
name = ogonek;
pos = (415.304,0);
},
{
name = top;
pos = (360.283,688);
},
{
name = topleft;
pos = (20,688);
},
{
name = topright;
pos = (475.804,688);
}
);
layerId = m009;
name = "[86]";
shapes = (
{
closed = 1;
nodes = (
(587.087,654.957,l),
(622.457,743,l),
(546.804,703.283,l),
(520.174,631.565,l)
);
},
{
closed = 1;
nodes = (
(147.652,-55,l),
(213.065,52.283,l),
(158.804,72.087,l),
(80.761,-55,l)
);
},
{
ref = O;
},
{
pos = (307.348,178);
ref = acutecomb.case;
}
);
width = 716.76087;
},
{
anchors = (
{
name = bottom;
pos = (360.283,0);
},
{
name = center;
pos = (358.652,344);
},
{
name = ogonek;
pos = (415.304,0);
},
{
name = top;
pos = (360.283,688);
},
{
name = topleft;
pos = (20,688);
},
{
name = topright;
pos = (475.804,688);
}
);
layerId = m010;
name = "[86]";
shapes = (
{
closed = 1;
nodes = (
(587.087,654.957,l),
(622.457,743,l),
(546.804,703.283,l),
(520.174,631.565,l)
);
},
{
closed = 1;
nodes = (
(147.652,-55,l),
(213.065,52.283,l),
(158.804,72.087,l),
(80.761,-55,l)
);
},
{
ref = O;
},
{
pos = (307.348,178);
ref = acutecomb.case;
}
);
width = 716.76087;
},
{
anchors = (
{
name = bottom;
pos = (360.283,0);
},
{
name = center;
pos = (358.652,344);
},
{
name = ogonek;
pos = (415.304,0);
},
{
name = top;
pos = (360.283,688);
},
{
name = topleft;
pos = (20,688);
},
{
name = topright;
pos = (475.804,688);
}
);
layerId = m011;
name = "[86]";
shapes = (
{
closed = 1;
nodes = (
(587.087,654.957,l),
(622.457,743,l),
(546.804,703.283,l),
(520.174,631.565,l)
);
},
{
closed = 1;
nodes = (
(147.652,-55,l),
(213.065,52.283,l),
(158.804,72.087,l),
(80.761,-55,l)
);
},
{
ref = O;
},
{
pos = (307.348,178);
ref = acutecomb.case;
}
);
width = 716.76087;
},
{
anchors = (
{
name = bottom;
pos = (360.283,0);
},
{
name = center;
pos = (358.652,344);
},
{
name = ogonek;
pos = (415.304,0);
},
{
name = top;
pos = (360.283,688);
},
{
name = topleft;
pos = (20,688);
},
{
name = topright;
pos = (475.804,688);
}
);
layerId = m012;
name = "[86]";
shapes = (
{
closed = 1;
nodes = (
(587.087,654.957,l),
(622.457,743,l),
(546.804,703.283,l),
(520.174,631.565,l)
);
},
{
closed = 1;
nodes = (
(147.652,-55,l),
(213.065,52.283,l),
(158.804,72.087,l),
(80.761,-55,l)
);
},
{
ref = O;
},
{
pos = (307.348,178);
ref = acutecomb.case;
}
);
width = 716.76087;
},
{
anchors = (
{
name = bottom;
pos = (360.283,0);
},
{
name = center;
pos = (358.652,344);
},
{
name = ogonek;
pos = (415.304,0);
},
{
name = top;
pos = (360.283,688);
},
{
name = topleft;
pos = (20,688);
},
{
name = topright;
pos = (475.804,688);
}
);
layerId = m013;
name = "[86]";
shapes = (
{
closed = 1;
nodes = (
(587.087,654.957,l),
(622.457,743,l),
(546.804,703.283,l),
(520.174,631.565,l)
);
},
{
closed = 1;
nodes = (
(147.652,-55,l),
(213.065,52.283,l),
(158.804,72.087,l),
(80.761,-55,l)
);
},
{
ref = O;
},
{
pos = (307.348,178);
ref = acutecomb.case;
}
);
width = 716.76087;
},
{
anchors = (
{
name = bottom;
pos = (360.283,0);
},
{
name = center;
pos = (358.652,344);
},
{
name = ogonek;
pos = (415.304,0);
},
{
name = top;
pos = (360.283,688);
},
{
name = topleft;
pos = (20,688);
},
{
name = topright;
pos = (475.804,688);
}
);
layerId = m014;
name = "[86]";
shapes = (
{
closed = 1;
nodes = (
(587.087,654.957,l),
(622.457,743,l),
(546.804,703.283,l),
(520.174,631.565,l)
);
},
{
closed = 1;
nodes = (
(147.652,-55,l),
(213.065,52.283,l),
(158.804,72.087,l),
(80.761,-55,l)
);
},
{
ref = O;
},
{
pos = (307.348,178);
ref = acutecomb.case;
}
);
width = 716.76087;
},
{
anchors = (
{
name = bottom;
pos = (360.283,0);
},
{
name = center;
pos = (358.652,344);
},
{
name = ogonek;
pos = (415.304,0);
},
{
name = top;
pos = (360.283,688);
},
{
name = topleft;
pos = (20,688);
},
{
name = topright;
pos = (475.804,688);
}
);
layerId = m015;
name = "[86]";
shapes = (
{
closed = 1;
nodes = (
(587.087,654.957,l),
(622.457,743,l),
(546.804,703.283,l),
(520.174,631.565,l)
);
},
{
closed = 1;
nodes = (
(147.652,-55,l),
(213.065,52.283,l),
(158.804,72.087,l),
(80.761,-55,l)
);
},
{
ref = O;
},
{
pos = (307.348,178);
ref = acutecomb.case;
}
);
width = 716.76087;
},
{
anchors = (
{
name = bottom;
pos = (348,0);
},
{
name = center;
pos = (348,344);
},
{
name = ogonek;
pos = (440,0);
},
{
name = top;
pos = (348,688);
},
{
name = topleft;
pos = (20,688);
},
{
name = topright;
pos = (460,688);
}
);
layerId = "4F93A97B-747D-4721-B098-38A63C534D7A";
shapes = (
{
closed = 1;
nodes = (
(215,-55,l),
(653,743,l),
(479,743,l),
(42,-55,l)
);
},
{
ref = O;
},
{
pos = (242,178);
ref = acutecomb.case;
}
);
width = 695;
},
{
anchors = (
{
name = bottom;
pos = (360.283,0);
},
{
name = center;
pos = (358.652,344);
},
{
name = ogonek;
pos = (415.304,0);
},
{
name = top;
pos = (360.283,688);
},
{
name = topleft;
pos = (20,688);
},
{
name = topright;
pos = (475.804,688);
}
);
layerId = m016;
name = "[86]";
shapes = (
{
closed = 1;
nodes = (
(587.087,654.957,l),
(622.457,743,l),
(546.804,703.283,l),
(520.174,631.565,l)
);
},
{
closed = 1;
nodes = (
(147.652,-55,l),
(213.065,52.283,l),
(158.804,72.087,l),
(80.761,-55,l)
);
},
{
ref = O;
},
{
pos = (307.348,178);
ref = acutecomb.case;
}
);
width = 716.76087;
}
);
unicode = 510;
},
{
export = 0;
glyphname = OE;
kernLeft = O;
kernRight = E;
layers = (
{
anchors = (
{
name = bottom;
pos = (522.87,0);
},
{
name = top;
pos = (522.87,688);
}
);
layerId = m009;
shapes = (
{
closed = 1;
nodes = (
(988.283,0,l),
(988.283,74.217,l),
(662.63,74.217,ls),
(637.609,74.217,o),
(609.696,71.674,o),
(590.174,68.043,c),
(632.891,111.304,o),
(639.348,184.261,o),
(640.348,310.348,c),
(941.283,310.348,l),
(941.283,384.565,l),
(640.348,384.565,l),
(639.348,505.196,o),
(631.348,577.239,o),
(590.174,619.957,c),
(609.696,616.326,o),
(637.609,613.783,o),
(662.63,613.783,cs),
(988.283,613.783,l),
(988.283,688,l),
(358.109,688,ls),
(90.239,688,o),
(76.413,632.609,o),
(76.413,344,cs),
(76.413,55.391,o),
(90.239,0,o),
(358.109,0,cs)
);
},
{
closed = 1;
nodes = (
(174.804,74.217,o),
(162.413,79.674,o),
(162.413,344,cs),
(162.413,608.326,o),
(174.804,613.783,o),
(358.109,613.783,cs),
(541.413,613.783,o),
(554.348,608.326,o),
(554.348,344,cs),
(554.348,79.674,o),
(541.413,74.217,o),
(358.109,74.217,cs)
);
}
);
width = 1044.73913;
},
{
anchors = (
{
name = bottom;
pos = (522.87,0);
},
{
name = top;
pos = (522.87,688);
}
);
layerId = m010;
shapes = (
{
closed = 1;
nodes = (
(988.283,0,l),
(988.283,74.217,l),
(662.63,74.217,ls),
(637.609,74.217,o),
(609.696,71.674,o),
(590.174,68.043,c),
(632.891,111.304,o),
(639.348,184.261,o),
(640.348,310.348,c),
(941.283,310.348,l),
(941.283,384.565,l),
(640.348,384.565,l),
(639.348,505.196,o),
(631.348,577.239,o),
(590.174,619.957,c),
(609.696,616.326,o),
(637.609,613.783,o),
(662.63,613.783,cs),
(988.283,613.783,l),
(988.283,688,l),
(358.109,688,ls),
(90.239,688,o),
(76.413,632.609,o),
(76.413,344,cs),
(76.413,55.391,o),
(90.239,0,o),
(358.109,0,cs)
);
},
{
closed = 1;
nodes = (
(174.804,74.217,o),
(162.413,79.674,o),
(162.413,344,cs),
(162.413,608.326,o),
(174.804,613.783,o),
(358.109,613.783,cs),
(541.413,613.783,o),
(554.348,608.326,o),
(554.348,344,cs),
(554.348,79.674,o),
(541.413,74.217,o),
(358.109,74.217,cs)
);
}
);
width = 1044.73913;
},
{
anchors = (
{
name = bottom;
pos = (522.87,0);
},
{
name = top;
pos = (522.87,688);
}
);
layerId = m011;
shapes = (
{
closed = 1;
nodes = (
(988.283,0,l),
(988.283,74.217,l),
(662.63,74.217,ls),
(637.609,74.217,o),
(609.696,71.674,o),
(590.174,68.043,c),
(632.891,111.304,o),
(639.348,184.261,o),
(640.348,310.348,c),
(941.283,310.348,l),
(941.283,384.565,l),
(640.348,384.565,l),
(639.348,505.196,o),
(631.348,577.239,o),
(590.174,619.957,c),
(609.696,616.326,o),
(637.609,613.783,o),
(662.63,613.783,cs),
(988.283,613.783,l),
(988.283,688,l),
(358.109,688,ls),
(90.239,688,o),
(76.413,632.609,o),
(76.413,344,cs),
(76.413,55.391,o),
(90.239,0,o),
(358.109,0,cs)
);
},
{
closed = 1;
nodes = (
(174.804,74.217,o),
(162.413,79.674,o),
(162.413,344,cs),
(162.413,608.326,o),
(174.804,613.783,o),
(358.109,613.783,cs),
(541.413,613.783,o),
(554.348,608.326,o),
(554.348,344,cs),
(554.348,79.674,o),
(541.413,74.217,o),
(358.109,74.217,cs)
);
}
);
width = 1044.73913;
},
{
anchors = (
{
name = bottom;
pos = (522.87,0);
},
{
name = top;
pos = (522.87,688);
}
);
layerId = m012;
shapes = (
{
closed = 1;
nodes = (
(988.283,0,l),
(988.283,74.217,l),
(662.63,74.217,ls),
(637.609,74.217,o),
(609.696,71.674,o),
(590.174,68.043,c),
(632.891,111.304,o),
(639.348,184.261,o),
(640.348,310.348,c),
(941.283,310.348,l),
(941.283,384.565,l),
(640.348,384.565,l),
(639.348,505.196,o),
(631.348,577.239,o),
(590.174,619.957,c),
(609.696,616.326,o),
(637.609,613.783,o),
(662.63,613.783,cs),
(988.283,613.783,l),
(988.283,688,l),
(358.109,688,ls),
(90.239,688,o),
(76.413,632.609,o),
(76.413,344,cs),
(76.413,55.391,o),
(90.239,0,o),
(358.109,0,cs)
);
},
{
closed = 1;
nodes = (
(174.804,74.217,o),
(162.413,79.674,o),
(162.413,344,cs),
(162.413,608.326,o),
(174.804,613.783,o),
(358.109,613.783,cs),
(541.413,613.783,o),
(554.348,608.326,o),
(554.348,344,cs),
(554.348,79.674,o),
(541.413,74.217,o),
(358.109,74.217,cs)
);
}
);
width = 1044.73913;
},
{
anchors = (
{
name = bottom;
pos = (522.87,0);
},
{
name = top;
pos = (522.87,688);
}
);
layerId = m013;
shapes = (
{
closed = 1;
nodes = (
(988.283,0,l),
(988.283,74.217,l),
(662.63,74.217,ls),
(637.609,74.217,o),
(609.696,71.674,o),
(590.174,68.043,c),
(632.891,111.304,o),
(639.348,184.261,o),
(640.348,310.348,c),
(941.283,310.348,l),
(941.283,384.565,l),
(640.348,384.565,l),
(639.348,505.196,o),
(631.348,577.239,o),
(590.174,619.957,c),
(609.696,616.326,o),
(637.609,613.783,o),
(662.63,613.783,cs),
(988.283,613.783,l),
(988.283,688,l),
(358.109,688,ls),
(90.239,688,o),
(76.413,632.609,o),
(76.413,344,cs),
(76.413,55.391,o),
(90.239,0,o),
(358.109,0,cs)
);
},
{
closed = 1;
nodes = (
(174.804,74.217,o),
(162.413,79.674,o),
(162.413,344,cs),
(162.413,608.326,o),
(174.804,613.783,o),
(358.109,613.783,cs),
(541.413,613.783,o),
(554.348,608.326,o),
(554.348,344,cs),
(554.348,79.674,o),
(541.413,74.217,o),
(358.109,74.217,cs)
);
}
);
width = 1044.73913;
},
{
anchors = (
{
name = bottom;
pos = (522.87,0);
},
{
name = top;
pos = (522.87,688);
}
);
layerId = m014;
shapes = (
{
closed = 1;
nodes = (
(988.283,0,l),
(988.283,74.217,l),
(662.63,74.217,ls),
(637.609,74.217,o),
(609.696,71.674,o),
(590.174,68.043,c),
(632.891,111.304,o),
(639.348,184.261,o),
(640.348,310.348,c),
(941.283,310.348,l),
(941.283,384.565,l),
(640.348,384.565,l),
(639.348,505.196,o),
(631.348,577.239,o),
(590.174,619.957,c),
(609.696,616.326,o),
(637.609,613.783,o),
(662.63,613.783,cs),
(988.283,613.783,l),
(988.283,688,l),
(358.109,688,ls),
(90.239,688,o),
(76.413,632.609,o),
(76.413,344,cs),
(76.413,55.391,o),
(90.239,0,o),
(358.109,0,cs)
);
},
{
closed = 1;
nodes = (
(174.804,74.217,o),
(162.413,79.674,o),
(162.413,344,cs),
(162.413,608.326,o),
(174.804,613.783,o),
(358.109,613.783,cs),
(541.413,613.783,o),
(554.348,608.326,o),
(554.348,344,cs),
(554.348,79.674,o),
(541.413,74.217,o),
(358.109,74.217,cs)
);
}
);
width = 1044.73913;
},
{
anchors = (
{
name = bottom;
pos = (522.87,0);
},
{
name = top;
pos = (522.87,688);
}
);
layerId = m015;
shapes = (
{
closed = 1;
nodes = (
(988.283,0,l),
(988.283,74.217,l),
(662.63,74.217,ls),
(637.609,74.217,o),
(609.696,71.674,o),
(590.174,68.043,c),
(632.891,111.304,o),
(639.348,184.261,o),
(640.348,310.348,c),
(941.283,310.348,l),
(941.283,384.565,l),
(640.348,384.565,l),
(639.348,505.196,o),
(631.348,577.239,o),
(590.174,619.957,c),
(609.696,616.326,o),
(637.609,613.783,o),
(662.63,613.783,cs),
(988.283,613.783,l),
(988.283,688,l),
(358.109,688,ls),
(90.239,688,o),
(76.413,632.609,o),
(76.413,344,cs),
(76.413,55.391,o),
(90.239,0,o),
(358.109,0,cs)
);
},
{
closed = 1;
nodes = (
(174.804,74.217,o),
(162.413,79.674,o),
(162.413,344,cs),
(162.413,608.326,o),
(174.804,613.783,o),
(358.109,613.783,cs),
(541.413,613.783,o),
(554.348,608.326,o),
(554.348,344,cs),
(554.348,79.674,o),
(541.413,74.217,o),
(358.109,74.217,cs)
);
}
);
width = 1044.73913;
},
{
anchors = (
{
name = bottom;
pos = (487,0);
},
{
name = top;
pos = (487,688);
}
);
layerId = "4F93A97B-747D-4721-B098-38A63C534D7A";
shapes = (
{
closed = 1;
nodes = (
(926,0,l),
(926,167,l),
(707,167,ls),
(669,167,o),
(644,162,o),
(636,159,c),
(647,189,o),
(652,225,o),
(652,266,c),
(879,266,l),
(879,429,l),
(652,429,l),
(649,467,o),
(644,500,o),
(636,529,c),
(648,524,o),
(679,521,o),
(707,521,cs),
(926,521,l),
(926,688,l),
(347,688,ls),
(45,688,o),
(42,609,o),
(42,344,cs),
(42,79,o),
(45,0,o),
(347,0,cs)
);
},
{
closed = 1;
nodes = (
(277,167,o),
(277,171,o),
(277,344,cs),
(277,517,o),
(277,521,o),
(347,521,cs),
(417,521,o),
(418,517,o),
(418,344,cs),
(418,171,o),
(417,167,o),
(347,167,cs)
);
}
);
width = 974;
},
{
anchors = (
{
name = bottom;
pos = (522.87,0);
},
{
name = top;
pos = (522.87,688);
}
);
layerId = m016;
shapes = (
{
closed = 1;
nodes = (
(988.283,0,l),
(988.283,74.217,l),
(662.63,74.217,ls),
(637.609,74.217,o),
(609.696,71.674,o),
(590.174,68.043,c),
(632.891,111.304,o),
(639.348,184.261,o),
(640.348,310.348,c),
(941.283,310.348,l),
(941.283,384.565,l),
(640.348,384.565,l),
(639.348,505.196,o),
(631.348,577.239,o),
(590.174,619.957,c),
(609.696,616.326,o),
(637.609,613.783,o),
(662.63,613.783,cs),
(988.283,613.783,l),
(988.283,688,l),
(358.109,688,ls),
(90.239,688,o),
(76.413,632.609,o),
(76.413,344,cs),
(76.413,55.391,o),
(90.239,0,o),
(358.109,0,cs)
);
},
{
closed = 1;
nodes = (
(174.804,74.217,o),
(162.413,79.674,o),
(162.413,344,cs),
(162.413,608.326,o),
(174.804,613.783,o),
(358.109,613.783,cs),
(541.413,613.783,o),
(554.348,608.326,o),
(554.348,344,cs),
(554.348,79.674,o),
(541.413,74.217,o),
(358.109,74.217,cs)
);
}
);
width = 1044.73913;
}
);
metricLeft = O;
metricRight = E;
unicode = 338;
},
{
export = 0;
glyphname = Thorn;
kernLeft = H;
kernRight = P;
layers = (
{
anchors = (
{
name = bottom;
pos = (326.37,0);
},
{
name = top;
pos = (326.37,688);
}
);
layerId = m009;
shapes = (
{
closed = 1;
nodes = (
(185.783,0,l),
(185.783,133.217,l),
(399.196,133.217,l),
(577.283,133.217,o),
(598.696,231.13,o),
(598.696,350.543,cs),
(598.696,474.848,o),
(576.478,567.87,o),
(401.37,567.87,cs),
(185.783,567.87,l),
(185.783,688,l),
(99.783,688,l),
(99.783,0,l)
);
},
{
closed = 1;
nodes = (
(185.783,493.652,l),
(372.739,493.652,ls),
(504.609,493.652,o),
(512.696,450.565,o),
(512.696,350.543,cs),
(512.696,250.522,o),
(502.696,207.435,o),
(370.565,207.435,cs),
(185.783,207.435,l)
);
}
);
width = 651.73913;
},
{
anchors = (
{
name = bottom;
pos = (326.37,0);
},
{
name = top;
pos = (326.37,688);
}
);
layerId = m010;
shapes = (
{
closed = 1;
nodes = (
(185.783,0,l),
(185.783,133.217,l),
(399.196,133.217,l),
(577.283,133.217,o),
(598.696,231.13,o),
(598.696,350.543,cs),
(598.696,474.848,o),
(576.478,567.87,o),
(401.37,567.87,cs),
(185.783,567.87,l),
(185.783,688,l),
(99.783,688,l),
(99.783,0,l)
);
},
{
closed = 1;
nodes = (
(185.783,493.652,l),
(372.739,493.652,ls),
(504.609,493.652,o),
(512.696,450.565,o),
(512.696,350.543,cs),
(512.696,250.522,o),
(502.696,207.435,o),
(370.565,207.435,cs),
(185.783,207.435,l)
);
}
);
width = 651.73913;
},
{
anchors = (
{
name = bottom;
pos = (326.37,0);
},
{
name = top;
pos = (326.37,688);
}
);
layerId = m011;
shapes = (
{
closed = 1;
nodes = (
(185.783,0,l),
(185.783,133.217,l),
(399.196,133.217,l),
(577.283,133.217,o),
(598.696,231.13,o),
(598.696,350.543,cs),
(598.696,474.848,o),
(576.478,567.87,o),
(401.37,567.87,cs),
(185.783,567.87,l),
(185.783,688,l),
(99.783,688,l),
(99.783,0,l)
);
},
{
closed = 1;
nodes = (
(185.783,493.652,l),
(372.739,493.652,ls),
(504.609,493.652,o),
(512.696,450.565,o),
(512.696,350.543,cs),
(512.696,250.522,o),
(502.696,207.435,o),
(370.565,207.435,cs),
(185.783,207.435,l)
);
}
);
width = 651.73913;
},
{
anchors = (
{
name = bottom;
pos = (326.37,0);
},
{
name = top;
pos = (326.37,688);
}
);
layerId = m012;
shapes = (
{
closed = 1;
nodes = (
(185.783,0,l),
(185.783,133.217,l),
(399.196,133.217,l),
(577.283,133.217,o),
(598.696,231.13,o),
(598.696,350.543,cs),
(598.696,474.848,o),
(576.478,567.87,o),
(401.37,567.87,cs),
(185.783,567.87,l),
(185.783,688,l),
(99.783,688,l),
(99.783,0,l)
);
},
{
closed = 1;
nodes = (
(185.783,493.652,l),
(372.739,493.652,ls),
(504.609,493.652,o),
(512.696,450.565,o),
(512.696,350.543,cs),
(512.696,250.522,o),
(502.696,207.435,o),
(370.565,207.435,cs),
(185.783,207.435,l)
);
}
);
width = 651.73913;
},
{
anchors = (
{
name = bottom;
pos = (326.37,0);
},
{
name = top;
pos = (326.37,688);
}
);
layerId = m013;
shapes = (
{
closed = 1;
nodes = (
(185.783,0,l),
(185.783,133.217,l),
(399.196,133.217,l),
(577.283,133.217,o),
(598.696,231.13,o),
(598.696,350.543,cs),
(598.696,474.848,o),
(576.478,567.87,o),
(401.37,567.87,cs),
(185.783,567.87,l),
(185.783,688,l),
(99.783,688,l),
(99.783,0,l)
);
},
{
closed = 1;
nodes = (
(185.783,493.652,l),
(372.739,493.652,ls),
(504.609,493.652,o),
(512.696,450.565,o),
(512.696,350.543,cs),
(512.696,250.522,o),
(502.696,207.435,o),
(370.565,207.435,cs),
(185.783,207.435,l)
);
}
);
width = 651.73913;
},
{
anchors = (
{
name = bottom;
pos = (326.37,0);
},
{
name = top;
pos = (326.37,688);
}
);
layerId = m014;
shapes = (
{
closed = 1;
nodes = (
(185.783,0,l),
(185.783,133.217,l),
(399.196,133.217,l),
(577.283,133.217,o),
(598.696,231.13,o),
(598.696,350.543,cs),
(598.696,474.848,o),
(576.478,567.87,o),
(401.37,567.87,cs),
(185.783,567.87,l),
(185.783,688,l),
(99.783,688,l),
(99.783,0,l)
);
},
{
closed = 1;
nodes = (
(185.783,493.652,l),
(372.739,493.652,ls),
(504.609,493.652,o),
(512.696,450.565,o),
(512.696,350.543,cs),
(512.696,250.522,o),
(502.696,207.435,o),
(370.565,207.435,cs),
(185.783,207.435,l)
);
}
);
width = 651.73913;
},
{
anchors = (
{
name = bottom;
pos = (326.37,0);
},
{
name = top;
pos = (326.37,688);
}
);
layerId = m015;
shapes = (
{
closed = 1;
nodes = (
(185.783,0,l),
(185.783,133.217,l),
(399.196,133.217,l),
(577.283,133.217,o),
(598.696,231.13,o),
(598.696,350.543,cs),
(598.696,474.848,o),
(576.478,567.87,o),
(401.37,567.87,cs),
(185.783,567.87,l),
(185.783,688,l),
(99.783,688,l),
(99.783,0,l)
);
},
{
closed = 1;
nodes = (
(185.783,493.652,l),
(372.739,493.652,ls),
(504.609,493.652,o),
(512.696,450.565,o),
(512.696,350.543,cs),
(512.696,250.522,o),
(502.696,207.435,o),
(370.565,207.435,cs),
(185.783,207.435,l)
);
}
);
width = 651.73913;
},
{
anchors = (
{
name = bottom;
pos = (318,0);
},
{
name = top;
pos = (318,688);
}
);
layerId = "4F93A97B-747D-4721-B098-38A63C534D7A";
shapes = (
{
closed = 1;
nodes = (
(285,0,l),
(285,113,l),
(404,113,l),
(594,113,o),
(615,206,o),
(615,352,cs),
(615,514,o),
(587,592,o),
(404,592,cs),
(285,592,l),
(285,688,l),
(52,688,l),
(52,0,l)
);
},
{
closed = 1;
nodes = (
(285,429,l),
(316,429,ls),
(374,429,o),
(380,425,o),
(380,352,cs),
(380,281,o),
(374,276,o),
(316,276,cs),
(285,276,l)
);
}
);
width = 636;
},
{
anchors = (
{
name = bottom;
pos = (326.37,0);
},
{
name = top;
pos = (326.37,688);
}
);
layerId = m016;
shapes = (
{
closed = 1;
nodes = (
(185.783,0,l),
(185.783,133.217,l),
(399.196,133.217,l),
(577.283,133.217,o),
(598.696,231.13,o),
(598.696,350.543,cs),
(598.696,474.848,o),
(576.478,567.87,o),
(401.37,567.87,cs),
(185.783,567.87,l),
(185.783,688,l),
(99.783,688,l),
(99.783,0,l)
);
},
{
closed = 1;
nodes = (
(185.783,493.652,l),
(372.739,493.652,ls),
(504.609,493.652,o),
(512.696,450.565,o),
(512.696,350.543,cs),
(512.696,250.522,o),
(502.696,207.435,o),
(370.565,207.435,cs),
(185.783,207.435,l)
);
}
);
width = 651.73913;
}
);
unicode = 222;
},
{
export = 0;
glyphname = Germandbls;
kernLeft = H;
kernRight = B;
layers = (
{
anchors = (
{
name = bottom;
pos = (367.239,0);
},
{
name = top;
pos = (367.239,688);
}
);
layerId = m009;
shapes = (
{
closed = 1;
nodes = (
(579.004,-8,o),
(643.456,52.174,o),
(643.381,181.946,cs),
(643.456,322.745,o),
(585.239,373.783,o),
(448.598,373.783,cs),
(395.685,373.783,l),
(403.772,345.022,l),
(597.794,594.283,l),
(597.794,657.609,l),
(537.537,678.891,o),
(439.377,696,o),
(344.265,696,cs),
(136.058,696,o),
(91.413,638.408,o),
(91.413,368.609,cs),
(91.413,0,l),
(177.413,0,l),
(177.413,344,ls),
(177.413,594.109,o),
(192.099,621.783,o),
(363.887,621.783,cs),
(417.228,621.783,o),
(468.402,615.5,o),
(530.925,598.283,c),
(528.403,631.674,l),
(325.185,371.935,l),
(325.185,311.348,l),
(437.207,311.348,ls),
(524.608,311.348,o),
(556.369,279.391,o),
(556.294,187.798,cs),
(556.369,93.397,o),
(523.412,66.217,o),
(408.31,66.217,cs),
(371.366,66.217,o),
(312.249,71.217,o),
(263.403,78.217,c),
(263.403,9.261,l),
(303.14,-0.37,o),
(367.296,-8,o),
(413.721,-8,cs)
);
}
);
width = 715.45652;
},
{
anchors = (
{
name = bottom;
pos = (367.239,0);
},
{
name = top;
pos = (367.239,688);
}
);
layerId = m010;
shapes = (
{
closed = 1;
nodes = (
(579.004,-8,o),
(643.456,52.174,o),
(643.381,181.946,cs),
(643.456,322.745,o),
(585.239,373.783,o),
(448.598,373.783,cs),
(395.685,373.783,l),
(403.772,345.022,l),
(597.794,594.283,l),
(597.794,657.609,l),
(537.537,678.891,o),
(439.377,696,o),
(344.265,696,cs),
(136.058,696,o),
(91.413,638.408,o),
(91.413,368.609,cs),
(91.413,0,l),
(177.413,0,l),
(177.413,344,ls),
(177.413,594.109,o),
(192.099,621.783,o),
(363.887,621.783,cs),
(417.228,621.783,o),
(468.402,615.5,o),
(530.925,598.283,c),
(528.403,631.674,l),
(325.185,371.935,l),
(325.185,311.348,l),
(437.207,311.348,ls),
(524.608,311.348,o),
(556.369,279.391,o),
(556.294,187.798,cs),
(556.369,93.397,o),
(523.412,66.217,o),
(408.31,66.217,cs),
(371.366,66.217,o),
(312.249,71.217,o),
(263.403,78.217,c),
(263.403,9.261,l),
(303.14,-0.37,o),
(367.296,-8,o),
(413.721,-8,cs)
);
}
);
width = 715.45652;
},
{
anchors = (
{
name = bottom;
pos = (367.239,0);
},
{
name = top;
pos = (367.239,688);
}
);
layerId = m011;
shapes = (
{
closed = 1;
nodes = (
(579.004,-8,o),
(643.456,52.174,o),
(643.381,181.946,cs),
(643.456,322.745,o),
(585.239,373.783,o),
(448.598,373.783,cs),
(395.685,373.783,l),
(403.772,345.022,l),
(597.794,594.283,l),
(597.794,657.609,l),
(537.537,678.891,o),
(439.377,696,o),
(344.265,696,cs),
(136.058,696,o),
(91.413,638.408,o),
(91.413,368.609,cs),
(91.413,0,l),
(177.413,0,l),
(177.413,344,ls),
(177.413,594.109,o),
(192.099,621.783,o),
(363.887,621.783,cs),
(417.228,621.783,o),
(468.402,615.5,o),
(530.925,598.283,c),
(528.403,631.674,l),
(325.185,371.935,l),
(325.185,311.348,l),
(437.207,311.348,ls),
(524.608,311.348,o),
(556.369,279.391,o),
(556.294,187.798,cs),
(556.369,93.397,o),
(523.412,66.217,o),
(408.31,66.217,cs),
(371.366,66.217,o),
(312.249,71.217,o),
(263.403,78.217,c),
(263.403,9.261,l),
(303.14,-0.37,o),
(367.296,-8,o),
(413.721,-8,cs)
);
}
);
width = 715.45652;
},
{
anchors = (
{
name = bottom;
pos = (367.239,0);
},
{
name = top;
pos = (367.239,688);
}
);
layerId = m012;
shapes = (
{
closed = 1;
nodes = (
(579.004,-8,o),
(643.456,52.174,o),
(643.381,181.946,cs),
(643.456,322.745,o),
(585.239,373.783,o),
(448.598,373.783,cs),
(395.685,373.783,l),
(403.772,345.022,l),
(597.794,594.283,l),
(597.794,657.609,l),
(537.537,678.891,o),
(439.377,696,o),
(344.265,696,cs),
(136.058,696,o),
(91.413,638.408,o),
(91.413,368.609,cs),
(91.413,0,l),
(177.413,0,l),
(177.413,344,ls),
(177.413,594.109,o),
(192.099,621.783,o),
(363.887,621.783,cs),
(417.228,621.783,o),
(468.402,615.5,o),
(530.925,598.283,c),
(528.403,631.674,l),
(325.185,371.935,l),
(325.185,311.348,l),
(437.207,311.348,ls),
(524.608,311.348,o),
(556.369,279.391,o),
(556.294,187.798,cs),
(556.369,93.397,o),
(523.412,66.217,o),
(408.31,66.217,cs),
(371.366,66.217,o),
(312.249,71.217,o),
(263.403,78.217,c),
(263.403,9.261,l),
(303.14,-0.37,o),
(367.296,-8,o),
(413.721,-8,cs)
);
}
);
width = 715.45652;
},
{
anchors = (
{
name = bottom;
pos = (367.239,0);
},
{
name = top;
pos = (367.239,688);
}
);
layerId = m013;
shapes = (
{
closed = 1;
nodes = (
(579.004,-8,o),
(643.456,52.174,o),
(643.381,181.946,cs),
(643.456,322.745,o),
(585.239,373.783,o),
(448.598,373.783,cs),
(395.685,373.783,l),
(403.772,345.022,l),
(597.794,594.283,l),
(597.794,657.609,l),
(537.537,678.891,o),
(439.377,696,o),
(344.265,696,cs),
(136.058,696,o),
(91.413,638.408,o),
(91.413,368.609,cs),
(91.413,0,l),
(177.413,0,l),
(177.413,344,ls),
(177.413,594.109,o),
(192.099,621.783,o),
(363.887,621.783,cs),
(417.228,621.783,o),
(468.402,615.5,o),
(530.925,598.283,c),
(528.403,631.674,l),
(325.185,371.935,l),
(325.185,311.348,l),
(437.207,311.348,ls),
(524.608,311.348,o),
(556.369,279.391,o),
(556.294,187.798,cs),
(556.369,93.397,o),
(523.412,66.217,o),
(408.31,66.217,cs),
(371.366,66.217,o),
(312.249,71.217,o),
(263.403,78.217,c),
(263.403,9.261,l),
(303.14,-0.37,o),
(367.296,-8,o),
(413.721,-8,cs)
);
}
);
width = 715.45652;
},
{
anchors = (
{
name = bottom;
pos = (367.239,0);
},
{
name = top;
pos = (367.239,688);
}
);
layerId = m014;
shapes = (
{
closed = 1;
nodes = (
(579.004,-8,o),
(643.456,52.174,o),
(643.381,181.946,cs),
(643.456,322.745,o),
(585.239,373.783,o),
(448.598,373.783,cs),
(395.685,373.783,l),
(403.772,345.022,l),
(597.794,594.283,l),
(597.794,657.609,l),
(537.537,678.891,o),
(439.377,696,o),
(344.265,696,cs),
(136.058,696,o),
(91.413,638.408,o),
(91.413,368.609,cs),
(91.413,0,l),
(177.413,0,l),
(177.413,344,ls),
(177.413,594.109,o),
(192.099,621.783,o),
(363.887,621.783,cs),
(417.228,621.783,o),
(468.402,615.5,o),
(530.925,598.283,c),
(528.403,631.674,l),
(325.185,371.935,l),
(325.185,311.348,l),
(437.207,311.348,ls),
(524.608,311.348,o),
(556.369,279.391,o),
(556.294,187.798,cs),
(556.369,93.397,o),
(523.412,66.217,o),
(408.31,66.217,cs),
(371.366,66.217,o),
(312.249,71.217,o),
(263.403,78.217,c),
(263.403,9.261,l),
(303.14,-0.37,o),
(367.296,-8,o),
(413.721,-8,cs)
);
}
);
width = 715.45652;
},
{
anchors = (
{
name = bottom;
pos = (367.239,0);
},
{
name = top;
pos = (367.239,688);
}
);
layerId = m015;
shapes = (
{
closed = 1;
nodes = (
(579.004,-8,o),
(643.456,52.174,o),
(643.381,181.946,cs),
(643.456,322.745,o),
(585.239,373.783,o),
(448.598,373.783,cs),
(395.685,373.783,l),
(403.772,345.022,l),
(597.794,594.283,l),
(597.794,657.609,l),
(537.537,678.891,o),
(439.377,696,o),
(344.265,696,cs),
(136.058,696,o),
(91.413,638.408,o),
(91.413,368.609,cs),
(91.413,0,l),
(177.413,0,l),
(177.413,344,ls),
(177.413,594.109,o),
(192.099,621.783,o),
(363.887,621.783,cs),
(417.228,621.783,o),
(468.402,615.5,o),
(530.925,598.283,c),
(528.403,631.674,l),
(325.185,371.935,l),
(325.185,311.348,l),
(437.207,311.348,ls),
(524.608,311.348,o),
(556.369,279.391,o),
(556.294,187.798,cs),
(556.369,93.397,o),
(523.412,66.217,o),
(408.31,66.217,cs),
(371.366,66.217,o),
(312.249,71.217,o),
(263.403,78.217,c),
(263.403,9.261,l),
(303.14,-0.37,o),
(367.296,-8,o),
(413.721,-8,cs)
);
}
);
width = 715.45652;
},
{
anchors = (
{
name = bottom;
pos = (381,0);
},
{
name = top;
pos = (381,688);
}
);
layerId = "4F93A97B-747D-4721-B098-38A63C534D7A";
shapes = (
{
closed = 1;
nodes = (
(703,-8,o),
(753,64,o),
(753,184,cs),
(753,355,o),
(661,380,o),
(475,381,cs),
(460,381,l),
(524,305,l),
(719,519,l),
(719,661,l),
(615,677,o),
(486,696,o),
(356,696,cs),
(82,696,o),
(51,627,o),
(51,354,cs),
(51,0,l),
(285,0,l),
(285,324,ls),
(285,508,o),
(285,529,o),
(394,529,cs),
(413,529,o),
(490,529,o),
(562,513,c),
(531,596,l),
(359,408,l),
(359,266,l),
(446,266,ls),
(506,266,o),
(519,263,o),
(519,209,cs),
(519,160,o),
(508,159,o),
(440,159,cs),
(416,159,o),
(375,164,o),
(340,171,c),
(340,15,l),
(380,2,o),
(440,-8,o),
(483,-8,cs)
);
}
);
width = 790;
},
{
anchors = (
{
name = bottom;
pos = (367.239,0);
},
{
name = top;
pos = (367.239,688);
}
);
layerId = m016;
shapes = (
{
closed = 1;
nodes = (
(579.004,-8,o),
(643.456,52.174,o),
(643.381,181.946,cs),
(643.456,322.745,o),
(585.239,373.783,o),
(448.598,373.783,cs),
(395.685,373.783,l),
(403.772,345.022,l),
(597.794,594.283,l),
(597.794,657.609,l),
(537.537,678.891,o),
(439.377,696,o),
(344.265,696,cs),
(136.058,696,o),
(91.413,638.408,o),
(91.413,368.609,cs),
(91.413,0,l),
(177.413,0,l),
(177.413,344,ls),
(177.413,594.109,o),
(192.099,621.783,o),
(363.887,621.783,cs),
(417.228,621.783,o),
(468.402,615.5,o),
(530.925,598.283,c),
(528.403,631.674,l),
(325.185,371.935,l),
(325.185,311.348,l),
(437.207,311.348,ls),
(524.608,311.348,o),
(556.369,279.391,o),
(556.294,187.798,cs),
(556.369,93.397,o),
(523.412,66.217,o),
(408.31,66.217,cs),
(371.366,66.217,o),
(312.249,71.217,o),
(263.403,78.217,c),
(263.403,9.261,l),
(303.14,-0.37,o),
(367.296,-8,o),
(413.721,-8,cs)
);
}
);
width = 715.45652;
}
);
metricLeft = "=U";
metricRight = "=B";
unicode = 7838;
},
{
color = 3;
export = 0;
glyphname = Tbar;
kernLeft = T;
kernRight = T;
layers = (
{
layerId = m009;
shapes = (
{
closed = 1;
nodes = (
(525.674,307.413,l),
(525.674,375.283,l),
(55.239,375.283,l),
(55.239,307.413,l)
);
},
{
ref = T;
}
);
width = 580.91304;
},
{
layerId = m010;
shapes = (
{
closed = 1;
nodes = (
(525.674,307.413,l),
(525.674,375.283,l),
(55.239,375.283,l),
(55.239,307.413,l)
);
},
{
ref = T;
}
);
width = 580.91304;
},
{
layerId = m011;
shapes = (
{
closed = 1;
nodes = (
(525.674,307.413,l),
(525.674,375.283,l),
(55.239,375.283,l),
(55.239,307.413,l)
);
},
{
ref = T;
}
);
width = 580.91304;
},
{
layerId = m012;
shapes = (
{
closed = 1;
nodes = (
(525.674,307.413,l),
(525.674,375.283,l),
(55.239,375.283,l),
(55.239,307.413,l)
);
},
{
ref = T;
}
);
width = 580.91304;
},
{
layerId = m013;
shapes = (
{
closed = 1;
nodes = (
(525.674,307.413,l),
(525.674,375.283,l),
(55.239,375.283,l),
(55.239,307.413,l)
);
},
{
ref = T;
}
);
width = 580.91304;
},
{
layerId = m014;
shapes = (
{
closed = 1;
nodes = (
(525.674,307.413,l),
(525.674,375.283,l),
(55.239,375.283,l),
(55.239,307.413,l)
);
},
{
ref = T;
}
);
width = 580.91304;
},
{
layerId = m015;
shapes = (
{
closed = 1;
nodes = (
(525.674,307.413,l),
(525.674,375.283,l),
(55.239,375.283,l),
(55.239,307.413,l)
);
},
{
ref = T;
}
);
width = 580.91304;
},
{
layerId = "4F93A97B-747D-4721-B098-38A63C534D7A";
shapes = (
{
closed = 1;
nodes = (
(563,251,l),
(563,388,l),
(33,388,l),
(33,251,l)
);
},
{
ref = T;
}
);
width = 597;
},
{
layerId = m016;
shapes = (
{
closed = 1;
nodes = (
(525.674,307.413,l),
(525.674,375.283,l),
(55.239,375.283,l),
(55.239,307.413,l)
);
},
{
ref = T;
}
);
width = 580.91304;
}
);
unicode = 358;
},
{
color = 3;
export = 0;
glyphname = Uhorn;
kernLeft = U;
kernRight = U;
layers = (
{
anchors = (
{
name = _topright;
pos = (552.087,688);
},
{
name = bottom;
pos = (354.652,0);
},
{
name = top;
pos = (354.652,688);
},
{
name = topright;
pos = (552.087,782.196);
}
);
layerId = m009;
shapes = (
{
closed = 1;
nodes = (
(618.152,648.587,ls),
(715.587,648.587,o),
(733.217,671.848,o),
(733.217,758.543,cs),
(733.217,782.196,l),
(674.13,782.196,l),
(674.13,751,ls),
(674.13,702,o),
(668.043,688,o),
(618.152,688,cs),
(552.087,688,l),
(552.087,648.587,l)
);
},
{
ref = U;
}
);
width = 708.30435;
},
{
anchors = (
{
name = _topright;
pos = (552.087,688);
},
{
name = bottom;
pos = (354.652,0);
},
{
name = top;
pos = (354.652,688);
},
{
name = topright;
pos = (552.087,782.196);
}
);
layerId = m010;
shapes = (
{
closed = 1;
nodes = (
(618.152,648.587,ls),
(715.587,648.587,o),
(733.217,671.848,o),
(733.217,758.543,cs),
(733.217,782.196,l),
(674.13,782.196,l),
(674.13,751,ls),
(674.13,702,o),
(668.043,688,o),
(618.152,688,cs),
(552.087,688,l),
(552.087,648.587,l)
);
},
{
ref = U;
}
);
width = 708.30435;
},
{
anchors = (
{
name = _topright;
pos = (552.087,688);
},
{
name = bottom;
pos = (354.652,0);
},
{
name = top;
pos = (354.652,688);
},
{
name = topright;
pos = (552.087,782.196);
}
);
layerId = m011;
shapes = (
{
closed = 1;
nodes = (
(618.152,648.587,ls),
(715.587,648.587,o),
(733.217,671.848,o),
(733.217,758.543,cs),
(733.217,782.196,l),
(674.13,782.196,l),
(674.13,751,ls),
(674.13,702,o),
(668.043,688,o),
(618.152,688,cs),
(552.087,688,l),
(552.087,648.587,l)
);
},
{
ref = U;
}
);
width = 708.30435;
},
{
anchors = (
{
name = _topright;
pos = (552.087,688);
},
{
name = bottom;
pos = (354.652,0);
},
{
name = top;
pos = (354.652,688);
},
{
name = topright;
pos = (552.087,782.196);
}
);
layerId = m012;
shapes = (
{
closed = 1;
nodes = (
(618.152,648.587,ls),
(715.587,648.587,o),
(733.217,671.848,o),
(733.217,758.543,cs),
(733.217,782.196,l),
(674.13,782.196,l),
(674.13,751,ls),
(674.13,702,o),
(668.043,688,o),
(618.152,688,cs),
(552.087,688,l),
(552.087,648.587,l)
);
},
{
ref = U;
}
);
width = 708.30435;
},
{
anchors = (
{
name = _topright;
pos = (552.087,688);
},
{
name = bottom;
pos = (354.652,0);
},
{
name = top;
pos = (354.652,688);
},
{
name = topright;
pos = (552.087,782.196);
}
);
layerId = m013;
shapes = (
{
closed = 1;
nodes = (
(618.152,648.587,ls),
(715.587,648.587,o),
(733.217,671.848,o),
(733.217,758.543,cs),
(733.217,782.196,l),
(674.13,782.196,l),
(674.13,751,ls),
(674.13,702,o),
(668.043,688,o),
(618.152,688,cs),
(552.087,688,l),
(552.087,648.587,l)
);
},
{
ref = U;
}
);
width = 708.30435;
},
{
anchors = (
{
name = _topright;
pos = (552.087,688);
},
{
name = bottom;
pos = (354.652,0);
},
{
name = top;
pos = (354.652,688);
},
{
name = topright;
pos = (552.087,782.196);
}
);
layerId = m014;
shapes = (
{
closed = 1;
nodes = (
(618.152,648.587,ls),
(715.587,648.587,o),
(733.217,671.848,o),
(733.217,758.543,cs),
(733.217,782.196,l),
(674.13,782.196,l),
(674.13,751,ls),
(674.13,702,o),
(668.043,688,o),
(618.152,688,cs),
(552.087,688,l),
(552.087,648.587,l)
);
},
{
ref = U;
}
);
width = 708.30435;
},
{
anchors = (
{
name = _topright;
pos = (552.087,688);
},
{
name = bottom;
pos = (354.652,0);
},
{
name = top;
pos = (354.652,688);
},
{
name = topright;
pos = (552.087,782.196);
}
);
layerId = m015;
shapes = (
{
closed = 1;
nodes = (
(618.152,648.587,ls),
(715.587,648.587,o),
(733.217,671.848,o),
(733.217,758.543,cs),
(733.217,782.196,l),
(674.13,782.196,l),
(674.13,751,ls),
(674.13,702,o),
(668.043,688,o),
(618.152,688,cs),
(552.087,688,l),
(552.087,648.587,l)
);
},
{
ref = U;
}
);
width = 708.30435;
},
{
anchors = (
{
name = _topright;
pos = (494,688);
},
{
name = bottom;
pos = (338,0);
},
{
name = top;
pos = (338,688);
},
{
name = topright;
pos = (494,776);
}
);
layerId = "4F93A97B-747D-4721-B098-38A63C534D7A";
shapes = (
{
closed = 1;
nodes = (
(520,616,ls),
(703,616,o),
(725,649,o),
(725,763,cs),
(725,776,l),
(590,776,l),
(590,754,ls),
(590,704,o),
(583,688,o),
(520,688,cs),
(494,688,l),
(494,616,l)
);
},
{
ref = U;
}
);
width = 675;
},
{
anchors = (
{
name = _topright;
pos = (552.087,688);
},
{
name = bottom;
pos = (354.652,0);
},
{
name = top;
pos = (354.652,688);
},
{
name = topright;
pos = (552.087,782.196);
}
);
layerId = m016;
shapes = (
{
closed = 1;
nodes = (
(618.152,648.587,ls),
(715.587,648.587,o),
(733.217,671.848,o),
(733.217,758.543,cs),
(733.217,782.196,l),
(674.13,782.196,l),
(674.13,751,ls),
(674.13,702,o),
(668.043,688,o),
(618.152,688,cs),
(552.087,688,l),
(552.087,648.587,l)
);
},
{
ref = U;
}
);
width = 708.30435;
}
);
unicode = 431;
},
{
export = 0;
glyphname = Saltillo;
layers = (
{
layerId = m009;
shapes = (
{
closed = 1;
nodes = (
(143.913,283.674,l),
(166.435,510,l),
(166.435,688,l),
(89.13,688,l),
(89.13,283.674,l)
);
}
);
width = 255.56522;
},
{
layerId = m010;
shapes = (
{
closed = 1;
nodes = (
(143.913,283.674,l),
(166.435,510,l),
(166.435,688,l),
(89.13,688,l),
(89.13,283.674,l)
);
}
);
width = 255.56522;
},
{
layerId = m011;
shapes = (
{
closed = 1;
nodes = (
(143.913,283.674,l),
(166.435,510,l),
(166.435,688,l),
(89.13,688,l),
(89.13,283.674,l)
);
}
);
width = 255.56522;
},
{
layerId = m012;
shapes = (
{
closed = 1;
nodes = (
(143.913,283.674,l),
(166.435,510,l),
(166.435,688,l),
(89.13,688,l),
(89.13,283.674,l)
);
}
);
width = 255.56522;
},
{
layerId = m013;
shapes = (
{
closed = 1;
nodes = (
(143.913,283.674,l),
(166.435,510,l),
(166.435,688,l),
(89.13,688,l),
(89.13,283.674,l)
);
}
);
width = 255.56522;
},
{
layerId = m014;
shapes = (
{
closed = 1;
nodes = (
(143.913,283.674,l),
(166.435,510,l),
(166.435,688,l),
(89.13,688,l),
(89.13,283.674,l)
);
}
);
width = 255.56522;
},
{
layerId = m015;
shapes = (
{
closed = 1;
nodes = (
(143.913,283.674,l),
(166.435,510,l),
(166.435,688,l),
(89.13,688,l),
(89.13,283.674,l)
);
}
);
width = 255.56522;
},
{
layerId = "4F93A97B-747D-4721-B098-38A63C534D7A";
shapes = (
{
closed = 1;
nodes = (
(182,261,l),
(224,522,l),
(224,688,l),
(40,688,l),
(40,261,l)
);
}
);
width = 264;
},
{
layerId = m016;
shapes = (
{
closed = 1;
nodes = (
(143.913,283.674,l),
(166.435,510,l),
(166.435,688,l),
(89.13,688,l),
(89.13,283.674,l)
);
}
);
width = 255.56522;
}
);
unicode = 42891;
},
